<svg xmlns="http://www.w3.org/2000/svg"  viewBox="0 0 64 64" width="64px" height="64px" fill-rule="evenodd" clip-rule="evenodd"><path fill="#f283a5" fill-rule="evenodd" d="M60.075,40.149l-4.227-14.284 C55.345,24.166,53.784,23,52.012,23H39.988c-1.772,0-3.333,1.166-3.836,2.865l-4.227,14.284c-0.314,1.062,0.3,2.176,1.365,2.477h0 c1.056,0.299,2.155-0.315,2.454-1.372L39,29.742L35,49h23l-5-19.258l3.256,11.512c0.299,1.056,1.397,1.671,2.454,1.372h0 C59.776,42.324,60.39,41.211,60.075,40.149z" clip-rule="evenodd"/><path fill="#faefde" fill-rule="evenodd" d="M35.744 41.254l2.293-8.108c-1.35.047-2.71.201-4.055.05l-2.058 6.953c-.314 1.062.3 2.176 1.365 2.477C34.346 42.925 35.445 42.31 35.744 41.254zM60.075 40.149l-2.058-6.953c-.022.001-.037.012-.059.012H53.98l2.276 8.046c.299 1.056 1.397 1.671 2.454 1.372C59.776 42.324 60.39 41.21 60.075 40.149zM44 49h-5v9.5c0 1.381 1.119 2.5 2.5 2.5h0c1.381 0 2.5-1.119 2.5-2.5V49zM53 49h-5v9.5c0 1.381 1.119 2.5 2.5 2.5h0c1.381 0 2.5-1.119 2.5-2.5V49z" clip-rule="evenodd"/><path fill="#72caaf" fill-rule="evenodd" d="M32.075,40.149l-4.227-14.284 C27.345,24.166,25.784,23,24.012,23H11.988c-1.772,0-3.333,1.166-3.836,2.865L3.925,40.149c-0.314,1.062,0.3,2.176,1.365,2.477h0 c1.056,0.299,2.155-0.315,2.454-1.372L11,29.742V46h14V29.742l3.256,11.512c0.299,1.056,1.397,1.671,2.454,1.372h0 C31.776,42.324,32.39,41.211,32.075,40.149z" clip-rule="evenodd"/><path fill="#faefde" fill-rule="evenodd" d="M6.632,31.001l-2.707,9.148 c-0.314,1.062,0.3,2.176,1.365,2.477c1.056,0.299,2.155-0.315,2.454-1.372l2.898-10.245C9.304,31.021,7.961,31.039,6.632,31.001z" clip-rule="evenodd"/><path fill="#85cbf8" fill-rule="evenodd" d="M11 37H25V46H11z" clip-rule="evenodd"/><path fill="#faefde" fill-rule="evenodd" d="M32.075 40.149l-2.738-9.253c-.506-.052-1.012-.095-1.519-.052-.798.069-1.586.289-2.369.485l2.807 9.925c.299 1.056 1.397 1.671 2.454 1.372C31.776 42.324 32.39 41.21 32.075 40.149zM16 46h-5v12.5c0 1.381 1.119 2.5 2.5 2.5h0c1.381 0 2.5-1.119 2.5-2.5V46zM25 46h-5v12.5c0 1.381 1.119 2.5 2.5 2.5h0c1.381 0 2.5-1.119 2.5-2.5V46zM46 5A7 7 0 1 0 46 19 7 7 0 1 0 46 5z" clip-rule="evenodd"/><path fill="#d3a9b0" fill-rule="evenodd" d="M39,11c3,0,13,0,14,0c-0.357-3.531-3.375-6-7-6 C40,5,38.991,11,39,11z" clip-rule="evenodd"/><path fill="#faefde" fill-rule="evenodd" d="M18 5A7 7 0 1 0 18 19A7 7 0 1 0 18 5Z" clip-rule="evenodd"/><path fill="#d3a9b0" fill-rule="evenodd" d="M39 9.102c-3.391.625-6 4.365-6 8.898h6V9.102zM53 9.102c3.391.625 6 4.365 6 8.898h-6V9.102z" clip-rule="evenodd"/><path fill="#8d6c9f" d="M46 20c-4.411 0-8-3.589-8-8s3.589-8 8-8 8 3.589 8 8S50.411 20 46 20zM46 6c-3.309 0-6 2.691-6 6s2.691 6 6 6 6-2.691 6-6S49.309 6 46 6zM18 20c-4.411 0-8-3.589-8-8s3.589-8 8-8 8 3.589 8 8S22.411 20 18 20zM18 6c-3.309 0-6 2.691-6 6s2.691 6 6 6 6-2.691 6-6S21.309 6 18 6z"/><path fill="#8d6c9f" d="M39 19h-6c-.552 0-1-.447-1-1 0-4.997 2.868-9.152 6.819-9.881.291-.051.592.025.821.215C39.868 8.524 40 8.806 40 9.103V18C40 18.553 39.552 19 39 19zM34.047 17H38v-6.529C35.885 11.474 34.333 14.008 34.047 17zM59 19h-6c-.552 0-1-.447-1-1V9.103c0-.297.132-.578.36-.769s.529-.268.821-.215C57.132 8.848 60 13.003 60 18 60 18.553 59.552 19 59 19zM54 17h3.953c-.286-2.992-1.838-5.526-3.953-6.529V17zM32.704 38.748l-3.897-13.166C28.183 23.473 26.211 22 24.012 22H11.988c-2.199 0-4.171 1.473-4.794 3.581L2.966 39.864c-.229.772-.14 1.585.248 2.29s1.029 1.215 1.804 1.434c.768.22 1.575.122 2.271-.267.696-.39 1.2-1.027 1.417-1.795L10 36.951V46c0 .553.448 1 1 1h14c.552 0 1-.447 1-1v-9.049l1.294 4.575c.217.768.721 1.405 1.417 1.795.697.388 1.503.482 2.271.267.594-.168 1.106-.509 1.489-.975C31.716 41.465 31.789 39.781 32.704 38.748zM31.034 41.189c-.128.233-.34.401-.597.475-.253.072-.52.041-.75-.089-.23-.129-.396-.34-.468-.594L25.962 29.47c-.136-.479-.607-.79-1.1-.718C24.368 28.82 24 29.243 24 29.742V45H12V29.742c0-.499-.368-.922-.863-.99-.494-.075-.964.238-1.1.718L6.781 40.981c-.072.254-.238.465-.468.594-.23.13-.498.161-.75.089-.256-.073-.468-.241-.597-.475s-.158-.502-.082-.757l4.228-14.284C9.485 24.884 10.668 24 11.988 24h12.024c1.319 0 2.502.884 2.876 2.149l4.228 14.283C31.192 40.688 31.163 40.956 31.034 41.189z"/><path fill="#8d6c9f" d="M13.5 62c-1.93 0-3.5-1.57-3.5-3.5V46c0-.553.448-1 1-1h5c.552 0 1 .447 1 1v12.5C17 60.43 15.43 62 13.5 62zM12 47v11.5c0 .827.673 1.5 1.5 1.5s1.5-.673 1.5-1.5V47H12zM22.5 62c-1.93 0-3.5-1.57-3.5-3.5V46c0-.553.448-1 1-1h5c.552 0 1 .447 1 1v12.5C26 60.43 24.43 62 22.5 62zM21 47v11.5c0 .827.673 1.5 1.5 1.5s1.5-.673 1.5-1.5V47H21zM21 38H11c-.552 0-1-.447-1-1s.448-1 1-1h10c.552 0 1 .447 1 1S21.552 38 21 38zM58 50H35c-.301 0-.586-.136-.776-.369s-.265-.54-.203-.834l1.121-5.399c-.661.325-1.408.396-2.125.19-.775-.219-1.416-.729-1.804-1.434s-.477-1.518-.248-2.29l4.228-14.283C35.817 23.473 37.789 22 39.988 22h12.024c2.199 0 4.171 1.473 4.794 3.582l4.228 14.282 0 0c.229.772.14 1.585-.248 2.29s-1.029 1.215-1.804 1.434c-.442.126-.897.147-1.336.068l1.322 5.093c.078.299.013.618-.177.863C58.602 49.856 58.31 50 58 50zM36.229 48h20.478l-4.675-18.007c-.138-.53.177-1.072.706-1.216.529-.148 1.075.166 1.224.692l3.256 11.512c.072.254.238.465.468.594.23.13.498.161.75.089.256-.073.468-.241.597-.475s.158-.502.082-.757l-4.228-14.283C54.515 24.884 53.332 24 52.012 24H39.988c-1.319 0-2.502.884-2.876 2.148l-4.228 14.284c-.076.255-.046.523.082.757s.34.401.597.475c.252.072.52.041.75-.089.23-.129.396-.34.468-.594l3.256-11.512c.147-.517.678-.828 1.2-.699.523.129.851.647.741 1.175L36.229 48z"/><path fill="#8d6c9f" d="M41.5 62c-1.93 0-3.5-1.57-3.5-3.5V49c0-.553.448-1 1-1h5c.552 0 1 .447 1 1v9.5C45 60.43 43.43 62 41.5 62zM40 50v8.5c0 .827.673 1.5 1.5 1.5s1.5-.673 1.5-1.5V50H40zM50.5 62c-1.93 0-3.5-1.57-3.5-3.5V49c0-.553.448-1 1-1h5c.552 0 1 .447 1 1v9.5C54 60.43 52.43 62 50.5 62zM49 50v8.5c0 .827.673 1.5 1.5 1.5s1.5-.673 1.5-1.5V50H49zM41 46c-.552 0-1-.447-1-1v-2c0-.553.448-1 1-1s1 .447 1 1v2C42 45.553 41.552 46 41 46zM46 46c-.552 0-1-.447-1-1v-2c0-.553.448-1 1-1s1 .447 1 1v2C47 45.553 46.552 46 46 46zM51 46c-.552 0-1-.447-1-1v-2c0-.553.448-1 1-1s1 .447 1 1v2C52 45.553 51.552 46 51 46zM38 34h-3c-.552 0-1-.447-1-1s.448-1 1-1h3c.552 0 1 .447 1 1S38.552 34 38 34zM57 34h-3c-.552 0-1-.447-1-1s.448-1 1-1h3c.552 0 1 .447 1 1S57.552 34 57 34zM7 30H11V32H7zM25 30H29V32H25zM52 12H39c-.552 0-1-.447-1-1s.448-1 1-1h13c.552 0 1 .447 1 1S52.552 12 52 12z"/></svg>