<?xml version="1.0" encoding="iso-8859-1"?>
<!-- Generator: Adobe Illustrator 22.0.1, SVG Export Plug-In . SVG Version: 6.00 Build 0)  -->
<svg version="1.1" id="Layer_7" xmlns="http://www.w3.org/2000/svg" xmlns:xlink="http://www.w3.org/1999/xlink" x="0px" y="0px"
	 viewBox="0 0 512 512" style="enable-background:new 0 0 512 512;" xml:space="preserve">
<g>
	<path style="fill:#704D70;" d="M511.993,257.825C510.986,399.213,395.56,513,254.176,511.993
		C112.794,510.987-1,395.567,0.007,254.179C1.014,112.792,116.44-1.001,257.82,0.007C399.206,1.013,513,116.438,511.993,257.825z"/>
	<g>
		<defs>
			<path id="SVGID_63_" d="M0,255.996C0,114.607,114.613,0,256.002,0C397.387,0,512,114.607,512,255.996
				C512,397.389,397.387,512,256.002,512C114.613,512,0,397.389,0,255.996z"/>
		</defs>
		<clipPath id="SVGID_2_">
			<use xlink:href="#SVGID_63_"  style="overflow:visible;"/>
		</clipPath>
		<g style="clip-path:url(#SVGID_2_);">
			<path style="fill:#E38A5B;" d="M181.757,253.97c7.233,17.13,3.295,33.778-8.796,37.187c-12.093,3.409-27.754-7.714-34.987-24.842
				c-7.233-17.13-3.295-33.779,8.796-37.188C158.86,225.719,174.526,236.843,181.757,253.97z"/>
			<path style="fill:#E38A5B;" d="M328.99,253.97c-7.233,17.13-3.292,33.778,8.798,37.187c12.091,3.409,27.754-7.714,34.985-24.842
				c7.235-17.13,3.297-33.779-8.796-37.188C351.888,225.719,336.223,236.843,328.99,253.97z"/>
		</g>
		<ellipse style="clip-path:url(#SVGID_2_);fill:#3D2A3D;" cx="255.374" cy="171.947" rx="126.788" ry="116.063"/>
		<path style="clip-path:url(#SVGID_2_);fill:#E38A5B;" d="M460,562.571l-0.058-0.928c0-56.454-21.133-111.15-46.936-121.566
			l-109.897-44.274c-25.805-10.407-68.065-10.448-93.876-0.124l-111.47,44.537c-25.826,10.339-46.958,64.973-46.958,121.427
			l-0.057,0.928H460z"/>
		<path style="clip-path:url(#SVGID_2_);fill:#E38A5B;" d="M301.913,398.519c0,24.234-19.645,43.879-43.878,43.879h-5.321
			c-24.233,0-43.878-19.645-43.878-43.879V285.497c0-24.233,19.645-43.879,43.878-43.879h5.321
			c24.233,0,43.878,19.646,43.878,43.879V398.519z"/>
		<g style="clip-path:url(#SVGID_2_);">
			<g>
				<path style="fill:#F5B68C;" d="M352.905,283.143c0,40.187-32.578,72.765-72.765,72.765h-43.336
					c-40.187,0-72.765-32.578-72.765-72.765V161.261c0-40.187,32.578-72.765,72.765-72.765h43.336
					c40.187,0,72.765,32.578,72.765,72.765V283.143z"/>
			</g>
		</g>
		<g style="clip-path:url(#SVGID_2_);">
			<circle style="fill:#572020;" cx="219.166" cy="247.489" r="10.919"/>
			<circle style="fill:#572020;" cx="291.581" cy="247.489" r="10.919"/>
		</g>
		<g style="clip-path:url(#SVGID_2_);">
			<path style="fill:#3D2A3D;" d="M255.374,73.272c-61.224,0-110.856,53.793-110.856,120.155c0,22.038,5.478,42.685,15.032,60.444
				l11.013-93.408l169.602-0.008l11.034,93.413c9.552-17.756,15.03-38.403,15.03-60.442
				C366.229,127.066,316.598,73.272,255.374,73.272z"/>
		</g>
		<path style="clip-path:url(#SVGID_2_);fill:#E38A5B;" d="M271,268.928c-0.495,8.704-7.769,15.608-16.76,15.608
			c-7.616,0-13.977-4.982-16.07-11.81c-0.468,1.601-0.807,3.267-0.807,5.012c0,9.953,8.078,18.029,18.014,18.029
			c9.961,0,18.009-8.075,18.009-18.029C273.385,274.513,272.483,271.545,271,268.928z"/>
		<path style="clip-path:url(#SVGID_2_);fill:#43B06D;" d="M459.942,561.643c0-56.454-21.133-111.15-46.936-121.566l-87.378-35.202
			c-12.148,26.681-39.025,45.241-70.254,45.241c-31.084,0-57.858-18.387-70.086-44.87l-87.525,34.97
			c-25.826,10.339-46.958,64.973-46.958,121.427l-0.057,0.928H460L459.942,561.643z"/>
		<path style="clip-path:url(#SVGID_2_);fill:#3D2A3D;" d="M275.424,117.31l-8.256-28.049l-116.359,84.721v57.405l72.693-18.002
			C264.786,203.161,288.033,160.147,275.424,117.31z"/>
		<path style="clip-path:url(#SVGID_2_);fill:#3D2A3D;" d="M359.579,205.64c-0.068-27.848-8.685-54.775-19.057-81.206
			c-5.197-1.848-10.79-2.863-16.621-2.863c-27.4,0-49.612,22.212-49.612,49.612s22.212,49.612,49.612,49.612
			C337.913,220.796,350.558,214.979,359.579,205.64z"/>
		<g style="clip-path:url(#SVGID_2_);">
			<g>
				<path style="fill:#A91935;" d="M211.71,302.509c0,0.205-0.013,0.435-0.013,0.653c0,20.937,16.984,37.915,37.909,37.915
					c20.929,0,37.913-16.978,37.913-37.915c0-0.218-0.017-0.449-0.026-0.653H211.71z"/>
				<path style="fill:#FFFFFF;" d="M223.746,302.509v3.244c0,6.586,5.329,11.914,11.903,11.914h39.002
					c6.584,0,11.921-5.328,11.921-11.914v-3.244H223.746z"/>
			</g>
		</g>
		<g style="clip-path:url(#SVGID_2_);">
			<g>
				<g>
					<path style="fill:#3D2A3D;" d="M230.213,278.893h-44.635c-9.445,0-17.129-7.684-17.129-17.129v-19.302
						c0-9.444,7.684-17.129,17.129-17.129h44.635c9.445,0,17.129,7.684,17.129,17.129v19.302
						C247.342,271.209,239.658,278.893,230.213,278.893z M185.578,233.051c-5.189,0-9.411,4.222-9.411,9.411v19.302
						c0,5.189,4.222,9.411,9.411,9.411h44.635c5.189,0,9.412-4.222,9.412-9.411v-19.302c0-5.189-4.222-9.411-9.412-9.411H185.578z"
						/>
				</g>
				<g>
					<path style="fill:#3D2A3D;" d="M325.516,278.893H280.88c-9.445,0-17.129-7.684-17.129-17.129v-19.302
						c0-9.444,7.684-17.129,17.129-17.129h44.636c9.445,0,17.129,7.684,17.129,17.129v19.302
						C342.644,271.209,334.961,278.893,325.516,278.893z M280.88,233.051c-5.189,0-9.411,4.222-9.411,9.411v19.302
						c0,5.189,4.222,9.411,9.411,9.411h44.636c5.189,0,9.411-4.222,9.411-9.411v-19.302c0-5.189-4.222-9.411-9.411-9.411H280.88z"/>
				</g>
			</g>
			<rect x="243.971" y="248.574" style="fill:#3D2A3D;" width="23.152" height="8.82"/>
		</g>
	</g>
</g>
</svg>
