<?xml version="1.0" encoding="iso-8859-1"?>
<!-- Generator: Adobe Illustrator 22.0.1, SVG Export Plug-In . SVG Version: 6.00 Build 0)  -->
<svg version="1.1" id="Layer_7" xmlns="http://www.w3.org/2000/svg" xmlns:xlink="http://www.w3.org/1999/xlink" x="0px" y="0px"
	 viewBox="0 0 512 512" style="enable-background:new 0 0 512 512;" xml:space="preserve">
<g>
	<path style="fill:#3D2A3D;" d="M0,255.998C0,114.607,114.613,0,256.002,0C397.387,0,512,114.607,512,255.998
		C512,397.388,397.387,512,256.002,512C114.613,512,0,397.388,0,255.998z"/>
	<g>
		<defs>
			<path id="SVGID_69_" d="M0,255.996C0,114.607,114.613,0,256.002,0C397.387,0,512,114.607,512,255.996
				C512,397.389,397.387,512,256.002,512C114.613,512,0,397.389,0,255.996z"/>
		</defs>
		<clipPath id="SVGID_2_">
			<use xlink:href="#SVGID_69_"  style="overflow:visible;"/>
		</clipPath>
		<g style="clip-path:url(#SVGID_2_);">
			<g>
				<path style="fill:#F0B39C;" d="M189.041,265.974c6.561,15.537,2.988,30.638-7.979,33.73
					c-10.969,3.092-25.174-6.997-31.734-22.532c-6.561-15.537-2.988-30.639,7.979-33.73S182.482,250.439,189.041,265.974z"/>
				<path style="fill:#F0B39C;" d="M322.586,265.974c-6.56,15.537-2.986,30.638,7.98,33.73c10.967,3.092,25.174-6.997,31.732-22.532
					c6.562-15.537,2.99-30.639-7.978-33.73C343.355,240.349,329.146,250.439,322.586,265.974z"/>
			</g>
			<ellipse style="fill:#A14B2A;" cx="255.814" cy="191.577" rx="115" ry="105.272"/>
			<path style="fill:#F0B39C;" d="M441.416,545.884l-0.053-0.842c0-51.205-19.168-100.816-42.572-110.264l-99.68-40.158
				c-23.406-9.439-61.737-9.477-85.148-0.112l-101.107,40.396c-23.425,9.378-42.593,58.933-42.593,110.138l-0.052,0.842H441.416z"/>
			<path style="fill:#F0B39C;" d="M298.026,397.085c0,21.981-17.818,39.8-39.799,39.8h-4.826c-21.98,0-39.799-17.818-39.799-39.8
				V294.57c0-21.98,17.818-39.8,39.799-39.8h4.826c21.98,0,39.799,17.819,39.799,39.8V397.085z"/>
			<g>
				<path style="fill:#FFDBC5;" d="M350.594,272.125c0,54.088-42.414,97.85-94.766,97.85l0,0c-52.379,0-94.794-43.762-94.794-97.85
					v-56.403c0-54.004,42.415-97.837,94.794-97.837l0,0c52.352,0,94.766,43.833,94.766,97.837V272.125z"/>
			</g>
			<g>
				<circle style="fill:#2961A5;" cx="222.973" cy="275.449" r="9.904"/>
				<circle style="fill:#2961A5;" cx="288.655" cy="275.449" r="9.904"/>
			</g>
			<g>
				<path style="fill:#A14B2A;" d="M255.814,115.709c-55.532,0-100.55,48.792-100.55,108.984c0,19.989,4.969,38.717,13.635,54.824
					l9.989-84.724l153.834-0.007l10.008,84.729c8.664-16.105,13.633-34.833,13.633-54.822
					C356.363,164.501,311.346,115.709,255.814,115.709z"/>
			</g>
			<path style="fill:#F0B39C;" d="M269.987,279.542c-0.449,7.895-7.047,14.157-15.202,14.157c-6.908,0-12.678-4.519-14.576-10.712
				c-0.424,1.452-0.732,2.963-0.732,4.546c0,9.028,7.327,16.353,16.339,16.353c9.035,0,16.335-7.325,16.335-16.353
				C272.151,284.607,271.332,281.915,269.987,279.542z"/>
			<path style="fill:#A18FA1;" d="M441.363,545.043c0-51.205-19.168-100.816-42.572-110.264l-79.255-31.93
				c-11.019,24.201-35.397,41.035-63.722,41.035c-28.194,0-52.479-16.678-63.57-40.698l-79.387,31.719
				c-23.425,9.378-42.593,58.933-42.593,110.138l-0.052,0.842h371.204L441.363,545.043z"/>
			<g>
				<g>
					<path style="fill:#BF642C;" d="M208.747,255.281c6.666-3.328,14.08-4.521,21.48-4.354c6.743,0.152,6.728-10.298,0-10.45
						c-9.286-0.21-18.431,1.624-26.754,5.781C197.443,249.269,202.738,258.282,208.747,255.281L208.747,255.281z"/>
				</g>
				<g>
					<path style="fill:#BF642C;" d="M302.88,255.281c-6.665-3.328-14.079-4.521-21.48-4.354c-6.742,0.152-6.728-10.298,0-10.45
						c9.287-0.21,18.431,1.624,26.754,5.781C314.185,249.269,308.891,258.282,302.88,255.281L302.88,255.281z"/>
				</g>
			</g>
			<g>
				<path style="fill:#BF642C;" d="M222.6,203.923c0,16.051-16.11,29.063-35.982,29.063s-35.985-13.012-35.985-29.063
					c0-16.051,16.113-29.063,35.985-29.063S222.6,187.872,222.6,203.923z"/>
				<path style="fill:#BF642C;" d="M291.798,203.923c0,16.051-16.11,29.063-35.985,29.063c-19.872,0-35.982-13.012-35.982-29.063
					c0-16.051,16.11-29.063,35.982-29.063C275.688,174.86,291.798,187.872,291.798,203.923z"/>
				<ellipse style="fill:#BF642C;" cx="325.012" cy="203.923" rx="35.982" ry="29.063"/>
			</g>
			<g>
				<path style="fill:#FFFFFF;" d="M276.572,308.441c-11.174,10.52-30.342,10.52-41.518,0c-7.879-7.418-19.781,4.44-11.879,11.88
					c17.939,16.887,47.338,16.887,65.275,0C296.355,312.882,284.453,301.023,276.572,308.441L276.572,308.441z"/>
			</g>
		</g>
	</g>
</g>
</svg>
