<?xml version="1.0" encoding="iso-8859-1"?>
<!-- Generator: Adobe Illustrator 22.0.1, SVG Export Plug-In . SVG Version: 6.00 Build 0)  -->
<svg version="1.1" id="Layer_7" xmlns="http://www.w3.org/2000/svg" xmlns:xlink="http://www.w3.org/1999/xlink" x="0px" y="0px"
	 viewBox="0 0 512 512" style="enable-background:new 0 0 512 512;" xml:space="preserve">
<g>
	<path style="fill:#3D2A3D;" d="M0,255.998C0,114.607,114.613,0,256.002,0C397.387,0,512,114.607,512,255.998
		C512,397.388,397.387,512,256.002,512C114.613,512,0,397.388,0,255.998z"/>
	<g>
		<defs>
			<path id="SVGID_77_" d="M0,255.996C0,114.607,114.613,0,256.002,0C397.387,0,512,114.607,512,255.996
				C512,397.389,397.387,512,256.002,512C114.613,512,0,397.389,0,255.996z"/>
		</defs>
		<clipPath id="SVGID_2_">
			<use xlink:href="#SVGID_77_"  style="overflow:visible;"/>
		</clipPath>
		<g style="clip-path:url(#SVGID_2_);">
			<path style="fill:#E38A5B;" d="M197.011,265.974c6.561,15.537,2.988,30.638-7.979,33.73
				c-10.969,3.092-25.174-6.997-31.734-22.532c-6.561-15.537-2.988-30.639,7.979-33.73S190.452,250.439,197.011,265.974z"/>
			<path style="fill:#E38A5B;" d="M330.556,265.974c-6.56,15.537-2.986,30.638,7.98,33.73c10.967,3.092,25.174-6.997,31.732-22.532
				c6.562-15.537,2.99-30.639-7.978-33.73C351.325,240.349,337.116,250.439,330.556,265.974z"/>
		</g>
		<path style="clip-path:url(#SVGID_2_);fill:#E38A5B;" d="M449.386,545.884l-0.053-0.842c0-51.205-19.168-100.816-42.572-110.264
			l-99.68-40.158c-23.406-9.439-61.737-9.477-85.148-0.112l-101.106,40.396c-23.425,9.378-42.593,58.933-42.593,110.138
			l-0.052,0.842H449.386z"/>
		<path style="clip-path:url(#SVGID_2_);fill:#E38A5B;" d="M305.996,397.085c0,21.981-17.818,39.8-39.799,39.8h-4.826
			c-21.981,0-39.799-17.818-39.799-39.8V294.57c0-21.98,17.818-39.8,39.799-39.8h4.826c21.98,0,39.799,17.819,39.799,39.8V397.085z"
			/>
		<g style="clip-path:url(#SVGID_2_);">
			<g>
				<path style="fill:#F5B68C;" d="M349.437,291.733c0,36.842-29.862,66.702-66.704,66.702h-37.904
					c-36.837,0-66.699-29.86-66.699-66.702V182.586c0-36.837,29.862-66.702,66.699-66.702h37.904
					c36.842,0,66.704,29.865,66.704,66.702V291.733z"/>
			</g>
		</g>
		<g style="clip-path:url(#SVGID_2_);">
			<circle style="fill:#3D2A3D;" cx="230.942" cy="265.98" r="9.904"/>
			<circle style="fill:#3D2A3D;" cx="296.625" cy="265.98" r="9.904"/>
		</g>
		<g style="clip-path:url(#SVGID_2_);">
			<path style="fill:#A14B2A;" d="M263.784,102.076c-55.532,0-100.55,48.792-100.55,108.984c0,19.989,4.969,38.717,13.635,54.824
				l9.989-84.724l153.834-0.007l10.008,84.729c8.664-16.105,13.633-34.833,13.633-54.822
				C364.333,150.868,319.316,102.076,263.784,102.076z"/>
		</g>
		<path style="clip-path:url(#SVGID_2_);fill:#E38A5B;" d="M277.957,279.542c-0.449,7.895-7.047,14.157-15.202,14.157
			c-6.908,0-12.678-4.519-14.576-10.712c-0.424,1.452-0.732,2.963-0.732,4.546c0,9.028,7.327,16.353,16.339,16.353
			c9.035,0,16.335-7.325,16.335-16.353C280.121,284.607,279.302,281.915,277.957,279.542z"/>
		<path style="clip-path:url(#SVGID_2_);fill:#FFC34A;" d="M449.333,545.043c0-51.205-19.168-100.816-42.572-110.264l-79.255-31.93
			c-11.019,24.201-35.397,41.035-63.722,41.035c-28.194,0-52.479-16.678-63.57-40.698l-79.387,31.719
			c-23.425,9.378-42.593,58.933-42.593,110.138l-0.052,0.842h371.204L449.333,545.043z"/>
		<g style="clip-path:url(#SVGID_2_);">
			<ellipse style="fill:#EB987F;" cx="318.784" cy="290.884" rx="20" ry="15"/>
			<ellipse style="fill:#EB987F;" cx="208.784" cy="290.884" rx="20" ry="15"/>
		</g>
		<g style="clip-path:url(#SVGID_2_);">
			<g>
				<path style="fill:#A14B2A;" d="M207.582,248.571c7.96-8.755,19.161-12.658,30.818-12.844c5.798-0.092,5.807-9.092,0-9
					c-13.911,0.221-27.671,5.019-37.183,15.48C197.324,246.49,203.67,252.874,207.582,248.571L207.582,248.571z"/>
			</g>
			<g>
				<path style="fill:#A14B2A;" d="M321.582,242.207c-9.511-10.461-23.27-15.259-37.182-15.48c-5.807-0.092-5.798,8.908,0,9
					c11.657,0.186,22.857,4.089,30.817,12.844C319.13,252.874,325.477,246.49,321.582,242.207L321.582,242.207z"/>
			</g>
		</g>
		<g style="clip-path:url(#SVGID_2_);">
			<path style="fill:#FFFFFF;" d="M285.996,312.35c-11.174,10.52-30.342,10.52-41.518,0c-7.879-7.418-19.781,4.44-11.879,11.88
				c17.939,16.887,47.338,16.887,65.275,0C305.779,316.79,293.877,304.932,285.996,312.35L285.996,312.35z"/>
		</g>
	</g>
</g>
</svg>
