<?xml version="1.0" encoding="iso-8859-1"?>
<!-- Generator: Adobe Illustrator 22.0.1, SVG Export Plug-In . SVG Version: 6.00 Build 0)  -->
<svg version="1.1" id="Layer_7" xmlns="http://www.w3.org/2000/svg" xmlns:xlink="http://www.w3.org/1999/xlink" x="0px" y="0px"
	 viewBox="0 0 512 512" style="enable-background:new 0 0 512 512;" xml:space="preserve">
<g>
	<path style="fill:#2961A5;" d="M512,256.003C512,397.393,397.387,512,255.998,512C114.613,512,0,397.393,0,256.003
		C0,114.612,114.613,0,255.998,0C397.387,0,512,114.612,512,256.003z"/>
	<g>
		<defs>
			<path id="SVGID_39_" d="M0,255.996C0,114.607,114.613,0,256.002,0C397.387,0,512,114.607,512,255.996
				C512,397.389,397.387,512,256.002,512C114.613,512,0,397.389,0,255.996z"/>
		</defs>
		<clipPath id="SVGID_2_">
			<use xlink:href="#SVGID_39_"  style="overflow:visible;"/>
		</clipPath>
		<g style="clip-path:url(#SVGID_2_);">
			<path style="fill:#A14B2A;" d="M441.602,512l-0.053-0.842c0-51.205-19.168-100.816-42.572-110.264l-99.68-40.158
				c-23.406-9.439-61.737-9.477-85.148-0.112l-101.107,40.397c-23.425,9.378-42.593,58.933-42.593,110.138L70.398,512H441.602z"/>
			<path style="fill:#E1902B;" d="M441.549,511.158c0-51.205-19.168-100.816-42.572-110.264l-79.255-31.93
				C308.704,393.166,284.326,410,256,410c-28.194,0-52.479-16.678-63.57-40.698l-79.387,31.719
				c-23.425,9.378-42.593,58.933-42.593,110.138L70.398,512h371.204L441.549,511.158z"/>
		</g>
		<g style="clip-path:url(#SVGID_2_);">
			<path style="fill:#A14B2A;" d="M297.403,362.775c0,21.559-17.479,39.038-39.04,39.038h-4.736
				c-21.562,0-39.03-17.479-39.03-39.038V262.228c0-21.557,17.469-39.035,39.03-39.035h4.736c21.562,0,39.04,17.479,39.04,39.035
				V362.775z"/>
			<g>
				<path style="fill:#A14B2A;" d="M186.171,223.463c6.964,15.407,3.33,30.455-8.121,33.609
					c-11.457,3.153-26.388-6.783-33.362-22.187c-6.969-15.409-3.33-30.455,8.116-33.609
					C164.26,198.12,179.201,208.055,186.171,223.463z"/>
				<path style="fill:#A14B2A;" d="M325.895,222.508c-6.76,15.502-2.922,30.498,8.575,33.494
					c11.496,2.999,26.293-7.139,33.043-22.641c6.765-15.5,2.927-30.498-8.57-33.495
					C347.447,196.871,332.646,207.009,325.895,222.508z"/>
			</g>
			<g>
				<path style="fill:#C96A46;" d="M341.653,264.103c0,36.842-29.862,66.702-66.704,66.702h-37.904
					c-36.837,0-66.699-29.86-66.699-66.702V154.956c0-36.837,29.862-66.702,66.699-66.702h37.904
					c36.842,0,66.704,29.865,66.704,66.702V264.103z"/>
			</g>
			<g>
				<path style="fill:#1F3049;" d="M220.16,256.304c0.803,22.731,16.721,40.825,36.119,40.693
					c19.403-0.135,35.077-18.441,35.561-41.179c-9.946,5.387-22.334,8.624-35.785,8.717
					C242.614,264.627,230.181,261.558,220.16,256.304z"/>
				<path style="fill:#FFFFFF;" d="M230.47,274.293c0.065-0.003,0.124-0.007,0.189-0.007h50.951
					c0.489-0.892,0.768-1.912,0.753-3.001l-0.07-11.282c-7.912,2.809-16.811,4.424-26.238,4.489
					c-9.422,0.065-18.341-1.428-26.288-4.133l0.075,11.285C229.857,272.596,230.076,273.493,230.47,274.293z"/>
			</g>
			<g>
				<path style="fill:#944141;" d="M237.584,194.258c0,4.823-3.909,8.734-8.735,8.734h-17.468c-4.821,0-8.735-3.911-8.735-8.734l0,0
					c0-4.823,3.913-8.734,8.735-8.734h17.468C233.675,185.524,237.584,189.435,237.584,194.258L237.584,194.258z"/>
				<path style="fill:#944141;" d="M309.354,194.258c0,4.823-3.904,8.734-8.73,8.734H283.15c-4.821,0-8.729-3.911-8.729-8.734l0,0
					c0-4.823,3.908-8.734,8.729-8.734h17.474C305.45,185.524,309.354,189.435,309.354,194.258L309.354,194.258z"/>
			</g>
			<g>
				<g>
					<g>
						<polygon style="fill:#572020;" points="173.016,216.588 161.664,216.663 161.156,141.875 184.532,129.588 						"/>
						<polygon style="fill:#572020;" points="350.844,216.346 339.487,216.421 326.765,129.588 350.844,141.553 						"/>
					</g>
				</g>
				<path style="fill:#572020;" d="M350.861,148.976v-10.094c0-24.52-19.883-44.397-44.405-44.397H205.544
					c-24.523,0-44.406,19.878-44.406,44.397v10.094H350.861z"/>
				<g>
					<g>
						<g>
							<g>
								<path style="fill:#572020;" d="M206.61,108.969c0,13.914-11.277,25.191-25.191,25.191
									c-13.904,0-25.186-11.276-25.186-25.191c0-13.909,11.282-25.186,25.186-25.186C195.333,83.783,206.61,95.06,206.61,108.969z
									"/>
								<path style="fill:#572020;" d="M240.201,99.29c0,13.909-11.282,25.186-25.191,25.186c-13.909,0-25.191-11.277-25.191-25.186
									c0-13.912,11.282-25.191,25.191-25.191C228.919,74.099,240.201,85.378,240.201,99.29z"/>
							</g>
							<g>
								<path style="fill:#572020;" d="M305.395,108.969c0,13.914,11.277,25.191,25.186,25.191
									c13.914,0,25.186-11.276,25.186-25.191c0-13.909-11.272-25.186-25.186-25.186C316.672,83.783,305.395,95.06,305.395,108.969
									z"/>
								<path style="fill:#572020;" d="M271.814,99.29c0,13.909,11.272,25.186,25.181,25.186s25.191-11.277,25.191-25.186
									c0-13.912-11.282-25.191-25.191-25.191S271.814,85.378,271.814,99.29z"/>
							</g>
						</g>
					</g>
					<path style="fill:#572020;" d="M230.814,91.191c0,13.907,11.282,25.186,25.191,25.186c13.909,0,25.191-11.279,25.191-25.186
						c0-13.914-11.282-25.191-25.191-25.191C242.096,66,230.814,77.277,230.814,91.191z"/>
				</g>
			</g>
			<g>
				<circle style="fill:#3D2A3D;" cx="219.138" cy="221.574" r="11.117"/>
				<circle style="fill:#3D2A3D;" cx="292.862" cy="221.574" r="11.117"/>
			</g>
			<path style="fill:#A14B2A;" d="M270.246,228.677c-0.504,8.861-7.91,15.891-17.063,15.891c-7.753,0-14.23-5.072-16.361-12.024
				c-0.476,1.63-0.822,3.326-0.822,5.102c0,10.133,8.225,18.355,18.339,18.355c10.141,0,18.335-8.221,18.335-18.355
				C272.674,234.362,271.756,231.34,270.246,228.677z"/>
		</g>
	</g>
</g>
</svg>
