<?xml version="1.0" encoding="iso-8859-1"?>
<!-- Generator: Adobe Illustrator 22.0.1, SVG Export Plug-In . SVG Version: 6.00 Build 0)  -->
<svg version="1.1" id="Layer_7" xmlns="http://www.w3.org/2000/svg" xmlns:xlink="http://www.w3.org/1999/xlink" x="0px" y="0px"
	 viewBox="0 0 512 512" style="enable-background:new 0 0 512 512;" xml:space="preserve">
<g>
	<path style="fill:#3D2A3D;" d="M0.005,257.581C-0.87,116.194,113.032,0.88,254.417,0.005
		C395.8-0.87,511.12,113.027,511.995,254.414c0.875,141.389-113.027,256.707-254.41,257.581
		C116.2,512.871,0.88,398.97,0.005,257.581z"/>
	<g>
		<defs>
			<path id="SVGID_107_" d="M0,255.996C0,114.607,114.613,0,256.002,0C397.387,0,512,114.607,512,255.996
				C512,397.389,397.387,512,256.002,512C114.613,512,0,397.389,0,255.996z"/>
		</defs>
		<clipPath id="SVGID_2_">
			<use xlink:href="#SVGID_107_"  style="overflow:visible;"/>
		</clipPath>
		<g style="clip-path:url(#SVGID_2_);">
			<g>
				<g>
					<g>
						
							<ellipse transform="matrix(0.7854 -0.6189 0.6189 0.7854 -188.8832 243.027)" style="fill:#FCEEB3;" cx="256.08" cy="393.943" rx="21.629" ry="18.539"/>
						
							<ellipse transform="matrix(0.7854 -0.6189 0.6189 0.7854 -176.3019 235.0605)" style="fill:#FCEEB3;" cx="250.881" cy="371.813" rx="21.629" ry="18.539"/>
					</g>
					<g>
						
							<ellipse transform="matrix(0.7854 -0.6189 0.6189 0.7854 -186.3037 261.9394)" style="fill:#FCEEB3;" cx="284.648" cy="399.679" rx="20.863" ry="17.882"/>
						
							<ellipse transform="matrix(0.7854 -0.6189 0.6189 0.7854 -174.1684 254.2553)" style="fill:#FCEEB3;" cx="279.632" cy="378.334" rx="20.863" ry="17.882"/>
					</g>
					<g>
						
							<ellipse transform="matrix(0.7854 -0.6189 0.6189 0.7854 -175.5389 278.9878)" style="fill:#FCEEB3;" cx="314.619" cy="392.676" rx="20.096" ry="17.225"/>
						
							<ellipse transform="matrix(0.7854 -0.6189 0.6189 0.7854 -163.8495 271.5861)" style="fill:#FCEEB3;" cx="309.788" cy="372.116" rx="20.096" ry="17.225"/>
					</g>
					<g>
						
							<ellipse transform="matrix(0.7854 -0.6189 0.6189 0.7854 -158.8755 292.9702)" style="fill:#FCEEB3;" cx="343.118" cy="375.634" rx="19.329" ry="16.568"/>
						
							<ellipse transform="matrix(0.7854 -0.6189 0.6189 0.7854 -147.6321 285.8508)" style="fill:#FCEEB3;" cx="338.471" cy="355.858" rx="19.329" ry="16.568"/>
					</g>
					<g>
						
							<ellipse transform="matrix(0.7854 -0.6189 0.6189 0.7854 -138.6005 302.6844)" style="fill:#FCEEB3;" cx="367.266" cy="351.248" rx="18.563" ry="15.911"/>
						
							<ellipse transform="matrix(0.7854 -0.6189 0.6189 0.7854 -127.803 295.8474)" style="fill:#FCEEB3;" cx="362.804" cy="332.256" rx="18.563" ry="15.911"/>
					</g>
					<g>
						
							<ellipse transform="matrix(0.7854 -0.6189 0.6189 0.7854 -117.0005 306.9284)" style="fill:#FCEEB3;" cx="384.187" cy="322.216" rx="17.796" ry="15.254"/>
						
							<ellipse transform="matrix(0.7854 -0.6189 0.6189 0.7854 -106.649 300.3738)" style="fill:#FCEEB3;" cx="379.909" cy="304.009" rx="17.796" ry="15.254"/>
					</g>
					
						<ellipse transform="matrix(0.7854 -0.6189 0.6189 0.7854 -189.3832 230.1501)" style="fill:#FCEEB3;" cx="237.258" cy="388.225" rx="21.629" ry="18.539"/>
				</g>
				<g>
					<g>
						
							<ellipse transform="matrix(0.6189 -0.7854 0.7854 0.6189 -31.7883 413.663)" style="fill:#FCEEB3;" cx="410.43" cy="239.593" rx="21.629" ry="18.539"/>
						
							<ellipse transform="matrix(0.6189 -0.7854 0.7854 0.6189 -36.1369 394.3005)" style="fill:#FCEEB3;" cx="388.301" cy="234.393" rx="21.629" ry="18.539"/>
					</g>
					<g>
						
							<ellipse transform="matrix(0.6189 -0.7854 0.7854 0.6189 -52.0404 429.0538)" style="fill:#FCEEB3;" cx="416.166" cy="268.16" rx="20.863" ry="17.882"/>
						
							<ellipse transform="matrix(0.6189 -0.7854 0.7854 0.6189 -56.2349 410.3777)" style="fill:#FCEEB3;" cx="394.821" cy="263.145" rx="20.863" ry="17.882"/>
					</g>
					<g>
						
							<ellipse transform="matrix(0.6189 -0.7854 0.7854 0.6189 -78.2493 434.9749)" style="fill:#FCEEB3;" cx="409.164" cy="298.132" rx="20.096" ry="17.225"/>
						
							<ellipse transform="matrix(0.6189 -0.7854 0.7854 0.6189 -82.2896 416.9851)" style="fill:#FCEEB3;" cx="388.603" cy="293.301" rx="20.096" ry="17.225"/>
					</g>
					<g>
						
							<ellipse transform="matrix(0.6189 -0.7854 0.7854 0.6189 -107.1273 432.4486)" style="fill:#FCEEB3;" cx="392.121" cy="326.63" rx="19.329" ry="16.568"/>
						
							<ellipse transform="matrix(0.6189 -0.7854 0.7854 0.6189 -111.0135 415.1451)" style="fill:#FCEEB3;" cx="372.345" cy="321.984" rx="19.329" ry="16.568"/>
					</g>
					<g>
						
							<ellipse transform="matrix(0.6189 -0.7854 0.7854 0.6189 -135.3866 422.4969)" style="fill:#FCEEB3;" cx="367.735" cy="350.779" rx="18.563" ry="15.911"/>
						
							<ellipse transform="matrix(0.6189 -0.7854 0.7854 0.6189 -139.1187 405.8797)" style="fill:#FCEEB3;" cx="348.743" cy="346.317" rx="18.563" ry="15.911"/>
					</g>
					<g>
						
							<ellipse transform="matrix(0.6189 -0.7854 0.7854 0.6189 -159.7397 406.1421)" style="fill:#FCEEB3;" cx="338.703" cy="367.7" rx="17.796" ry="15.254"/>
						
							<ellipse transform="matrix(0.6189 -0.7854 0.7854 0.6189 -163.3177 390.2113)" style="fill:#FCEEB3;" cx="320.496" cy="363.422" rx="17.796" ry="15.254"/>
					</g>
					
						<ellipse transform="matrix(0.6189 -0.7854 0.7854 0.6189 -19.183 402.0001)" style="fill:#FCEEB3;" cx="404.713" cy="220.77" rx="21.629" ry="18.539"/>
				</g>
			</g>
			<g>
				<g>
					<g>
						
							<ellipse transform="matrix(0.6189 -0.7854 0.7854 0.6189 -211.8965 351.1212)" style="fill:#FCEEB3;" cx="255.92" cy="393.943" rx="18.539" ry="21.629"/>
						
							<ellipse transform="matrix(0.6189 -0.7854 0.7854 0.6189 -192.534 346.7726)" style="fill:#FCEEB3;" cx="261.119" cy="371.813" rx="18.539" ry="21.629"/>
					</g>
					<g>
						
							<ellipse transform="matrix(0.6189 -0.7854 0.7854 0.6189 -227.2873 330.869)" style="fill:#FCEEB3;" cx="227.352" cy="399.679" rx="17.882" ry="20.863"/>
						
							<ellipse transform="matrix(0.6189 -0.7854 0.7854 0.6189 -208.6112 326.6746)" style="fill:#FCEEB3;" cx="232.368" cy="378.334" rx="17.882" ry="20.863"/>
					</g>
					<g>
						
							<ellipse transform="matrix(0.6189 -0.7854 0.7854 0.6189 -233.2085 304.6602)" style="fill:#FCEEB3;" cx="197.381" cy="392.676" rx="17.225" ry="20.096"/>
						
							<ellipse transform="matrix(0.6189 -0.7854 0.7854 0.6189 -215.2186 300.6198)" style="fill:#FCEEB3;" cx="202.212" cy="372.116" rx="17.225" ry="20.096"/>
					</g>
					<g>
						
							<ellipse transform="matrix(0.6189 -0.7854 0.7854 0.6189 -230.6821 275.7822)" style="fill:#FCEEB3;" cx="168.882" cy="375.634" rx="16.568" ry="19.329"/>
						
							<ellipse transform="matrix(0.6189 -0.7854 0.7854 0.6189 -213.3786 271.896)" style="fill:#FCEEB3;" cx="173.529" cy="355.858" rx="16.568" ry="19.329"/>
					</g>
					<g>
						
							<ellipse transform="matrix(0.6189 -0.7854 0.7854 0.6189 -220.7304 247.5228)" style="fill:#FCEEB3;" cx="144.734" cy="351.248" rx="15.911" ry="18.563"/>
						
							<ellipse transform="matrix(0.6189 -0.7854 0.7854 0.6189 -204.1132 243.7908)" style="fill:#FCEEB3;" cx="149.196" cy="332.256" rx="15.911" ry="18.563"/>
					</g>
					<g>
						
							<ellipse transform="matrix(0.6189 -0.7854 0.7854 0.6189 -204.3756 223.1697)" style="fill:#FCEEB3;" cx="127.813" cy="322.216" rx="15.254" ry="17.796"/>
						
							<ellipse transform="matrix(0.6189 -0.7854 0.7854 0.6189 -188.4448 219.5918)" style="fill:#FCEEB3;" cx="132.091" cy="304.009" rx="15.254" ry="17.796"/>
					</g>
					
						<ellipse transform="matrix(0.6189 -0.7854 0.7854 0.6189 -200.2336 363.7264)" style="fill:#FCEEB3;" cx="274.742" cy="388.225" rx="18.539" ry="21.629"/>
				</g>
				<g>
					<g>
						
							<ellipse transform="matrix(0.7854 -0.6189 0.6189 0.7854 -126.5016 114.275)" style="fill:#FCEEB3;" cx="101.57" cy="239.593" rx="18.539" ry="21.629"/>
						
							<ellipse transform="matrix(0.7854 -0.6189 0.6189 0.7854 -118.5351 126.8563)" style="fill:#FCEEB3;" cx="123.699" cy="234.393" rx="18.539" ry="21.629"/>
					</g>
					<g>
						
							<ellipse transform="matrix(0.7854 -0.6189 0.6189 0.7854 -145.414 116.8545)" style="fill:#FCEEB3;" cx="95.834" cy="268.16" rx="17.882" ry="20.863"/>
						
							<ellipse transform="matrix(0.7854 -0.6189 0.6189 0.7854 -137.7299 128.9898)" style="fill:#FCEEB3;" cx="117.179" cy="263.145" rx="17.882" ry="20.863"/>
					</g>
					<g>
						
							<ellipse transform="matrix(0.7854 -0.6189 0.6189 0.7854 -162.4624 127.6193)" style="fill:#FCEEB3;" cx="102.836" cy="298.132" rx="17.225" ry="20.096"/>
						
							<ellipse transform="matrix(0.7854 -0.6189 0.6189 0.7854 -155.0607 139.3087)" style="fill:#FCEEB3;" cx="123.397" cy="293.301" rx="17.225" ry="20.096"/>
					</g>
					<g>
						
							<ellipse transform="matrix(0.7854 -0.6189 0.6189 0.7854 -176.4448 144.2827)" style="fill:#FCEEB3;" cx="119.879" cy="326.63" rx="16.568" ry="19.329"/>
						
							<ellipse transform="matrix(0.7854 -0.6189 0.6189 0.7854 -169.3254 155.5261)" style="fill:#FCEEB3;" cx="139.655" cy="321.984" rx="16.568" ry="19.329"/>
					</g>
					<g>
						
							<ellipse transform="matrix(0.7854 -0.6189 0.6189 0.7854 -186.159 164.5578)" style="fill:#FCEEB3;" cx="144.265" cy="350.779" rx="15.911" ry="18.563"/>
						
							<ellipse transform="matrix(0.7854 -0.6189 0.6189 0.7854 -179.322 175.3552)" style="fill:#FCEEB3;" cx="163.257" cy="346.317" rx="15.911" ry="18.563"/>
					</g>
					<g>
						
							<ellipse transform="matrix(0.7854 -0.6189 0.6189 0.7854 -190.403 186.1577)" style="fill:#FCEEB3;" cx="173.297" cy="367.7" rx="15.254" ry="17.796"/>
						
							<ellipse transform="matrix(0.7854 -0.6189 0.6189 0.7854 -183.8484 196.5092)" style="fill:#FCEEB3;" cx="191.504" cy="363.422" rx="15.254" ry="17.796"/>
					</g>
					
						<ellipse transform="matrix(0.7854 -0.6189 0.6189 0.7854 -113.6247 113.775)" style="fill:#FCEEB3;" cx="107.287" cy="220.77" rx="18.539" ry="21.629"/>
				</g>
			</g>
		</g>
		<g style="clip-path:url(#SVGID_2_);">
			<g>
				<g>
					
						<ellipse transform="matrix(0.993 -0.1177 0.1177 0.993 -34.4353 45.1698)" style="fill:#FCEEB3;" cx="365.142" cy="314.077" rx="21.629" ry="18.539"/>
					
						<ellipse transform="matrix(0.993 -0.1177 0.1177 0.993 -32.2436 43.6262)" style="fill:#FCEEB3;" cx="353.171" cy="294.753" rx="21.629" ry="18.539"/>
				</g>
				<g>
					
						<ellipse transform="matrix(0.993 -0.1177 0.1177 0.993 -37.4031 43.4379)" style="fill:#FCEEB3;" cx="348.998" cy="338.333" rx="20.863" ry="17.882"/>
					
						<ellipse transform="matrix(0.993 -0.1177 0.1177 0.993 -35.289 41.949)" style="fill:#FCEEB3;" cx="337.451" cy="319.694" rx="20.863" ry="17.882"/>
				</g>
				<g>
					
						<ellipse transform="matrix(0.993 -0.1177 0.1177 0.993 -39.4969 40.4731)" style="fill:#FCEEB3;" cx="322.853" cy="354.575" rx="20.096" ry="17.225"/>
					
						<ellipse transform="matrix(0.993 -0.1177 0.1177 0.993 -37.4606 39.0388)" style="fill:#FCEEB3;" cx="311.731" cy="336.621" rx="20.096" ry="17.225"/>
				</g>
				<g>
					
						<ellipse transform="matrix(0.993 -0.1177 0.1177 0.993 -40.6745 36.7384)" style="fill:#FCEEB3;" cx="290.651" cy="362.676" rx="19.329" ry="16.568"/>
					
						<ellipse transform="matrix(0.993 -0.1177 0.1177 0.993 -38.7158 35.3589)" style="fill:#FCEEB3;" cx="279.952" cy="345.406" rx="19.329" ry="16.568"/>
				</g>
				<g>
					
						<ellipse transform="matrix(0.993 -0.1177 0.1177 0.993 -40.8933 32.697)" style="fill:#FCEEB3;" cx="256.332" cy="362.508" rx="18.563" ry="15.911"/>
					
						<ellipse transform="matrix(0.993 -0.1177 0.1177 0.993 -39.0124 31.3722)" style="fill:#FCEEB3;" cx="246.058" cy="345.923" rx="18.563" ry="15.911"/>
				</g>
				<g>
					
						<ellipse transform="matrix(0.993 -0.1177 0.1177 0.993 -40.1112 28.8122)" style="fill:#FCEEB3;" cx="223.838" cy="353.944" rx="17.796" ry="15.254"/>
					
						<ellipse transform="matrix(0.993 -0.1177 0.1177 0.993 -38.3079 27.5421)" style="fill:#FCEEB3;" cx="213.988" cy="338.045" rx="17.796" ry="15.254"/>
				</g>
				
					<ellipse transform="matrix(0.993 -0.1177 0.1177 0.993 -32.3281 46.1401)" style="fill:#FCEEB3;" cx="374.409" cy="296.725" rx="21.629" ry="18.539"/>
			</g>
			<g>
				<g>
					
						<ellipse transform="matrix(0.1177 -0.993 0.993 0.1177 -182.3238 422.9397)" style="fill:#FCEEB3;" cx="146.858" cy="314.077" rx="18.539" ry="21.629"/>
					
						<ellipse transform="matrix(0.1177 -0.993 0.993 0.1177 -152.5717 417.7782)" style="fill:#FCEEB3;" cx="158.829" cy="294.753" rx="18.539" ry="21.629"/>
				</g>
				<g>
					
						<ellipse transform="matrix(0.1177 -0.993 0.993 0.1177 -192.1674 460.3724)" style="fill:#FCEEB3;" cx="163.002" cy="338.333" rx="17.882" ry="20.863"/>
					
						<ellipse transform="matrix(0.1177 -0.993 0.993 0.1177 -163.4699 455.3938)" style="fill:#FCEEB3;" cx="174.549" cy="319.694" rx="17.882" ry="20.863"/>
				</g>
				<g>
					
						<ellipse transform="matrix(0.1177 -0.993 0.993 0.1177 -185.2298 500.6648)" style="fill:#FCEEB3;" cx="189.147" cy="354.575" rx="17.225" ry="20.096"/>
					
						<ellipse transform="matrix(0.1177 -0.993 0.993 0.1177 -157.5869 495.8692)" style="fill:#FCEEB3;" cx="200.269" cy="336.621" rx="17.225" ry="20.096"/>
				</g>
				<g>
					
						<ellipse transform="matrix(0.1177 -0.993 0.993 0.1177 -164.8625 539.7904)" style="fill:#FCEEB3;" cx="221.349" cy="362.676" rx="16.568" ry="19.329"/>
					
						<ellipse transform="matrix(0.1177 -0.993 0.993 0.1177 -138.2742 535.1777)" style="fill:#FCEEB3;" cx="232.048" cy="345.406" rx="16.568" ry="19.329"/>
				</g>
				<g>
					
						<ellipse transform="matrix(0.1177 -0.993 0.993 0.1177 -134.4169 573.7227)" style="fill:#FCEEB3;" cx="255.668" cy="362.508" rx="15.911" ry="18.563"/>
					
						<ellipse transform="matrix(0.1177 -0.993 0.993 0.1177 -108.8832 569.293)" style="fill:#FCEEB3;" cx="265.942" cy="345.923" rx="15.911" ry="18.563"/>
				</g>
				<g>
					
						<ellipse transform="matrix(0.1177 -0.993 0.993 0.1177 -97.2444 598.4349)" style="fill:#FCEEB3;" cx="288.162" cy="353.944" rx="15.254" ry="17.796"/>
					
						<ellipse transform="matrix(0.1177 -0.993 0.993 0.1177 -72.7653 594.1882)" style="fill:#FCEEB3;" cx="298.012" cy="338.045" rx="15.254" ry="17.796"/>
				</g>
				
					<ellipse transform="matrix(0.1177 -0.993 0.993 0.1177 -173.2681 398.4279)" style="fill:#FCEEB3;" cx="137.591" cy="296.725" rx="18.539" ry="21.629"/>
			</g>
		</g>
		<ellipse style="clip-path:url(#SVGID_2_);fill:#FCEEB3;" cx="256" cy="249.525" rx="146.199" ry="106.639"/>
		<path style="clip-path:url(#SVGID_2_);fill:#BD6442;" d="M459.693,545.884l-0.058-0.924c0-56.196-21.036-110.643-46.722-121.011
			l-109.396-44.072c-25.688-10.359-67.755-10.4-93.448-0.123L99.108,424.088C73.4,434.38,52.364,488.764,52.364,544.961
			l-0.057,0.924H459.693z"/>
		<path style="clip-path:url(#SVGID_2_);fill:#BD6442;" d="M302.326,382.581c0,24.124-19.555,43.679-43.678,43.679h-5.297
			c-24.123,0-43.678-19.555-43.678-43.679V270.074c0-24.123,19.555-43.679,43.678-43.679h5.297
			c24.123,0,43.678,19.556,43.678,43.679V382.581z"/>
		<g style="clip-path:url(#SVGID_2_);">
			<g>
				<path style="fill:#D67F5E;" d="M344.967,257.362c0,49.135-39.832,88.967-88.967,88.967h0c-49.135,0-88.967-39.832-88.967-88.967
					v-74c0-49.135,39.832-88.966,88.966-88.966h0.001c49.135,0,88.966,39.832,88.966,88.966V257.362z"/>
			</g>
		</g>
		<g style="clip-path:url(#SVGID_2_);">
			<circle style="fill:#3D2A3D;" cx="219.958" cy="257.188" r="10.87"/>
			<circle style="fill:#3D2A3D;" cx="292.042" cy="257.188" r="10.87"/>
		</g>
		<g style="clip-path:url(#SVGID_2_);">
			<path style="fill:#FCEEB3;" d="M256,88.282c-60.945,0-110.351,53.548-110.351,119.607c0,21.938,5.453,42.491,14.964,60.168
				l3.618-30.684c4.189-35.527,34.301-62.299,70.074-62.3l43.378-0.002c35.77-0.002,65.883,26.762,70.079,62.286l3.626,30.699
				c9.508-17.675,14.962-38.228,14.962-60.166C366.35,141.83,316.944,88.282,256,88.282z"/>
		</g>
		<path style="clip-path:url(#SVGID_2_);fill:#BD6442;" d="M271.555,272.071c-0.493,8.664-7.734,15.537-16.683,15.537
			c-7.581,0-13.913-4.959-15.997-11.757c-0.466,1.594-0.803,3.252-0.803,4.989c0,9.908,8.042,17.946,17.932,17.946
			c9.915,0,17.927-8.039,17.927-17.946C273.929,277.63,273.031,274.676,271.555,272.071z"/>
		<path style="clip-path:url(#SVGID_2_);fill:#78BEDE;" d="M459.635,544.961c0-56.196-21.036-110.643-46.722-121.011l-86.98-35.042
			c-12.093,26.56-38.847,45.035-69.934,45.035c-30.943,0-57.595-18.303-69.766-44.665l-87.125,34.81
			C73.4,434.38,52.364,488.764,52.364,544.961l-0.057,0.924h407.386L459.635,544.961z"/>
		<g style="clip-path:url(#SVGID_2_);">
			<path style="fill:#FFFFFF;" d="M278.782,297.458c-12.263,11.545-33.299,11.545-45.564,0c-8.647-8.141-21.709,4.873-13.037,13.038
				c19.688,18.533,51.952,18.533,71.638,0C300.493,302.331,287.431,289.317,278.782,297.458L278.782,297.458z"/>
		</g>
		<g style="clip-path:url(#SVGID_2_);">
			<g>
				<g>
					<g>
						
							<ellipse transform="matrix(0.7854 -0.6189 0.6189 0.7854 -6.4941 179.688)" style="fill:#FCEEB3;" cx="255.92" cy="99.211" rx="21.629" ry="18.539"/>
						
							<ellipse transform="matrix(0.7854 -0.6189 0.6189 0.7854 -19.0754 187.6545)" style="fill:#FCEEB3;" cx="261.119" cy="121.34" rx="21.629" ry="18.539"/>
					</g>
					<g>
						
							<ellipse transform="matrix(0.7854 -0.6189 0.6189 0.7854 -9.0736 160.7756)" style="fill:#FCEEB3;" cx="227.352" cy="93.475" rx="20.863" ry="17.882"/>
						
							<ellipse transform="matrix(0.7854 -0.6189 0.6189 0.7854 -21.2089 168.4597)" style="fill:#FCEEB3;" cx="232.368" cy="114.82" rx="20.863" ry="17.882"/>
					</g>
					<g>
						
							<ellipse transform="matrix(0.7854 -0.6189 0.6189 0.7854 -19.8384 143.7272)" style="fill:#FCEEB3;" cx="197.381" cy="100.477" rx="20.096" ry="17.225"/>
						
							<ellipse transform="matrix(0.7854 -0.6189 0.6189 0.7854 -31.5278 151.1289)" style="fill:#FCEEB3;" cx="202.212" cy="121.037" rx="20.096" ry="17.225"/>
					</g>
					<g>
						
							<ellipse transform="matrix(0.7854 -0.6189 0.6189 0.7854 -36.5018 129.7449)" style="fill:#FCEEB3;" cx="168.882" cy="117.52" rx="19.329" ry="16.568"/>
						
							<ellipse transform="matrix(0.7854 -0.6189 0.6189 0.7854 -47.7452 136.8642)" style="fill:#FCEEB3;" cx="173.529" cy="137.296" rx="19.329" ry="16.568"/>
					</g>
					<g>
						
							<ellipse transform="matrix(0.7854 -0.6189 0.6189 0.7854 -56.7769 120.0307)" style="fill:#FCEEB3;" cx="144.734" cy="141.905" rx="18.563" ry="15.911"/>
						
							<ellipse transform="matrix(0.7854 -0.6189 0.6189 0.7854 -67.5743 126.8676)" style="fill:#FCEEB3;" cx="149.196" cy="160.897" rx="18.563" ry="15.911"/>
					</g>
					<g>
						
							<ellipse transform="matrix(0.7854 -0.6189 0.6189 0.7854 -78.3768 115.7867)" style="fill:#FCEEB3;" cx="127.813" cy="170.937" rx="17.796" ry="15.254"/>
						
							<ellipse transform="matrix(0.7854 -0.6189 0.6189 0.7854 -88.7283 122.3412)" style="fill:#FCEEB3;" cx="132.091" cy="189.145" rx="17.796" ry="15.254"/>
					</g>
					
						<ellipse transform="matrix(0.7854 -0.6189 0.6189 0.7854 -5.9941 192.5649)" style="fill:#FCEEB3;" cx="274.742" cy="104.928" rx="21.629" ry="18.539"/>
				</g>
				<g>
					<g>
						
							<ellipse transform="matrix(0.6189 -0.7854 0.7854 0.6189 -160.4513 176.3965)" style="fill:#FCEEB3;" cx="101.57" cy="253.561" rx="21.629" ry="18.539"/>
						
							<ellipse transform="matrix(0.6189 -0.7854 0.7854 0.6189 -156.1027 195.759)" style="fill:#FCEEB3;" cx="123.699" cy="258.76" rx="21.629" ry="18.539"/>
					</g>
					<g>
						
							<ellipse transform="matrix(0.6189 -0.7854 0.7854 0.6189 -140.1992 161.0057)" style="fill:#FCEEB3;" cx="95.834" cy="224.993" rx="20.863" ry="17.882"/>
						
							<ellipse transform="matrix(0.6189 -0.7854 0.7854 0.6189 -136.0047 179.6818)" style="fill:#FCEEB3;" cx="117.179" cy="230.008" rx="20.863" ry="17.882"/>
					</g>
					<g>
						
							<ellipse transform="matrix(0.6189 -0.7854 0.7854 0.6189 -113.9903 155.0845)" style="fill:#FCEEB3;" cx="102.836" cy="195.022" rx="20.096" ry="17.225"/>
						
							<ellipse transform="matrix(0.6189 -0.7854 0.7854 0.6189 -109.95 173.0744)" style="fill:#FCEEB3;" cx="123.397" cy="199.852" rx="20.096" ry="17.225"/>
					</g>
					<g>
						
							<ellipse transform="matrix(0.6189 -0.7854 0.7854 0.6189 -85.1123 157.6109)" style="fill:#FCEEB3;" cx="119.879" cy="166.523" rx="19.329" ry="16.568"/>
						
							<ellipse transform="matrix(0.6189 -0.7854 0.7854 0.6189 -81.2261 174.9144)" style="fill:#FCEEB3;" cx="139.655" cy="171.17" rx="19.329" ry="16.568"/>
					</g>
					<g>
						
							<ellipse transform="matrix(0.6189 -0.7854 0.7854 0.6189 -56.853 167.5626)" style="fill:#FCEEB3;" cx="144.265" cy="142.374" rx="18.563" ry="15.911"/>
						
							<ellipse transform="matrix(0.6189 -0.7854 0.7854 0.6189 -53.1209 184.1798)" style="fill:#FCEEB3;" cx="163.257" cy="146.837" rx="18.563" ry="15.911"/>
					</g>
					<g>
						
							<ellipse transform="matrix(0.6189 -0.7854 0.7854 0.6189 -32.4998 183.9174)" style="fill:#FCEEB3;" cx="173.297" cy="125.453" rx="17.796" ry="15.254"/>
						
							<ellipse transform="matrix(0.6189 -0.7854 0.7854 0.6189 -28.9219 199.8482)" style="fill:#FCEEB3;" cx="191.504" cy="129.731" rx="17.796" ry="15.254"/>
					</g>
					
						<ellipse transform="matrix(0.6189 -0.7854 0.7854 0.6189 -173.0565 188.0594)" style="fill:#FCEEB3;" cx="107.287" cy="272.383" rx="21.629" ry="18.539"/>
				</g>
			</g>
			<g>
				<g>
					<g>
						
							<ellipse transform="matrix(0.6189 -0.7854 0.7854 0.6189 19.6569 238.9383)" style="fill:#FCEEB3;" cx="256.08" cy="99.211" rx="18.539" ry="21.629"/>
						
							<ellipse transform="matrix(0.6189 -0.7854 0.7854 0.6189 0.2944 243.2869)" style="fill:#FCEEB3;" cx="250.881" cy="121.34" rx="18.539" ry="21.629"/>
					</g>
					<g>
						
							<ellipse transform="matrix(0.6189 -0.7854 0.7854 0.6189 35.0477 259.1905)" style="fill:#FCEEB3;" cx="284.648" cy="93.475" rx="17.882" ry="20.863"/>
						
							<ellipse transform="matrix(0.6189 -0.7854 0.7854 0.6189 16.3716 263.3849)" style="fill:#FCEEB3;" cx="279.632" cy="114.82" rx="17.882" ry="20.863"/>
					</g>
					<g>
						
							<ellipse transform="matrix(0.6189 -0.7854 0.7854 0.6189 40.9689 285.3994)" style="fill:#FCEEB3;" cx="314.619" cy="100.477" rx="17.225" ry="20.096"/>
						
							<ellipse transform="matrix(0.6189 -0.7854 0.7854 0.6189 22.979 289.4397)" style="fill:#FCEEB3;" cx="309.788" cy="121.037" rx="17.225" ry="20.096"/>
					</g>
					<g>
						
							<ellipse transform="matrix(0.6189 -0.7854 0.7854 0.6189 38.4425 314.2773)" style="fill:#FCEEB3;" cx="343.118" cy="117.52" rx="16.568" ry="19.329"/>
						
							<ellipse transform="matrix(0.6189 -0.7854 0.7854 0.6189 21.139 318.1635)" style="fill:#FCEEB3;" cx="338.471" cy="137.296" rx="16.568" ry="19.329"/>
					</g>
					<g>
						
							<ellipse transform="matrix(0.6189 -0.7854 0.7854 0.6189 28.4908 342.5367)" style="fill:#FCEEB3;" cx="367.266" cy="141.905" rx="15.911" ry="18.563"/>
						
							<ellipse transform="matrix(0.6189 -0.7854 0.7854 0.6189 11.8736 346.2687)" style="fill:#FCEEB3;" cx="362.804" cy="160.897" rx="15.911" ry="18.563"/>
					</g>
					<g>
						
							<ellipse transform="matrix(0.6189 -0.7854 0.7854 0.6189 12.136 366.8898)" style="fill:#FCEEB3;" cx="384.187" cy="170.937" rx="15.254" ry="17.796"/>
						
							<ellipse transform="matrix(0.6189 -0.7854 0.7854 0.6189 -3.7948 370.4677)" style="fill:#FCEEB3;" cx="379.909" cy="189.145" rx="15.254" ry="17.796"/>
					</g>
					
						<ellipse transform="matrix(0.6189 -0.7854 0.7854 0.6189 7.994 226.3331)" style="fill:#FCEEB3;" cx="237.258" cy="104.928" rx="18.539" ry="21.629"/>
				</g>
				<g>
					<g>
						
							<ellipse transform="matrix(0.7854 -0.6189 0.6189 0.7854 -68.8757 308.44)" style="fill:#FCEEB3;" cx="410.43" cy="253.561" rx="18.539" ry="21.629"/>
						
							<ellipse transform="matrix(0.7854 -0.6189 0.6189 0.7854 -76.8422 295.8587)" style="fill:#FCEEB3;" cx="388.301" cy="258.76" rx="18.539" ry="21.629"/>
					</g>
					<g>
						
							<ellipse transform="matrix(0.7854 -0.6189 0.6189 0.7854 -49.9633 305.8606)" style="fill:#FCEEB3;" cx="416.166" cy="224.993" rx="17.882" ry="20.863"/>
						
							<ellipse transform="matrix(0.7854 -0.6189 0.6189 0.7854 -57.6474 293.7252)" style="fill:#FCEEB3;" cx="394.821" cy="230.008" rx="17.882" ry="20.863"/>
					</g>
					<g>
						
							<ellipse transform="matrix(0.7854 -0.6189 0.6189 0.7854 -32.9149 295.0957)" style="fill:#FCEEB3;" cx="409.164" cy="195.022" rx="17.225" ry="20.096"/>
						
							<ellipse transform="matrix(0.7854 -0.6189 0.6189 0.7854 -40.3166 283.4063)" style="fill:#FCEEB3;" cx="388.603" cy="199.852" rx="17.225" ry="20.096"/>
					</g>
					<g>
						
							<ellipse transform="matrix(0.7854 -0.6189 0.6189 0.7854 -18.9325 278.4323)" style="fill:#FCEEB3;" cx="392.121" cy="166.523" rx="16.568" ry="19.329"/>
						
							<ellipse transform="matrix(0.7854 -0.6189 0.6189 0.7854 -26.0519 267.1889)" style="fill:#FCEEB3;" cx="372.345" cy="171.17" rx="16.568" ry="19.329"/>
					</g>
					<g>
						
							<ellipse transform="matrix(0.7854 -0.6189 0.6189 0.7854 -9.2183 258.1573)" style="fill:#FCEEB3;" cx="367.735" cy="142.374" rx="15.911" ry="18.563"/>
						
							<ellipse transform="matrix(0.7854 -0.6189 0.6189 0.7854 -16.0553 247.3598)" style="fill:#FCEEB3;" cx="348.743" cy="146.837" rx="15.911" ry="18.563"/>
					</g>
					<g>
						
							<ellipse transform="matrix(0.7854 -0.6189 0.6189 0.7854 -4.9744 236.5574)" style="fill:#FCEEB3;" cx="338.703" cy="125.453" rx="15.254" ry="17.796"/>
						
							<ellipse transform="matrix(0.7854 -0.6189 0.6189 0.7854 -11.5289 226.2059)" style="fill:#FCEEB3;" cx="320.496" cy="129.731" rx="15.254" ry="17.796"/>
					</g>
					
						<ellipse transform="matrix(0.7854 -0.6189 0.6189 0.7854 -81.7526 308.94)" style="fill:#FCEEB3;" cx="404.713" cy="272.383" rx="18.539" ry="21.629"/>
				</g>
			</g>
		</g>
		<g style="clip-path:url(#SVGID_2_);">
			<g>
				<path style="fill:#FCEEB3;" d="M210.725,239.67c4.813-4.372,11.362-5.751,17.585-4.004c5.46,1.533,7.774-6.937,2.333-8.464
					c-9.305-2.611-19-0.21-26.125,6.261C200.321,237.277,206.547,243.466,210.725,239.67L210.725,239.67z"/>
			</g>
			<g>
				<path style="fill:#FCEEB3;" d="M307.481,233.464c-7.123-6.471-16.819-8.873-26.124-6.261c-5.442,1.527-3.127,9.996,2.333,8.464
					c6.224-1.747,12.772-0.368,17.585,4.004C305.454,243.466,311.68,237.277,307.481,233.464L307.481,233.464z"/>
			</g>
		</g>
	</g>
</g>
</svg>
