<?xml version="1.0" encoding="iso-8859-1"?>
<!-- Generator: Adobe Illustrator 22.0.1, SVG Export Plug-In . SVG Version: 6.00 Build 0)  -->
<svg version="1.1" id="Layer_7" xmlns="http://www.w3.org/2000/svg" xmlns:xlink="http://www.w3.org/1999/xlink" x="0px" y="0px"
	 viewBox="0 0 512 512" style="enable-background:new 0 0 512 512;" xml:space="preserve">
<g>
	<path style="fill:#9EC853;" d="M0,255.997C0,114.607,114.613,0,256.002,0C397.387,0,512,114.607,512,255.997
		C512,397.389,397.387,512,256.002,512C114.613,512,0,397.389,0,255.997z"/>
	<g>
		<defs>
			<path id="SVGID_91_" d="M0,255.996C0,114.607,114.613,0,256.002,0C397.387,0,512,114.607,512,255.996
				C512,397.389,397.387,512,256.002,512C114.613,512,0,397.389,0,255.996z"/>
		</defs>
		<clipPath id="SVGID_2_">
			<use xlink:href="#SVGID_91_"  style="overflow:visible;"/>
		</clipPath>
		<path style="clip-path:url(#SVGID_2_);fill:#3D2A3D;" d="M340.36,372.459c7.732-26.766,12.155-57.573,12.155-90.382
			C352.515,179.314,309.3,96,255.997,96s-96.512,83.314-96.512,186.077c0,32.809,4.418,63.616,12.153,90.382H340.36z"/>
		<g style="clip-path:url(#SVGID_2_);">
			<path style="fill:#A34322;" d="M441.602,512l-0.053-0.842c0-51.205-19.168-100.816-42.572-110.264l-99.68-40.158
				c-23.406-9.439-61.737-9.477-85.148-0.112l-101.107,40.397c-23.425,9.378-42.593,58.933-42.593,110.138L70.398,512H441.602z"/>
			<path style="fill:#EB7FA8;" d="M441.549,511.158c0-51.205-19.168-100.816-42.572-110.264l-79.255-31.93
				C308.704,393.166,284.326,410,256,410c-28.194,0-52.479-16.678-63.57-40.698l-79.387,31.719
				c-23.425,9.378-42.593,58.933-42.593,110.138L70.398,512h371.204L441.549,511.158z"/>
		</g>
		<g style="clip-path:url(#SVGID_2_);">
			<g>
				<g>
					<path style="fill:#3D2A3D;" d="M125.037,401.687c-16.092-49.947-18.235-104.386-6.849-155.57
						c9.003-40.518,27.221-80.548,57.627-109.473c19.768-18.792,45.317-31.271,72.777-31.408c10.054-0.059,10.066-15.657,0-15.6
						c-86.144,0.445-135.142,92.276-148.24,166.34c-8.767,49.631-5.826,101.84,9.649,149.852
						C113.067,415.358,128.128,411.282,125.037,401.687L125.037,401.687z"/>
				</g>
				<g>
					<path style="fill:#3D2A3D;" d="M156.105,401.898c-16.009-49.692-18.124-103.89-6.638-154.724
						c9.263-40.997,27.683-80.49,58.359-108.736c1.652-1.523,3.363-2.998,5.084-4.445c2.531-2.119,2.857-2.328,4.734-3.707
						c3.792-2.787,7.755-5.328,11.813-7.677c1.85-1.066,3.742-2.057,5.636-3.023c0.943-0.48,1.904-0.933,2.861-1.393
						c0.348-0.164,4.162-1.843,2.146-1c4.185-1.746,8.489-3.178,12.854-4.373c13.827-3.826,7.945-25.318-5.927-21.481
						c-38.6,10.659-68.514,40.016-88.856,73.5c-24.818,40.893-36.232,89.36-37.958,136.825
						c-1.297,35.747,3.437,72.096,14.409,106.163c1.857,5.769,7.658,9.435,13.708,7.773
						C153.98,414.047,157.968,407.677,156.105,401.898L156.105,401.898z"/>
				</g>
			</g>
			<g>
				<g>
					<path style="fill:#3D2A3D;" d="M402.037,405.829c16.379-50.826,18.598-106.05,8.05-158.3
						c-8.525-42.217-26.738-83.845-56.427-115.503c-23.48-25.031-55.411-42.211-90.215-42.389c-10.054-0.057-10.054,15.54,0,15.6
						c35.886,0.183,66.381,21.141,88.333,48.342c27.226,33.736,41.706,77.767,46.922,120.329
						c5.232,42.776,1.529,86.729-11.698,127.779C383.911,411.282,398.976,415.358,402.037,405.829L402.037,405.829z"/>
				</g>
				<g>
					<path style="fill:#3D2A3D;" d="M377.414,407.825c16.649-51.683,18.752-107.876,7.867-160.95
						c-8.859-43.184-27.881-85.841-58.744-117.811c-16.879-17.481-38.005-31.23-61.52-37.727
						c-13.874-3.836-19.753,17.655-5.922,21.481c15.997,4.414,31.056,13.216,43.432,24.1c15.304,13.468,26.023,28.088,35.915,45.753
						c22.657,40.491,31.892,88.493,31.238,135.122c-0.389,28.57-4.982,56.904-13.741,84.103c-1.871,5.779,2.111,12.149,7.778,13.7
						C369.762,417.26,375.556,413.594,377.414,407.825L377.414,407.825z"/>
				</g>
			</g>
		</g>
		<g style="clip-path:url(#SVGID_2_);">
			<g>
				<path style="fill:#A34322;" d="M184.989,250.668c6.978,16.592,3.172,32.724-8.497,36.018
					c-11.671,3.308-26.773-7.476-33.747-24.066c-6.986-16.596-3.172-32.718,8.476-36.025
					C162.905,223.293,178.013,234.067,184.989,250.668z"/>
				<path style="fill:#A34322;" d="M327.019,250.668c-6.974,16.592-3.176,32.724,8.489,36.018
					c11.665,3.308,26.775-7.476,33.749-24.066c6.982-16.596,3.174-32.718-8.486-36.025
					C349.109,223.293,333.993,234.067,327.019,250.668z"/>
			</g>
			<path style="fill:#A34322;" d="M291.789,352.699c0,20.139-16.327,36.456-36.476,36.456H250.9
				c-20.127,0-36.47-16.317-36.47-36.456v-93.922c0-20.151,16.344-36.478,36.47-36.478h4.412c20.149,0,36.476,16.327,36.476,36.478
				V352.699z"/>
			<g>
				<path style="fill:#C67C47;" d="M344.926,238.774c0,50.078-40.595,90.665-90.661,90.665l0,0
					c-50.071,0-90.665-40.588-90.665-90.665v-46.922c0-50.074,40.594-90.663,90.665-90.663l0,0
					c50.066,0,90.661,40.589,90.661,90.663V238.774z"/>
			</g>
			<g>
				<g>
					<path style="fill:#3D2A3D;" d="M278.939,245.831c0-5.504,4.888-9.98,10.894-9.98c6.017,0,10.866,4.476,10.866,9.98
						c0,5.498-4.849,9.968-10.866,9.968C283.827,255.799,278.939,251.329,278.939,245.831z"/>
				</g>
				<g>
					<path style="fill:#3D2A3D;" d="M210.837,245.821c0-5.625,4.712-10.171,10.489-10.171c5.826,0,10.515,4.545,10.515,10.171
						c0,5.611-4.689,10.179-10.515,10.179C215.548,256,210.837,251.432,210.837,245.821z"/>
				</g>
			</g>
			<path style="fill:#A34322;" d="M269.941,261.657c-0.449,7.895-7.047,14.157-15.202,14.157c-6.908,0-12.678-4.519-14.576-10.712
				c-0.424,1.452-0.732,2.963-0.732,4.546c0,9.028,7.327,16.353,16.339,16.353c9.035,0,16.335-7.325,16.335-16.353
				C272.105,266.722,271.286,264.03,269.941,261.657z"/>
		</g>
		<g style="clip-path:url(#SVGID_2_);">
			<path style="fill:#3D2A3D;" d="M256,86c-55.532,0-100.55,48.792-100.55,108.984c0,19.989,4.969,38.717,13.635,54.824
				l4.666-39.574c3.036-25.748,24.859-45.15,50.785-45.151l62.915-0.003c25.924-0.001,47.748,19.396,50.789,45.141l4.676,39.586
				c8.664-16.105,13.633-34.833,13.633-54.822C356.549,134.792,311.532,86,256,86z"/>
		</g>
		<g style="clip-path:url(#SVGID_2_);">
			<g>
				<path style="fill:#3D2A3D;" d="M206.548,224.978c5.69-6.259,13.699-9.05,22.034-9.183c4.145-0.066,4.152-6.5,0-6.435
					c-9.947,0.158-19.784,3.588-26.585,11.067C199.214,223.49,203.751,228.055,206.548,224.978L206.548,224.978z"/>
			</g>
			<g>
				<path style="fill:#3D2A3D;" d="M310.003,220.428c-6.8-7.479-16.638-10.909-26.583-11.067c-4.151-0.066-4.146,6.369,0,6.435
					c8.334,0.133,16.342,2.923,22.033,9.183C308.249,228.055,312.787,223.49,310.003,220.428L310.003,220.428z"/>
			</g>
		</g>
		<g style="clip-path:url(#SVGID_2_);">
			<g>
				<path style="fill:#A91935;" d="M283.21,284.121c-11.207,18.079-43.153,18.134-54.431,0.1c-2.87-4.57-10.112-0.357-7.23,4.247
					c14.646,23.433,54.343,23.362,68.914-0.126C293.32,283.734,286.056,279.546,283.21,284.121L283.21,284.121z"/>
			</g>
		</g>
	</g>
</g>
</svg>
