<?xml version="1.0" encoding="iso-8859-1"?>
<!-- Generator: Adobe Illustrator 22.0.1, SVG Export Plug-In . SVG Version: 6.00 Build 0)  -->
<svg version="1.1" id="Layer_7" xmlns="http://www.w3.org/2000/svg" xmlns:xlink="http://www.w3.org/1999/xlink" x="0px" y="0px"
	 viewBox="0 0 512 512" style="enable-background:new 0 0 512 512;" xml:space="preserve">
<g>
	<path style="fill:#3D2A3D;" d="M0,255.998C0,114.607,114.613,0,256.002,0C397.387,0,512,114.607,512,255.998
		C512,397.388,397.387,512,256.002,512C114.613,512,0,397.388,0,255.998z"/>
	<g>
		<defs>
			<path id="SVGID_109_" d="M0,255.996C0,114.607,114.613,0,256.002,0C397.387,0,512,114.607,512,255.996
				C512,397.389,397.387,512,256.002,512C114.613,512,0,397.389,0,255.996z"/>
		</defs>
		<clipPath id="SVGID_2_">
			<use xlink:href="#SVGID_109_"  style="overflow:visible;"/>
		</clipPath>
		<g style="clip-path:url(#SVGID_2_);">
			<path style="fill:#E68C6F;" d="M189.227,265.974c6.561,15.537,2.988,30.638-7.979,33.73
				c-10.969,3.092-25.174-6.997-31.734-22.532c-6.561-15.537-2.988-30.639,7.979-33.73S182.668,250.439,189.227,265.974z"/>
			<path style="fill:#E68C6F;" d="M322.772,265.974c-6.561,15.537-2.986,30.638,7.98,33.73c10.967,3.092,25.174-6.997,31.732-22.532
				c6.562-15.537,2.99-30.639-7.979-33.73C343.541,240.349,329.332,250.439,322.772,265.974z"/>
		</g>
		<path style="clip-path:url(#SVGID_2_);fill:#E68C6F;" d="M441.602,545.884l-0.053-0.842c0-51.205-19.168-100.816-42.572-110.264
			l-99.68-40.158c-23.406-9.439-61.737-9.477-85.148-0.112l-101.107,40.396c-23.425,9.378-42.593,58.933-42.593,110.138
			l-0.052,0.842H441.602z"/>
		<path style="clip-path:url(#SVGID_2_);fill:#E68C6F;" d="M298.212,397.085c0,21.981-17.818,39.8-39.799,39.8h-4.826
			c-21.98,0-39.799-17.818-39.799-39.8V294.57c0-21.98,17.818-39.8,39.799-39.8h4.826c21.98,0,39.799,17.819,39.799,39.8V397.085z"
			/>
		<g style="clip-path:url(#SVGID_2_);">
			<g>
				<path style="fill:#F5B29C;" d="M341.653,291.733c0,36.842-29.862,66.702-66.704,66.702h-37.904
					c-36.837,0-66.699-29.86-66.699-66.702V182.586c0-36.837,29.862-66.702,66.699-66.702h37.904
					c36.842,0,66.704,29.865,66.704,66.702V291.733z"/>
			</g>
		</g>
		<g style="clip-path:url(#SVGID_2_);">
			<circle style="fill:#3D2A3D;" cx="223.159" cy="265.98" r="9.904"/>
			<circle style="fill:#3D2A3D;" cx="288.841" cy="265.98" r="9.904"/>
		</g>
		<path style="clip-path:url(#SVGID_2_);fill:#F59576;" d="M270.173,279.542c-0.449,7.895-7.047,14.157-15.202,14.157
			c-6.908,0-12.678-4.519-14.576-10.712c-0.424,1.452-0.732,2.963-0.732,4.546c0,9.028,7.327,16.353,16.339,16.353
			c9.035,0,16.335-7.325,16.335-16.353C272.337,284.607,271.518,281.915,270.173,279.542z"/>
		<path style="clip-path:url(#SVGID_2_);fill:#78BEDE;" d="M441.549,545.043c0-51.205-19.168-100.816-42.572-110.264l-79.255-31.93
			c-11.019,24.201-35.397,41.035-63.722,41.035c-28.194,0-52.479-16.678-63.57-40.698l-79.387,31.719
			c-23.425,9.378-42.593,58.933-42.593,110.138l-0.052,0.842h371.204L441.549,545.043z"/>
		<g style="clip-path:url(#SVGID_2_);">
			<g>
				<path style="fill:#A14B2A;" d="M174.136,245.884l3.899-34.219c2.067-18.139,17.416-31.839,35.672-31.84l84.573-0.004
					c18.255-0.001,33.604,13.696,35.675,31.833l3.907,34.23h9.819c3.548-11.315,5.485-23.481,5.485-36.158
					c0-60.192-43.503-108.984-97.166-108.984c-53.664,0-97.167,48.792-97.167,108.984c0,12.677,1.937,24.843,5.486,36.158H174.136z"
					/>
			</g>
			<g>
				<g>
					<polygon style="fill:#A14B2A;" points="158.427,266.352 173.573,265.884 183.246,147.43 163.573,185.884 					"/>
				</g>
				<g>
					<polygon style="fill:#A14B2A;" points="353.573,266.352 338.427,265.884 328.754,147.43 348.427,185.884 					"/>
				</g>
			</g>
		</g>
		<path style="clip-path:url(#SVGID_2_);fill:#A14B2A;" d="M259.391,183.472c54.851,0,100.217-27.904,107.818-64.213
			c-19.975-15.792-49.373-25.787-82.182-25.787c-54.851,0-100.218,27.904-107.818,64.213
			C197.185,173.476,226.583,183.472,259.391,183.472z"/>
		<g style="clip-path:url(#SVGID_2_);">
			<g>
				<path style="fill:#A14B2A;" d="M202.884,249.09c5.69-6.259,13.699-9.05,22.034-9.183c4.145-0.066,4.152-6.5,0-6.435
					c-9.947,0.158-19.784,3.588-26.585,11.067C195.55,247.602,200.087,252.166,202.884,249.09L202.884,249.09z"/>
			</g>
			<g>
				<path style="fill:#A14B2A;" d="M306.339,244.54c-6.8-7.479-16.638-10.909-26.583-11.067c-4.151-0.066-4.146,6.369,0,6.435
					c8.334,0.133,16.342,2.923,22.033,9.183C304.585,252.166,309.123,247.602,306.339,244.54L306.339,244.54z"/>
			</g>
		</g>
		<g style="clip-path:url(#SVGID_2_);">
			<g>
				<path style="fill:#A91935;" d="M279.547,308.232c-11.207,18.079-43.153,18.134-54.431,0.1c-2.87-4.57-10.112-0.357-7.23,4.247
					c14.646,23.433,54.343,23.362,68.914-0.126C289.657,307.845,282.393,303.657,279.547,308.232L279.547,308.232z"/>
			</g>
		</g>
	</g>
</g>
</svg>
