<?xml version="1.0" encoding="iso-8859-1"?>
<!-- Generator: Adobe Illustrator 22.0.1, SVG Export Plug-In . SVG Version: 6.00 Build 0)  -->
<svg version="1.1" id="Layer_7" xmlns="http://www.w3.org/2000/svg" xmlns:xlink="http://www.w3.org/1999/xlink" x="0px" y="0px"
	 viewBox="0 0 512 512" style="enable-background:new 0 0 512 512;" xml:space="preserve">
<g>
	<path style="fill:#3D2A3D;" d="M0,255.997C0,114.607,114.613,0,256.002,0C397.386,0,512,114.607,512,255.997
		C512,397.389,397.386,512,256.002,512C114.613,512,0,397.389,0,255.997z"/>
	<g>
		<defs>
			<path id="SVGID_111_" d="M0,255.996C0,114.607,114.613,0,256.002,0C397.387,0,512,114.607,512,255.996
				C512,397.389,397.387,512,256.002,512C114.613,512,0,397.389,0,255.996z"/>
		</defs>
		<clipPath id="SVGID_2_">
			<use xlink:href="#SVGID_111_"  style="overflow:visible;"/>
		</clipPath>
		<g style="clip-path:url(#SVGID_2_);">
			<path style="fill:#E38A5B;" d="M189.227,261.974c6.561,15.537,2.988,30.638-7.979,33.73
				c-10.969,3.092-25.174-6.997-31.734-22.532c-6.561-15.537-2.988-30.639,7.979-33.73S182.668,246.439,189.227,261.974z"/>
			<path style="fill:#E38A5B;" d="M322.772,261.974c-6.561,15.537-2.986,30.638,7.98,33.73c10.967,3.092,25.174-6.997,31.732-22.532
				c6.562-15.537,2.99-30.639-7.979-33.73C343.541,236.349,329.332,246.439,322.772,261.974z"/>
		</g>
		<path style="clip-path:url(#SVGID_2_);fill:#E38A5B;" d="M441.602,541.884l-0.053-0.842c0-51.205-19.168-100.816-42.572-110.264
			l-99.68-40.158c-23.406-9.439-61.737-9.477-85.148-0.112l-101.107,40.396c-23.425,9.378-42.593,58.933-42.593,110.138
			l-0.052,0.842H441.602z"/>
		<path style="clip-path:url(#SVGID_2_);fill:#E38A5B;" d="M298.212,393.085c0,21.981-17.818,39.8-39.799,39.8h-4.826
			c-21.98,0-39.799-17.818-39.799-39.8V290.57c0-21.98,17.818-39.8,39.799-39.8h4.826c21.98,0,39.799,17.819,39.799,39.8V393.085z"
			/>
		<g style="clip-path:url(#SVGID_2_);">
			<g>
				<path style="fill:#F5B68C;" d="M341.653,287.733c0,36.842-29.862,66.702-66.704,66.702h-37.904
					c-36.837,0-66.699-29.86-66.699-66.702V178.586c0-36.837,29.862-66.702,66.699-66.702h37.904
					c36.842,0,66.704,29.865,66.704,66.702V287.733z"/>
			</g>
		</g>
		<g style="clip-path:url(#SVGID_2_);">
			<circle style="fill:#4A87A3;" cx="223.159" cy="261.98" r="9.904"/>
			<circle style="fill:#4A87A3;" cx="288.841" cy="261.98" r="9.904"/>
		</g>
		<g style="clip-path:url(#SVGID_2_);">
			<path style="fill:#FCEEB3;" d="M256,98.076c-55.532,0-100.55,48.792-100.55,108.984c0,19.989,4.969,38.717,13.635,54.824
				l2.352-19.946c4.356-36.941,35.666-64.779,72.863-64.78l23.39-0.001c37.194-0.002,68.505,27.828,72.868,64.765l2.358,19.961
				c8.664-16.105,13.633-34.833,13.633-54.822C356.549,146.868,311.532,98.076,256,98.076z"/>
		</g>
		<path style="clip-path:url(#SVGID_2_);fill:#E38A5B;" d="M270.173,275.542c-0.449,7.895-7.047,14.157-15.202,14.157
			c-6.908,0-12.678-4.519-14.576-10.712c-0.424,1.452-0.732,2.963-0.732,4.546c0,9.028,7.327,16.353,16.339,16.353
			c9.035,0,16.335-7.325,16.335-16.353C272.337,280.607,271.518,277.915,270.173,275.542z"/>
		<path style="clip-path:url(#SVGID_2_);fill:#D12C2C;" d="M441.549,541.043c0-51.205-19.168-100.816-42.572-110.264l-79.255-31.93
			c-11.019,24.201-35.397,41.035-63.722,41.035c-28.194,0-52.479-16.678-63.57-40.698l-79.387,31.719
			c-23.425,9.378-42.593,58.933-42.593,110.138l-0.052,0.842h371.204L441.549,541.043z"/>
		<g style="clip-path:url(#SVGID_2_);">
			<g>
				<path style="fill:#A91935;" d="M221.625,306.902c0,0.186-0.011,0.395-0.011,0.592c0,18.991,15.405,34.39,34.384,34.39
					c18.983,0,34.388-15.399,34.388-34.39c0-0.197-0.015-0.407-0.023-0.592H221.625z"/>
				<path style="fill:#FFFFFF;" d="M232.542,306.902v2.943c0,5.974,4.833,10.806,10.797,10.806h35.376
					c5.972,0,10.812-4.833,10.812-10.806v-2.943H232.542z"/>
			</g>
		</g>
		<g style="clip-path:url(#SVGID_2_);">
			<ellipse style="fill:#EB987F;" cx="311" cy="286.884" rx="20" ry="15"/>
			<ellipse style="fill:#EB987F;" cx="201" cy="286.884" rx="20" ry="15"/>
		</g>
		<g style="clip-path:url(#SVGID_2_);">
			<g>
				<path style="fill:#FCEEB3;" d="M210.725,250.697c4.813-4.372,11.362-5.751,17.585-4.004c5.46,1.533,7.774-6.937,2.333-8.464
					c-9.305-2.611-19-0.21-26.125,6.261C200.321,248.304,206.547,254.493,210.725,250.697L210.725,250.697z"/>
			</g>
			<g>
				<path style="fill:#FCEEB3;" d="M307.481,244.491c-7.123-6.471-16.819-8.873-26.124-6.261c-5.442,1.527-3.127,9.996,2.333,8.464
					c6.224-1.747,12.772-0.368,17.585,4.004C305.454,254.493,311.68,248.304,307.481,244.491L307.481,244.491z"/>
			</g>
		</g>
		<g style="clip-path:url(#SVGID_2_);">
			<path style="fill:#FCEEB3;" d="M120.398,272.684c0-62.976,37.084-117.281,90.602-142.297
				c-16.862-9.037-36.132-14.168-56.602-14.168c-66.274,0-120,53.726-120,120c0,62.832,48.292,114.377,109.783,119.562
				C129.115,331.68,120.398,303.202,120.398,272.684z"/>
			<path style="fill:#FCEEB3;" d="M391.602,272.684c0-62.976-37.084-117.281-90.602-142.297
				c16.862-9.037,36.132-14.168,56.602-14.168c66.274,0,120,53.726,120,120c0,62.832-48.292,114.377-109.783,119.562
				C382.885,331.68,391.602,303.202,391.602,272.684z"/>
		</g>
		<g style="clip-path:url(#SVGID_2_);">
			<path style="fill:#D12C2C;" d="M171.999,154.264L171.999,154.264c-7.327-3.866-10.133-12.94-6.267-20.266l9.333-17.689
				c3.866-7.327,12.94-10.133,20.266-6.267l0,0c7.327,3.866,10.133,12.94,6.267,20.266l-9.333,17.689
				C188.399,155.324,179.326,158.129,171.999,154.264z"/>
			<path style="fill:#D12C2C;" d="M340.001,154.264L340.001,154.264c7.327-3.866,10.133-12.94,6.267-20.266l-9.333-17.689
				c-3.866-7.327-12.94-10.133-20.266-6.267l0,0c-7.327,3.866-10.133,12.94-6.267,20.266l9.333,17.689
				C323.601,155.324,332.674,158.129,340.001,154.264z"/>
		</g>
		<g style="clip-path:url(#SVGID_2_);">
			<ellipse style="fill:#FCEEB3;" cx="221" cy="181" rx="35" ry="25"/>
			<ellipse style="fill:#FCEEB3;" cx="291" cy="181" rx="35" ry="25"/>
		</g>
	</g>
</g>
</svg>
