<?xml version="1.0" encoding="iso-8859-1"?>
<!-- Generator: Adobe Illustrator 22.0.1, SVG Export Plug-In . SVG Version: 6.00 Build 0)  -->
<svg version="1.1" id="Layer_7" xmlns="http://www.w3.org/2000/svg" xmlns:xlink="http://www.w3.org/1999/xlink" x="0px" y="0px"
	 viewBox="0 0 512 512" style="enable-background:new 0 0 512 512;" xml:space="preserve">
<g>
	<g>
		<defs>
			<path id="SVGID_97_" d="M0,255.996C0,114.607,114.613,0,256.002,0C397.387,0,512,114.607,512,255.996
				C512,397.389,397.387,512,256.002,512C114.613,512,0,397.389,0,255.996z"/>
		</defs>
		<clipPath id="SVGID_2_">
			<use xlink:href="#SVGID_97_"  style="overflow:visible;"/>
		</clipPath>
		<path style="clip-path:url(#SVGID_2_);fill:#D12C2C;" d="M0,252.72C0,111.331,114.613-3.278,256.001-3.278
			C397.387-3.278,512,111.331,512,252.72c0,141.391-114.613,256.002-255.999,256.002C114.613,508.722,0,394.111,0,252.72z"/>
		<path style="clip-path:url(#SVGID_2_);fill:#3D2A3D;" d="M391,452.722H121v-235c0-74.558,60.441-135,135-135h0
			c74.558,0,135,60.441,135,135V452.722z"/>
		<g style="clip-path:url(#SVGID_2_);">
			<path style="fill:#B35C1F;" d="M189.227,262.812c6.561,15.537,2.988,30.638-7.979,33.729
				c-10.969,3.092-25.174-6.997-31.734-22.532c-6.561-15.537-2.988-30.639,7.979-33.731
				C168.459,237.187,182.668,247.277,189.227,262.812z"/>
			<path style="fill:#B35C1F;" d="M322.772,262.812c-6.561,15.537-2.986,30.638,7.98,33.729s25.174-6.997,31.732-22.532
				c6.562-15.537,2.99-30.639-7.979-33.731C343.541,237.187,329.332,247.277,322.772,262.812z"/>
		</g>
		<ellipse style="clip-path:url(#SVGID_2_);fill:#3D2A3D;" cx="256" cy="188.415" rx="115" ry="105.272"/>
		<path style="clip-path:url(#SVGID_2_);fill:#B35C1F;" d="M441.602,542.722l-0.053-0.842c0-51.205-19.168-100.816-42.572-110.264
			l-99.68-40.158c-23.406-9.439-61.737-9.477-85.148-0.112l-101.107,40.397C89.618,441.121,70.45,490.675,70.45,541.88l-0.052,0.842
			H441.602z"/>
		<path style="clip-path:url(#SVGID_2_);fill:#B35C1F;" d="M298.212,393.922c0,21.981-17.818,39.8-39.799,39.8h-4.826
			c-21.98,0-39.799-17.818-39.799-39.8V291.408c0-21.98,17.818-39.8,39.799-39.8h4.826c21.98,0,39.799,17.819,39.799,39.8V393.922z"
			/>
		<g style="clip-path:url(#SVGID_2_);">
			<g>
				<path style="fill:#C67C47;" d="M341.653,269.62c0,47.305-38.348,85.653-85.653,85.653h-0.005
					c-47.303,0-85.65-38.347-85.65-85.65v-71.249c0-47.304,38.348-85.652,85.652-85.652h0c47.306,0,85.655,38.349,85.655,85.655
					V269.62z"/>
			</g>
		</g>
		<g style="clip-path:url(#SVGID_2_);">
			<circle style="fill:#3D2A3D;" cx="223.159" cy="272.287" r="9.904"/>
			<circle style="fill:#3D2A3D;" cx="288.841" cy="272.287" r="9.904"/>
		</g>
		<g style="clip-path:url(#SVGID_2_);">
			<path style="fill:#3D2A3D;" d="M256,98.914c-55.532,0-100.55,48.792-100.55,108.984c0,19.989,4.969,38.717,13.635,54.824
				l5.036-42.714c2.825-23.957,23.13-42.01,47.254-42.011l69.238-0.003c24.121-0.001,44.427,18.047,47.257,42.002l5.047,42.725
				c8.664-16.106,13.633-34.833,13.633-54.822C356.549,147.706,311.532,98.914,256,98.914z"/>
		</g>
		<path style="clip-path:url(#SVGID_2_);fill:#B35C1F;" d="M270.173,276.379c-0.449,7.895-7.047,14.157-15.202,14.157
			c-6.908,0-12.678-4.519-14.576-10.712c-0.424,1.452-0.732,2.963-0.732,4.546c0,9.028,7.327,16.353,16.339,16.353
			c9.035,0,16.335-7.325,16.335-16.353C272.337,281.445,271.518,278.752,270.173,276.379z"/>
		<path style="clip-path:url(#SVGID_2_);fill:#FFC34A;" d="M441.549,541.88c0-51.205-19.168-100.816-42.572-110.264l-79.255-31.93
			c-11.019,24.201-35.397,41.035-63.722,41.035c-28.194,0-52.479-16.678-63.57-40.698l-79.387,31.719
			C89.618,441.121,70.45,490.675,70.45,541.88l-0.052,0.842h371.204L441.549,541.88z"/>
		<g style="clip-path:url(#SVGID_2_);">
			<path style="fill:#FFFFFF;" d="M276.758,315.072c-11.174,10.52-30.342,10.52-41.518,0c-7.879-7.418-19.781,4.44-11.879,11.88
				c17.939,16.887,47.338,16.887,65.275,0C296.542,319.512,284.639,307.654,276.758,315.072L276.758,315.072z"/>
		</g>
		<path style="clip-path:url(#SVGID_2_);fill:#543F54;" d="M316.663,222.722c6.507-10.949,10.259-23.799,10.259-37.545
			c0-40.035-31.752-72.488-70.922-72.488c-39.169,0-70.922,32.453-70.922,72.488c0,13.746,3.752,26.596,10.259,37.545H316.663z"/>
		<g style="clip-path:url(#SVGID_2_);">
			<g>
				<path style="fill:#3D2A3D;" d="M210.725,261.535c4.813-4.372,11.362-5.751,17.585-4.004c5.46,1.533,7.774-6.937,2.333-8.464
					c-9.305-2.611-19-0.21-26.125,6.261C200.321,259.142,206.547,265.331,210.725,261.535L210.725,261.535z"/>
			</g>
			<g>
				<path style="fill:#3D2A3D;" d="M307.481,255.329c-7.123-6.471-16.819-8.873-26.124-6.261c-5.442,1.527-3.127,9.996,2.333,8.464
					c6.224-1.747,12.772-0.368,17.585,4.004C305.454,265.331,311.68,259.142,307.481,255.329L307.481,255.329z"/>
			</g>
		</g>
	</g>
</g>
</svg>
