<?xml version="1.0" encoding="iso-8859-1"?>
<!-- Generator: Adobe Illustrator 22.0.1, SVG Export Plug-In . SVG Version: 6.00 Build 0)  -->
<svg version="1.1" id="Layer_7" xmlns="http://www.w3.org/2000/svg" xmlns:xlink="http://www.w3.org/1999/xlink" x="0px" y="0px"
	 viewBox="0 0 512 512" style="enable-background:new 0 0 512 512;" xml:space="preserve">
<g>
	<path style="fill:#966796;" d="M512,256.002C512,397.393,397.387,512,255.998,512C114.613,512,0,397.393,0,256.002
		S114.613,0,255.998,0C397.387,0,512,114.612,512,256.002z"/>
	<g>
		<defs>
			<path id="SVGID_49_" d="M0,255.996C0,114.607,114.613,0,256.002,0C397.387,0,512,114.607,512,255.996
				C512,397.389,397.387,512,256.002,512C114.613,512,0,397.389,0,255.996z"/>
		</defs>
		<clipPath id="SVGID_2_">
			<use xlink:href="#SVGID_49_"  style="overflow:visible;"/>
		</clipPath>
		<g style="clip-path:url(#SVGID_2_);">
			<path style="fill:#572020;" d="M315.727,385.884L315.727,385.884c19.33,0,35-15.67,35-35v-80c0-19.33-15.67-35-35-35h0
				c-19.33,0-35,15.67-35,35v80C280.727,370.214,296.397,385.884,315.727,385.884z"/>
			<path style="fill:#572020;" d="M340.393,365.884L340.393,365.884c21.907,0,39.667-17.759,39.667-39.667V185.551
				c0-21.907-17.759-39.667-39.667-39.667h0c-21.907,0-39.667,17.759-39.667,39.667v140.667
				C300.727,348.125,318.486,365.884,340.393,365.884z"/>
			<path style="fill:#572020;" d="M185.727,395.884L185.727,395.884c-19.33,0-35-15.67-35-35v-80c0-19.33,15.67-35,35-35h0
				c19.33,0,35,15.67,35,35v80C220.727,380.214,205.057,395.884,185.727,395.884z"/>
			<path style="fill:#572020;" d="M161.06,375.884L161.06,375.884c-21.907,0-39.667-17.759-39.667-39.667V195.551
				c0-21.907,17.759-39.667,39.667-39.667h0c21.907,0,39.667,17.759,39.667,39.667v140.667
				C200.727,358.125,182.967,375.884,161.06,375.884z"/>
			<g>
				<path style="fill:#F0B39C;" d="M188.5,265.974c6.561,15.537,2.988,30.638-7.979,33.73c-10.969,3.092-25.174-6.997-31.734-22.532
					c-6.561-15.537-2.988-30.639,7.979-33.73S181.942,250.439,188.5,265.974z"/>
				<path style="fill:#F0B39C;" d="M322.045,265.974c-6.56,15.537-2.986,30.638,7.98,33.73c10.967,3.092,25.174-6.997,31.732-22.532
					c6.562-15.537,2.99-30.639-7.978-33.73C342.815,240.349,328.606,250.439,322.045,265.974z"/>
			</g>
			<ellipse style="fill:#572020;" cx="251.412" cy="191.332" rx="129.316" ry="118.377"/>
			<path style="fill:#F0B39C;" d="M440.875,545.884l-0.053-0.842c0-51.205-19.168-100.816-42.572-110.264l-99.68-40.158
				c-23.406-9.439-61.737-9.477-85.148-0.112l-101.107,40.396c-23.425,9.378-42.593,58.933-42.593,110.138l-0.052,0.842H440.875z"/>
			<path style="fill:#F0B39C;" d="M297.485,397.085c0,21.981-17.818,39.8-39.799,39.8h-4.826c-21.98,0-39.799-17.818-39.799-39.8
				V294.57c0-21.98,17.818-39.8,39.799-39.8h4.826c21.98,0,39.799,17.819,39.799,39.8V397.085z"/>
			<g>
				<path style="fill:#FFDBC5;" d="M350.053,272.125c0,54.088-42.414,97.85-94.766,97.85l0,0c-52.379,0-94.794-43.762-94.794-97.85
					v-56.403c0-54.004,42.415-97.837,94.794-97.837l0,0c52.352,0,94.766,43.833,94.766,97.837V272.125z"/>
			</g>
			<path style="fill:#EB7FA8;" d="M442.276,545.043c0-51.205-19.168-100.816-42.572-110.264l-79.255-31.93
				c-11.019,24.201-35.397,41.035-63.722,41.035c-28.194,0-52.479-16.678-63.57-40.698l-79.387,31.719
				c-23.425,9.378-42.593,58.933-42.593,110.138l-0.052,0.842h371.204L442.276,545.043z"/>
			<g>
				<circle style="fill:#2961A5;" cx="222.432" cy="285.263" r="9.904"/>
				<circle style="fill:#2961A5;" cx="288.115" cy="285.263" r="9.904"/>
			</g>
			<path style="fill:#F0B39C;" d="M269.447,289.356c-0.449,7.895-7.047,14.157-15.202,14.157c-6.908,0-12.678-4.519-14.576-10.712
				c-0.424,1.452-0.732,2.963-0.732,4.546c0,9.028,7.327,16.353,16.339,16.353c9.035,0,16.335-7.325,16.335-16.353
				C271.61,294.421,270.792,291.729,269.447,289.356z"/>
			<g>
				<g>
					<path style="fill:#9C3939;" d="M209.999,267.204c4.813-4.372,11.362-5.751,17.585-4.004c5.46,1.533,7.774-6.937,2.333-8.464
						c-9.305-2.611-19-0.21-26.125,6.261C199.594,264.811,205.82,271,209.999,267.204L209.999,267.204z"/>
				</g>
				<g>
					<path style="fill:#9C3939;" d="M306.754,260.998c-7.123-6.471-16.819-8.873-26.124-6.261c-5.442,1.527-3.127,9.996,2.333,8.464
						c6.224-1.747,12.772-0.368,17.585,4.004C304.727,271,310.953,264.811,306.754,260.998L306.754,260.998z"/>
				</g>
			</g>
			<g>
				<g>
					<path style="fill:#C96A46;" d="M282.484,321.819c-11.207,18.079-43.153,18.134-54.431,0.1c-2.87-4.57-10.112-0.357-7.23,4.247
						c14.646,23.433,54.343,23.362,68.914-0.126C292.594,321.432,285.33,317.244,282.484,321.819L282.484,321.819z"/>
				</g>
			</g>
			<path style="fill:#572020;" d="M165.227,265.884L165.227,265.884c-13.531,0-24.5-10.969-24.5-24.5v-56
				c0-13.531,10.969-24.5,24.5-24.5h0c13.531,0,24.5,10.969,24.5,24.5v56C189.727,254.915,178.758,265.884,165.227,265.884z"/>
			<path style="fill:#572020;" d="M210.227,229.884L210.227,229.884c-15.335,0-27.767-12.432-27.767-27.767v-63.467
				c0-15.335,12.432-27.767,27.767-27.767h0c15.335,0,27.767,12.432,27.767,27.767v63.467
				C237.993,217.453,225.562,229.884,210.227,229.884z"/>
			<path style="fill:#572020;" d="M255.227,220.884L255.227,220.884c-15.335,0-27.767-12.432-27.767-27.767v-63.467
				c0-15.335,12.432-27.767,27.767-27.767h0c15.335,0,27.767,12.432,27.767,27.767v63.467
				C282.993,208.453,270.562,220.884,255.227,220.884z"/>
			<path style="fill:#572020;" d="M300.227,230.884L300.227,230.884c-15.335,0-27.767-12.432-27.767-27.767v-63.467
				c0-15.335,12.432-27.767,27.767-27.767h0c15.335,0,27.767,12.432,27.767,27.767v63.467
				C327.993,218.453,315.562,230.884,300.227,230.884z"/>
			<path style="fill:#572020;" d="M345.227,260.884L345.227,260.884c-13.531,0-24.5-10.969-24.5-24.5v-56
				c0-13.531,10.969-24.5,24.5-24.5h0c13.531,0,24.5,10.969,24.5,24.5v56C369.727,249.915,358.758,260.884,345.227,260.884z"/>
			<ellipse style="fill:#572020;" cx="250.727" cy="155.884" rx="100" ry="40"/>
		</g>
	</g>
</g>
</svg>
