<?xml version="1.0" encoding="iso-8859-1"?>
<!-- Generator: Adobe Illustrator 22.0.1, SVG Export Plug-In . SVG Version: 6.00 Build 0)  -->
<svg version="1.1" id="Layer_7" xmlns="http://www.w3.org/2000/svg" xmlns:xlink="http://www.w3.org/1999/xlink" x="0px" y="0px"
	 viewBox="0 0 512 512" style="enable-background:new 0 0 512 512;" xml:space="preserve">
<g>
	<path style="fill:#966796;" d="M512,256.002C512,397.392,397.387,512,255.998,512C114.614,512,0,397.392,0,256.002
		C0,114.612,114.614,0,255.998,0C397.387,0,512,114.612,512,256.002z"/>
	<g>
		<defs>
			<path id="SVGID_3_" d="M0,255.996C0,114.607,114.613,0,256.002,0C397.387,0,512,114.607,512,255.996
				C512,397.389,397.387,512,256.002,512C114.613,512,0,397.389,0,255.996z"/>
		</defs>
		<clipPath id="SVGID_2_">
			<use xlink:href="#SVGID_3_"  style="overflow:visible;"/>
		</clipPath>
		<path style="clip-path:url(#SVGID_2_);fill:#3D2A3D;" d="M340.36,372.459c7.732-28.767,12.155-61.876,12.155-97.137
			c0-110.443-43.215-199.983-96.518-199.983s-96.512,89.54-96.512,199.983c0,35.261,4.418,68.371,12.153,97.137H340.36z"/>
		<g style="clip-path:url(#SVGID_2_);">
			<path style="fill:#A34322;" d="M441.602,512l-0.053-0.842c0-51.205-19.168-100.816-42.572-110.264l-99.68-40.158
				c-23.406-9.439-61.737-9.477-85.148-0.112l-101.107,40.397c-23.425,9.378-42.593,58.933-42.593,110.138L70.398,512H441.602z"/>
			<path style="fill:#DB4646;" d="M441.549,511.158c0-51.205-19.168-100.816-42.572-110.264l-79.255-31.93
				C308.704,393.166,284.326,410,256,410c-28.194,0-52.479-16.678-63.57-40.698l-79.387,31.719
				c-23.425,9.378-42.593,58.933-42.593,110.138L70.398,512h371.204L441.549,511.158z"/>
		</g>
		<g style="clip-path:url(#SVGID_2_);">
			<g>
				<g>
					<path style="fill:#3D2A3D;" d="M125.037,373.963c-16.092-49.947-18.235-104.386-6.849-155.57
						c9.003-40.518,27.221-80.548,57.627-109.472c19.768-18.792,45.317-31.271,72.777-31.408c10.054-0.059,10.066-15.657,0-15.6
						c-86.144,0.445-135.142,92.276-148.24,166.34c-8.767,49.631-5.826,101.84,9.649,149.852
						C113.067,387.634,128.128,383.558,125.037,373.963L125.037,373.963z"/>
				</g>
				<g>
					<path style="fill:#3D2A3D;" d="M156.105,374.174c-16.009-49.692-18.124-103.89-6.638-154.724
						c9.263-40.997,27.683-80.49,58.359-108.736c1.652-1.523,3.363-2.998,5.084-4.445c2.531-2.119,2.857-2.328,4.734-3.707
						c3.792-2.787,7.755-5.328,11.813-7.677c1.85-1.066,3.742-2.057,5.636-3.023c0.943-0.48,1.904-0.933,2.861-1.393
						c0.348-0.164,4.162-1.843,2.146-1c4.185-1.746,8.489-3.178,12.854-4.373c13.827-3.826,7.945-25.318-5.927-21.481
						c-38.6,10.659-68.514,40.016-88.856,73.5c-24.818,40.893-36.232,89.36-37.958,136.825
						c-1.297,35.747,3.437,72.096,14.409,106.163c1.857,5.769,7.658,9.435,13.708,7.773
						C153.98,386.323,157.968,379.953,156.105,374.174L156.105,374.174z"/>
				</g>
			</g>
			<g>
				<g>
					<path style="fill:#3D2A3D;" d="M402.037,378.105c16.379-50.826,18.598-106.05,8.05-158.3
						c-8.525-42.217-26.738-83.845-56.427-115.503c-23.48-25.031-55.411-42.211-90.215-42.389c-10.054-0.057-10.054,15.54,0,15.6
						c35.886,0.183,66.381,21.141,88.333,48.342c27.226,33.736,41.706,77.767,46.922,120.329
						c5.232,42.776,1.529,86.729-11.698,127.779C383.911,383.558,398.976,387.634,402.037,378.105L402.037,378.105z"/>
				</g>
				<g>
					<path style="fill:#3D2A3D;" d="M377.414,380.101c16.649-51.683,18.752-107.876,7.867-160.95
						c-8.859-43.184-27.881-85.841-58.744-117.811c-16.879-17.481-38.005-31.23-61.52-37.727
						c-13.874-3.836-19.753,17.655-5.922,21.481c15.997,4.414,31.056,13.216,43.432,24.1c15.304,13.468,26.023,28.088,35.915,45.753
						c22.657,40.491,31.892,88.493,31.238,135.122c-0.389,28.57-4.982,56.904-13.741,84.103c-1.871,5.779,2.111,12.149,7.778,13.7
						C369.762,389.536,375.556,385.87,377.414,380.101L377.414,380.101z"/>
				</g>
			</g>
		</g>
		<g style="clip-path:url(#SVGID_2_);">
			<g>
				<g>
					<path style="fill:#A34322;" d="M184.989,226.197c6.978,16.592,3.172,32.724-8.497,36.018
						c-11.671,3.308-26.773-7.476-33.747-24.066c-6.986-16.596-3.172-32.718,8.476-36.026
						C162.905,198.822,178.013,209.595,184.989,226.197z"/>
					<path style="fill:#A34322;" d="M327.019,226.197c-6.974,16.592-3.176,32.724,8.489,36.018
						c11.665,3.308,26.775-7.476,33.749-24.066c6.982-16.596,3.174-32.718-8.486-36.026
						C349.109,198.822,333.993,209.595,327.019,226.197z"/>
				</g>
				<path style="fill:#A34322;" d="M291.789,352.699c0,20.139-16.327,36.456-36.476,36.456H250.9
					c-20.127,0-36.47-16.317-36.47-36.456v-93.922c0-20.151,16.344-36.478,36.47-36.478h4.412c20.149,0,36.476,16.327,36.476,36.478
					V352.699z"/>
				<g>
					<path style="fill:#C67C47;" d="M344.926,238.774c0,50.078-40.595,90.665-90.661,90.665l0,0
						c-50.071,0-90.665-40.588-90.665-90.665v-46.922c0-50.074,40.594-90.663,90.665-90.663l0,0
						c50.066,0,90.661,40.589,90.661,90.663V238.774z"/>
				</g>
				<g>
					<g>
						<path style="fill:#3D2A3D;" d="M198.519,214.31c8.494-9.345,20.473-13.526,32.908-13.716c6.204-0.098,6.207-9.716,0-9.611
							c-14.856,0.238-29.545,5.349-39.7,16.526C187.557,212.085,194.344,218.903,198.519,214.31L198.519,214.31z"/>
					</g>
					<g>
						<path style="fill:#3D2A3D;" d="M320.285,207.509c-10.152-11.177-24.863-16.288-39.72-16.526c-6.202-0.105-6.202,9.513,0,9.611
							c12.446,0.191,24.414,4.371,32.91,13.716C317.656,218.903,324.445,212.085,320.285,207.509L320.285,207.509z"/>
					</g>
				</g>
				<g>
					<g>
						<path style="fill:#3D2A3D;" d="M278.369,224.018c0-5.504,4.888-9.98,10.894-9.98c6.017,0,10.866,4.476,10.866,9.98
							c0,5.498-4.849,9.968-10.866,9.968C283.257,233.986,278.369,229.516,278.369,224.018z"/>
					</g>
					<g>
						<path style="fill:#3D2A3D;" d="M210.267,224.008c0-5.625,4.712-10.171,10.489-10.171c5.826,0,10.515,4.545,10.515,10.171
							c0,5.611-4.689,10.179-10.515,10.179C214.979,234.187,210.267,229.619,210.267,224.008z"/>
					</g>
				</g>
				<g>
					<defs>
						<path id="SVGID_5_" d="M344.693,237.089c0,51.599-40.469,93.348-90.424,93.348l0,0c-49.967,0-90.434-41.749-90.434-93.348
							v-91.024c0-51.531,40.466-65.294,90.434-65.294l0,0c49.955,0,90.424,13.763,90.424,65.294V237.089z"/>
					</defs>
					<clipPath id="SVGID_4_">
						<use xlink:href="#SVGID_5_"  style="overflow:visible;"/>
					</clipPath>
					<path style="clip-path:url(#SVGID_4_);fill:#CF341F;" d="M349.513,276.318c-0.055,8.716-3.863,17.67-10.71,23.33
						c-16.989,14.048-41.661-0.906-41.663-23.338c0-21.16,23.106-30.744,39.355-22.602
						C345.515,258.21,349.592,267.126,349.513,276.318z"/>
					<path style="clip-path:url(#SVGID_4_);fill:#CF341F;" d="M216.047,276.633c-1.187,12.751-11.997,25.922-25.804,25.922
						c-14.327,0-25.965-11.589-25.965-25.898c0-20.321,24.703-28.181,40.761-20.233C213.67,260.685,216.774,268.575,216.047,276.633
						z"/>
				</g>
				<path style="fill:#A34322;" d="M270.51,248.657c-0.449,7.895-7.047,14.157-15.202,14.157c-6.908,0-12.678-4.519-14.576-10.712
					c-0.424,1.452-0.732,2.963-0.732,4.546c0,9.028,7.327,16.353,16.339,16.353c9.035,0,16.335-7.325,16.335-16.353
					C272.674,253.722,271.855,251.03,270.51,248.657z"/>
			</g>
			<g>
				<g>
					<path style="fill:#3D2A3D;" d="M222.302,284.122c0,0.184-0.018,0.389-0.018,0.582c0,18.622,15.096,33.72,33.714,33.72
						c18.616,0,33.72-15.097,33.72-33.72c0-0.193-0.016-0.398-0.023-0.582H222.302z"/>
					<path style="fill:#FFFFFF;" d="M232.997,284.122v2.892c0,5.853,4.742,10.597,10.589,10.597h34.689
						c5.853,0,10.601-4.744,10.601-10.597v-2.892H232.997z"/>
				</g>
			</g>
			<g>
				<path style="fill:#3D2A3D;" d="M173.93,218.11c-1.762-7.365-2.701-15.093-2.701-23.057c0-50.656,37.95-91.733,84.771-91.733
					c46.822,0,84.774,41.077,84.774,91.733c0,7.964-0.937,15.692-2.703,23.057h13.983c1.598-8.201,2.443-16.739,2.443-25.504
					c0-63.4-44.096-114.79-98.496-114.79c-54.394,0-98.496,51.39-98.496,114.79c0,8.765,0.847,17.303,2.451,25.504H173.93z"/>
				<path style="fill:#3D2A3D;" d="M171.249,213.113c-0.004-0.572-0.02-1.127-0.02-1.711c0-50.664,37.95-76.744,84.771-76.744
					c46.822,0,84.774,26.08,84.774,76.744c0,0.584-0.016,1.139-0.027,1.711h13.675c0.043-1.383,0.074-2.77,0.074-4.162
					c0-63.396-44.096-114.788-98.496-114.788c-54.394,0-98.496,51.392-98.496,114.788c0,1.392,0.031,2.779,0.074,4.162H171.249z"/>
			</g>
		</g>
	</g>
</g>
</svg>
