<?xml version="1.0" encoding="iso-8859-1"?>
<!-- Generator: Adobe Illustrator 22.0.1, SVG Export Plug-In . SVG Version: 6.00 Build 0)  -->
<svg version="1.1" id="Layer_7" xmlns="http://www.w3.org/2000/svg" xmlns:xlink="http://www.w3.org/1999/xlink" x="0px" y="0px"
	 viewBox="0 0 512 512" style="enable-background:new 0 0 512 512;" xml:space="preserve">
<g>
	<path style="fill:#3D2A3D;" d="M0,255.996C0,114.607,114.613,0,256.002,0C397.387,0,512,114.607,512,255.996
		C512,397.389,397.387,512,256.002,512C114.613,512,0,397.389,0,255.996z"/>
	<g>
		<defs>
			<path id="SVGID_81_" d="M0,255.996C0,114.607,114.613,0,256.002,0C397.387,0,512,114.607,512,255.996
				C512,397.389,397.387,512,256.002,512C114.613,512,0,397.389,0,255.996z"/>
		</defs>
		<clipPath id="SVGID_2_">
			<use xlink:href="#SVGID_81_"  style="overflow:visible;"/>
		</clipPath>
		<path style="clip-path:url(#SVGID_2_);fill:#D12C2C;" d="M255.438,116C175.833,116,109.64,193.64,96,295.978
			C137.151,320.502,197.691,336,265.197,336c58.051,0,110.953-11.459,150.803-30.264C405.389,198.617,337.552,116,255.438,116z"/>
		<g style="clip-path:url(#SVGID_2_);">
			<path style="fill:#F0B39C;" d="M189.227,265.974c6.561,15.537,2.988,30.638-7.979,33.73
				c-10.969,3.092-25.174-6.997-31.734-22.532c-6.561-15.537-2.988-30.639,7.979-33.73S182.668,250.439,189.227,265.974z"/>
			<path style="fill:#F0B39C;" d="M322.772,265.974c-6.561,15.537-2.986,30.638,7.98,33.73c10.967,3.092,25.174-6.997,31.732-22.532
				c6.562-15.537,2.99-30.639-7.979-33.73C343.541,240.349,329.332,250.439,322.772,265.974z"/>
		</g>
		<path style="clip-path:url(#SVGID_2_);fill:#F0B39C;" d="M441.602,545.884l-0.053-0.842c0-51.205-19.168-100.816-42.572-110.264
			l-99.68-40.158c-23.406-9.439-61.737-9.477-85.148-0.112l-101.107,40.396c-23.425,9.378-42.593,58.933-42.593,110.138
			l-0.052,0.842H441.602z"/>
		<path style="clip-path:url(#SVGID_2_);fill:#F0B39C;" d="M298.212,397.085c0,21.981-17.818,39.8-39.799,39.8h-4.826
			c-21.98,0-39.799-17.818-39.799-39.8V294.57c0-21.98,17.818-39.8,39.799-39.8h4.826c21.98,0,39.799,17.819,39.799,39.8V397.085z"
			/>
		<g style="clip-path:url(#SVGID_2_);">
			<path style="fill:#FFDBC5;" d="M349.075,269.351c0,53.115-41.651,96.09-93.061,96.09l0,0c-51.437,0-93.089-42.975-93.089-96.09
				v-55.389c0-53.033,41.652-96.077,93.089-96.077l0,0c51.41,0,93.061,43.045,93.061,96.077V269.351z"/>
		</g>
		<g style="clip-path:url(#SVGID_2_);">
			<circle style="fill:#3D2A3D;" cx="223.159" cy="275.449" r="9.904"/>
			<circle style="fill:#3D2A3D;" cx="288.841" cy="275.449" r="9.904"/>
		</g>
		<g style="clip-path:url(#SVGID_2_);">
			<path style="fill:#D12C2C;" d="M256,115.709c-55.532,0-100.55,48.792-100.55,108.984c0,19.989,4.969,38.717,13.635,54.824
				l4.774-40.488c2.974-25.227,24.356-44.237,49.758-44.238l64.755-0.003c25.399-0.001,46.782,19.003,49.761,44.227l4.784,40.499
				c8.664-16.105,13.633-34.833,13.633-54.822C356.549,164.501,311.532,115.709,256,115.709z"/>
		</g>
		<path style="clip-path:url(#SVGID_2_);fill:#F0B39C;" d="M270.173,286c-0.449,7.895-7.047,14.157-15.202,14.157
			c-6.908,0-12.678-4.519-14.576-10.712c-0.424,1.452-0.732,2.963-0.732,4.546c0,9.028,7.327,16.353,16.339,16.353
			c9.035,0,16.335-7.325,16.335-16.353C272.337,291.065,271.518,288.373,270.173,286z"/>
		<path style="clip-path:url(#SVGID_2_);fill:#A18FA1;" d="M441.549,545.043c0-51.205-19.168-100.816-42.572-110.264l-79.255-31.93
			c-11.019,24.201-35.397,41.035-63.722,41.035c-28.194,0-52.479-16.678-63.57-40.698l-79.387,31.719
			c-23.425,9.378-42.593,58.933-42.593,110.138l-0.052,0.842h371.204L441.549,545.043z"/>
		<path style="clip-path:url(#SVGID_2_);fill:#E8664A;" d="M190.976,181.551c-13.147,14.717-22.395,33.879-25.815,55.335
			c23.364,11.641,57.735,18.998,96.061,18.998c32.958,0,62.993-5.439,85.618-14.366c-2.763-23.326-12.367-44.2-26.451-59.968
			H190.976z"/>
		<g style="clip-path:url(#SVGID_2_);">
			<g>
				<path style="fill:#A91935;" d="M221.625,321.018c0,0.186-0.011,0.395-0.011,0.592c0,18.991,15.405,34.39,34.384,34.39
					c18.983,0,34.388-15.399,34.388-34.39c0-0.197-0.015-0.407-0.023-0.592H221.625z"/>
				<path style="fill:#FFFFFF;" d="M232.542,321.018v2.943c0,5.974,4.833,10.806,10.797,10.806h35.376
					c5.972,0,10.812-4.833,10.812-10.806v-2.943H232.542z"/>
			</g>
		</g>
	</g>
</g>
</svg>
