<?xml version="1.0" encoding="iso-8859-1"?>
<!-- Generator: Adobe Illustrator 22.0.1, SVG Export Plug-In . SVG Version: 6.00 Build 0)  -->
<svg version="1.1" id="Layer_7" xmlns="http://www.w3.org/2000/svg" xmlns:xlink="http://www.w3.org/1999/xlink" x="0px" y="0px"
	 viewBox="0 0 512 512" style="enable-background:new 0 0 512 512;" xml:space="preserve">
<g>
	<path style="fill:#E1902B;" d="M512,256.002C512,397.392,397.387,512,255.998,512C114.613,512,0,397.392,0,256.002
		C0,114.612,114.613,0,255.998,0C397.387,0,512,114.612,512,256.002z"/>
	<g>
		<defs>
			<path id="SVGID_11_" d="M0,255.996C0,114.607,114.613,0,256.002,0C397.387,0,512,114.607,512,255.996
				C512,397.389,397.387,512,256.002,512C114.613,512,0,397.389,0,255.996z"/>
		</defs>
		<clipPath id="SVGID_2_">
			<use xlink:href="#SVGID_11_"  style="overflow:visible;"/>
		</clipPath>
		<g style="clip-path:url(#SVGID_2_);">
			<g>
				<path style="fill:#F0B39C;" d="M192.014,252.512c6.561,15.537,2.988,30.638-7.979,33.729
					c-10.969,3.092-25.174-6.997-31.734-22.532c-6.561-15.537-2.988-30.639,7.978-33.73
					C171.246,226.887,185.455,236.976,192.014,252.512z"/>
				<path style="fill:#F0B39C;" d="M325.559,252.512c-6.56,15.537-2.986,30.638,7.98,33.729s25.174-6.997,31.732-22.532
					c6.562-15.537,2.99-30.639-7.979-33.73C346.328,226.887,332.119,236.976,325.559,252.512z"/>
			</g>
			<ellipse style="fill:#3D2A3D;" cx="258.787" cy="184.904" rx="107.583" ry="98.482"/>
			<path style="fill:#F0B39C;" d="M444.389,532.422l-0.053-0.842c0-51.205-19.168-100.816-42.572-110.264l-99.68-40.158
				c-23.406-9.439-61.737-9.477-85.148-0.112l-101.106,40.397c-23.425,9.378-42.593,58.933-42.593,110.138l-0.052,0.842H444.389z"/>
			<path style="fill:#F0B39C;" d="M300.999,383.622c0,21.981-17.818,39.8-39.799,39.8h-4.826c-21.98,0-39.799-17.818-39.799-39.8
				V281.107c0-21.98,17.818-39.8,39.799-39.8h4.826c21.98,0,39.799,17.819,39.799,39.8V383.622z"/>
			<g>
				<path style="fill:#FFDBC5;" d="M353.567,258.662c0,54.088-42.414,97.85-94.766,97.85l0,0c-52.379,0-94.794-43.762-94.794-97.85
					v-56.403c0-54.004,42.415-97.837,94.794-97.837l0,0c52.352,0,94.766,43.833,94.766,97.837V258.662z"/>
			</g>
			<g>
				<circle style="fill:#3D2A3D;" cx="225.946" cy="261.986" r="9.904"/>
				<circle style="fill:#3D2A3D;" cx="291.628" cy="261.986" r="9.904"/>
			</g>
			<g>
				<path style="fill:#3D2A3D;" d="M258.787,102.246c-55.532,0-100.55,48.792-100.55,108.984c0,19.989,4.969,38.717,13.635,54.824
					l9.989-84.724l153.834-0.007l10.008,84.729c8.664-16.106,13.633-34.833,13.633-54.822
					C359.336,151.038,314.319,102.246,258.787,102.246z"/>
			</g>
			<g>
				<g>
					<path style="fill:#3D2A3D;" d="M204.969,240.653c7.959-8.755,19.16-12.658,30.818-12.844c5.797-0.092,5.807-9.092,0-9
						c-13.912,0.221-27.672,5.019-37.183,15.479C194.711,238.572,201.057,244.956,204.969,240.653L204.969,240.653z"/>
				</g>
				<g>
					<path style="fill:#3D2A3D;" d="M318.969,234.289c-9.512-10.461-23.272-15.259-37.182-15.479c-5.807-0.092-5.799,8.908,0,9
						c11.656,0.186,22.857,4.089,30.816,12.844C316.516,244.956,322.864,238.572,318.969,234.289L318.969,234.289z"/>
				</g>
			</g>
			<g>
				<path style="fill:#FFFFFF;" d="M279.545,297.877c-11.174,10.52-30.342,10.52-41.518,0c-7.879-7.418-19.781,4.44-11.879,11.88
					c17.939,16.887,47.338,16.887,65.275,0C299.328,302.317,287.426,290.459,279.545,297.877L279.545,297.877z"/>
			</g>
			<path style="fill:#F0B39C;" d="M272.96,266.079c-0.449,7.895-7.047,14.157-15.202,14.157c-6.908,0-12.678-4.519-14.576-10.712
				c-0.424,1.452-0.732,2.963-0.732,4.546c0,9.028,7.327,16.352,16.339,16.352c9.035,0,16.335-7.325,16.335-16.352
				C275.124,271.144,274.305,268.452,272.96,266.079z"/>
			<path style="fill:#2961A5;" d="M444.336,531.58c0-51.205-19.168-100.816-42.572-110.264l-79.255-31.93
				c-11.019,24.201-35.397,41.035-63.722,41.035c-28.194,0-52.479-16.678-63.57-40.698l-79.387,31.719
				c-23.425,9.378-42.593,58.933-42.593,110.138l-0.052,0.842h371.204L444.336,531.58z"/>
			<path style="fill:#3D2A3D;" d="M360.217,54.024c-20.046-2.09-43.658,7.317-62.044,14.099
				c-10.031,3.698-30.231,14.646-33.88,25.554c-5.296,15.847,26.258,1.16,30.853-0.337c20.014-6.531,41.573,1.606,57.444,14.902
				c17.197,14.402,24.054,32.266,24.534,54.674c20.105-6.546,37.518-23.709,39.932-46.371
				C420.355,85.628,394.913,57.637,360.217,54.024z"/>
			<path style="fill:#DB4646;" d="M305.382,87.568c2.565,3.085,1.91,8.052-1.438,11.076l-8.826,7.957
				c-3.362,3.023-8.152,2.969-10.711-0.122l-18.12-21.909c-2.564-3.087-1.92-8.045,1.433-11.072l8.822-7.966
				c3.369-3.021,8.155-2.966,10.719,0.13L305.382,87.568z"/>
			<g>
				<path style="fill:#704D70;" d="M318.301,146.077H199.268c-18.239,0-33.011,15.555-33.011,34.73v6.543
					c0,19.179,14.772,34.732,33.011,34.732h4.066l16.898-29.618l6.297,29.618l78.07-0.055l7.829-36.756l19.249,33.782
					c11.555-5.407,19.64-17.545,19.64-31.702v-6.543C351.317,161.632,336.532,146.077,318.301,146.077z"/>
			</g>
		</g>
	</g>
</g>
</svg>
