<?xml version="1.0" encoding="iso-8859-1"?>
<!-- Generator: Adobe Illustrator 22.0.1, SVG Export Plug-In . SVG Version: 6.00 Build 0)  -->
<svg version="1.1" id="Layer_7" xmlns="http://www.w3.org/2000/svg" xmlns:xlink="http://www.w3.org/1999/xlink" x="0px" y="0px"
	 viewBox="0 0 512 512" style="enable-background:new 0 0 512 512;" xml:space="preserve">
<g>
	<path style="fill:#43B06D;" d="M512,256.003C512,397.393,397.387,512,255.998,512C114.613,512,0,397.393,0,256.003
		C0,114.611,114.613,0,255.998,0C397.387,0,512,114.611,512,256.003z"/>
	<g>
		<defs>
			<path id="SVGID_65_" d="M0,255.996C0,114.607,114.613,0,256.002,0C397.387,0,512,114.607,512,255.996
				C512,397.389,397.387,512,256.002,512C114.613,512,0,397.389,0,255.996z"/>
		</defs>
		<clipPath id="SVGID_2_">
			<use xlink:href="#SVGID_65_"  style="overflow:visible;"/>
		</clipPath>
		<g style="clip-path:url(#SVGID_2_);">
			<path style="fill:#3D2A3D;" d="M400,452.722H130v-235c0-74.558,60.441-135,135-135h0c74.558,0,135,60.441,135,135V452.722z"/>
			<g>
				<path style="fill:#E38A5B;" d="M196.07,262.812c6.561,15.537,2.988,30.638-7.979,33.729
					c-10.969,3.092-25.174-6.997-31.734-22.532c-6.561-15.537-2.988-30.639,7.979-33.731
					C175.302,237.187,189.511,247.277,196.07,262.812z"/>
				<path style="fill:#E38A5B;" d="M329.615,262.812c-6.56,15.537-2.986,30.638,7.981,33.729
					c10.967,3.092,25.174-6.997,31.732-22.532c6.562-15.537,2.99-30.639-7.979-33.731
					C350.384,237.187,336.175,247.277,329.615,262.812z"/>
			</g>
			<ellipse style="fill:#3D2A3D;" cx="262.843" cy="188.415" rx="115" ry="105.272"/>
			<path style="fill:#E38A5B;" d="M448.445,542.722l-0.053-0.842c0-51.205-19.168-100.816-42.572-110.264l-99.68-40.158
				c-23.406-9.439-61.737-9.477-85.148-0.112l-101.106,40.397c-23.425,9.378-42.593,58.933-42.593,110.138l-0.052,0.842H448.445z"/>
			<path style="fill:#E38A5B;" d="M305.055,393.922c0,21.981-17.818,39.8-39.799,39.8h-4.826c-21.98,0-39.799-17.818-39.799-39.8
				V291.408c0-21.98,17.818-39.8,39.799-39.8h4.826c21.98,0,39.799,17.819,39.799,39.8V393.922z"/>
			<g>
				<g>
					<path style="fill:#F5B68C;" d="M351.307,269.62c0,47.305-38.348,85.653-85.653,85.653h-0.005
						c-47.303,0-85.65-38.347-85.65-85.65v-71.249c0-47.304,38.348-85.652,85.652-85.652h0c47.306,0,85.655,38.349,85.655,85.655
						V269.62z"/>
				</g>
			</g>
			<g>
				<circle style="fill:#572020;" cx="230.002" cy="272.287" r="9.904"/>
				<circle style="fill:#572020;" cx="295.684" cy="272.287" r="9.904"/>
			</g>
			<g>
				<path style="fill:#3D2A3D;" d="M262.844,98.914c-55.532,0-100.55,48.792-100.55,108.984c0,19.989,4.969,38.717,13.635,54.824
					l5.036-42.714c2.825-23.957,23.13-42.01,47.254-42.011l69.238-0.003c24.121-0.001,44.427,18.047,47.257,42.002l5.047,42.725
					c8.664-16.106,13.633-34.833,13.633-54.822C363.392,147.706,318.375,98.914,262.844,98.914z"/>
			</g>
			<path style="fill:#E38A5B;" d="M277.016,276.379c-0.449,7.895-7.047,14.157-15.202,14.157c-6.908,0-12.678-4.519-14.576-10.712
				c-0.424,1.452-0.732,2.963-0.732,4.546c0,9.028,7.327,16.353,16.339,16.353c9.035,0,16.335-7.325,16.335-16.353
				C279.18,281.445,278.361,278.752,277.016,276.379z"/>
			<path style="fill:#FFC34A;" d="M448.392,541.88c0-51.205-19.168-100.816-42.572-110.264l-79.255-31.93
				c-11.019,24.201-35.397,41.035-63.722,41.035c-28.194,0-52.479-16.678-63.57-40.698l-79.387,31.719
				c-23.425,9.378-42.593,58.933-42.593,110.138l-0.052,0.842h371.204L448.392,541.88z"/>
			<g>
				<path style="fill:#FFFFFF;" d="M281.996,315.072c-11.174,10.52-30.342,10.52-41.518,0c-7.879-7.418-19.781,4.44-11.879,11.88
					c17.939,16.887,47.338,16.887,65.275,0C301.779,319.512,289.877,307.654,281.996,315.072L281.996,315.072z"/>
			</g>
			<g>
				<g>
					<g>
						<path style="fill:#3D2A3D;" d="M239.148,295.008h-44.635c-9.445,0-17.129-7.684-17.129-17.129v-19.302
							c0-9.444,7.684-17.129,17.129-17.129h44.635c9.445,0,17.129,7.684,17.129,17.129v19.302
							C256.277,287.324,248.593,295.008,239.148,295.008z M194.513,249.167c-5.189,0-9.411,4.222-9.411,9.411v19.302
							c0,5.189,4.222,9.411,9.411,9.411h44.635c5.189,0,9.412-4.222,9.412-9.411v-19.302c0-5.189-4.222-9.411-9.412-9.411H194.513z"
							/>
					</g>
					<g>
						<path style="fill:#3D2A3D;" d="M334.451,295.008h-44.636c-9.445,0-17.129-7.684-17.129-17.129v-19.302
							c0-9.444,7.684-17.129,17.129-17.129h44.636c9.445,0,17.129,7.684,17.129,17.129v19.302
							C351.579,287.324,343.896,295.008,334.451,295.008z M289.815,249.167c-5.189,0-9.411,4.222-9.411,9.411v19.302
							c0,5.189,4.222,9.411,9.411,9.411h44.636c5.189,0,9.411-4.222,9.411-9.411v-19.302c0-5.189-4.222-9.411-9.411-9.411H289.815z"
							/>
					</g>
				</g>
				<rect x="252.906" y="264.69" style="fill:#3D2A3D;" width="23.152" height="8.82"/>
			</g>
		</g>
	</g>
</g>
</svg>
