<?xml version="1.0" encoding="iso-8859-1"?>
<!-- Generator: Adobe Illustrator 22.0.1, SVG Export Plug-In . SVG Version: 6.00 Build 0)  -->
<svg version="1.1" id="Layer_7" xmlns="http://www.w3.org/2000/svg" xmlns:xlink="http://www.w3.org/1999/xlink" x="0px" y="0px"
	 viewBox="0 0 512 512" style="enable-background:new 0 0 512 512;" xml:space="preserve">
<g>
	<path style="fill:#3D2A3D;" d="M0.022,259.314C-1.811,117.937,111.307,1.854,252.683,0.022
		c141.373-1.833,257.462,111.279,259.295,252.656c1.832,141.38-111.286,257.467-252.659,259.3
		C117.943,513.81,1.854,400.694,0.022,259.314z"/>
	<g>
		<defs>
			<path id="SVGID_75_" d="M0,255.996C0,114.607,114.613,0,256.002,0C397.387,0,512,114.607,512,255.996
				C512,397.389,397.387,512,256.002,512C114.613,512,0,397.389,0,255.996z"/>
		</defs>
		<clipPath id="SVGID_2_">
			<use xlink:href="#SVGID_75_"  style="overflow:visible;"/>
		</clipPath>
		<g style="clip-path:url(#SVGID_2_);">
			<path style="fill:#E38A5B;" d="M197.011,265.974c6.561,15.537,2.988,30.638-7.979,33.73
				c-10.969,3.092-25.174-6.997-31.734-22.532c-6.561-15.537-2.988-30.639,7.979-33.73S190.452,250.439,197.011,265.974z"/>
			<path style="fill:#E38A5B;" d="M330.556,265.974c-6.56,15.537-2.986,30.638,7.98,33.73c10.967,3.092,25.174-6.997,31.732-22.532
				c6.562-15.537,2.99-30.639-7.978-33.73C351.325,240.349,337.116,250.439,330.556,265.974z"/>
		</g>
		<path style="clip-path:url(#SVGID_2_);fill:#E38A5B;" d="M449.386,545.884l-0.053-0.842c0-51.205-19.168-100.816-42.572-110.264
			l-99.68-40.158c-23.406-9.439-61.737-9.477-85.148-0.112l-101.106,40.396c-23.425,9.378-42.593,58.933-42.593,110.138
			l-0.052,0.842H449.386z"/>
		<path style="clip-path:url(#SVGID_2_);fill:#E38A5B;" d="M305.996,397.085c0,21.981-17.818,39.8-39.799,39.8h-4.826
			c-21.981,0-39.799-17.818-39.799-39.8V294.57c0-21.98,17.818-39.8,39.799-39.8h4.826c21.98,0,39.799,17.819,39.799,39.8V397.085z"
			/>
		<g style="clip-path:url(#SVGID_2_);">
			<g>
				<path style="fill:#F5B68C;" d="M349.437,291.733c0,36.842-29.862,66.702-66.704,66.702h-37.904
					c-36.837,0-66.699-29.86-66.699-66.702V182.586c0-36.837,29.862-66.702,66.699-66.702h37.904
					c36.842,0,66.704,29.865,66.704,66.702V291.733z"/>
			</g>
		</g>
		<g style="clip-path:url(#SVGID_2_);">
			<circle style="fill:#4A87A3;" cx="230.942" cy="265.98" r="9.904"/>
			<circle style="fill:#4A87A3;" cx="296.625" cy="265.98" r="9.904"/>
		</g>
		<g style="clip-path:url(#SVGID_2_);">
			<path style="fill:#FCEEB3;" d="M263.784,102.076c-55.532,0-100.55,48.792-100.55,108.984c0,19.989,4.969,38.717,13.635,54.824
				l9.989-84.724l153.834-0.007l10.008,84.729c8.664-16.105,13.633-34.833,13.633-54.822
				C364.333,150.868,319.316,102.076,263.784,102.076z"/>
		</g>
		<path style="clip-path:url(#SVGID_2_);fill:#E38A5B;" d="M277.957,279.542c-0.449,7.895-7.047,14.157-15.202,14.157
			c-6.908,0-12.678-4.519-14.576-10.712c-0.424,1.452-0.732,2.963-0.732,4.546c0,9.028,7.327,16.353,16.339,16.353
			c9.035,0,16.335-7.325,16.335-16.353C280.121,284.607,279.302,281.915,277.957,279.542z"/>
		<path style="clip-path:url(#SVGID_2_);fill:#D12C2C;" d="M449.333,545.043c0-51.205-19.168-100.816-42.572-110.264l-79.255-31.93
			c-11.019,24.201-35.397,41.035-63.722,41.035c-28.194,0-52.479-16.678-63.57-40.698l-79.387,31.719
			c-23.425,9.378-42.593,58.933-42.593,110.138l-0.052,0.842h371.204L449.333,545.043z"/>
		<g style="clip-path:url(#SVGID_2_);">
			<path style="fill:#FCEEB3;" d="M282.133,142.02l-7.488-25.441l-105.541,76.844v52.068l65.935-16.329
				C272.484,219.889,293.569,180.874,282.133,142.02z"/>
			<path style="fill:#FCEEB3;" d="M358.464,222.137c-0.062-25.259-7.878-49.682-17.285-73.656
				c-4.714-1.676-9.787-2.596-15.076-2.596c-24.853,0-45,20.147-45,45s20.147,45,45,45
				C338.812,235.884,350.281,230.608,358.464,222.137z"/>
		</g>
		<g style="clip-path:url(#SVGID_2_);">
			<g>
				<path style="fill:#A91935;" d="M229.409,310.902c0,0.186-0.011,0.395-0.011,0.592c0,18.991,15.405,34.39,34.384,34.39
					c18.983,0,34.388-15.399,34.388-34.39c0-0.197-0.015-0.407-0.023-0.592H229.409z"/>
				<path style="fill:#FFFFFF;" d="M240.326,310.902v2.943c0,5.974,4.833,10.806,10.797,10.806h35.376
					c5.972,0,10.812-4.833,10.812-10.806v-2.943H240.326z"/>
			</g>
		</g>
		<g style="clip-path:url(#SVGID_2_);">
			<ellipse style="fill:#EB987F;" cx="318.784" cy="290.884" rx="20" ry="15"/>
			<ellipse style="fill:#EB987F;" cx="208.784" cy="290.884" rx="20" ry="15"/>
		</g>
		<g style="clip-path:url(#SVGID_2_);">
			<g>
				<path style="fill:#FCEEB3;" d="M219.601,254.697c4.813-4.372,11.362-5.751,17.585-4.004c5.46,1.533,7.774-6.937,2.333-8.464
					c-9.305-2.611-19-0.21-26.125,6.261C209.197,252.304,215.422,258.493,219.601,254.697L219.601,254.697z"/>
			</g>
			<g>
				<path style="fill:#FCEEB3;" d="M316.357,248.491c-7.123-6.471-16.819-8.873-26.124-6.261c-5.442,1.527-3.127,9.996,2.333,8.464
					c6.224-1.747,12.772-0.368,17.585,4.004C314.329,258.493,320.555,252.304,316.357,248.491L316.357,248.491z"/>
			</g>
		</g>
		<polygon style="clip-path:url(#SVGID_2_);fill:#FCEEB3;" points="81.154,235.091 99.154,235.091 121.154,315.091 61.154,315.091 
					"/>
		<g style="clip-path:url(#SVGID_2_);">
			<g>
				<g>
					
						<ellipse transform="matrix(0.7868 -0.6172 0.6172 0.7868 -15.5623 157.7735)" style="fill:#FCEEB3;" cx="220.587" cy="101.412" rx="22.1" ry="18.943"/>
					
						<ellipse transform="matrix(0.7868 -0.6172 0.6172 0.7868 -28.4032 165.8453)" style="fill:#FCEEB3;" cx="225.85" cy="124.035" rx="22.1" ry="18.943"/>
				</g>
				<g>
					
						<ellipse transform="matrix(0.7868 -0.6172 0.6172 0.7868 -18.1261 138.5023)" style="fill:#FCEEB3;" cx="191.411" cy="95.488" rx="21.317" ry="18.271"/>
					
						<ellipse transform="matrix(0.7868 -0.6172 0.6172 0.7868 -30.5119 146.288)" style="fill:#FCEEB3;" cx="196.488" cy="117.308" rx="21.317" ry="18.271"/>
				</g>
				<g>
					
						<ellipse transform="matrix(0.7868 -0.6172 0.6172 0.7868 -29.0331 121.1022)" style="fill:#FCEEB3;" cx="160.772" cy="102.575" rx="20.533" ry="17.6"/>
					
						<ellipse transform="matrix(0.7868 -0.6172 0.6172 0.7868 -40.9637 128.6018)" style="fill:#FCEEB3;" cx="165.662" cy="123.594" rx="20.533" ry="17.6"/>
				</g>
				<g>
					
						<ellipse transform="matrix(0.7868 -0.6172 0.6172 0.7868 -45.9581 106.8052)" style="fill:#FCEEB3;" cx="131.616" cy="119.924" rx="19.75" ry="16.928"/>
					
						<ellipse transform="matrix(0.7868 -0.6172 0.6172 0.7868 -57.4335 114.0186)" style="fill:#FCEEB3;" cx="136.319" cy="140.141" rx="19.75" ry="16.928"/>
				</g>
				<g>
					
						<ellipse transform="matrix(0.7868 -0.6172 0.6172 0.7868 -66.5759 96.8432)" style="fill:#FCEEB3;" cx="106.887" cy="144.787" rx="18.966" ry="16.257"/>
					
						<ellipse transform="matrix(0.7868 -0.6172 0.6172 0.7868 -77.5962 103.7705)" style="fill:#FCEEB3;" cx="111.404" cy="164.201" rx="18.966" ry="16.257"/>
				</g>
				<g>
					
						<ellipse transform="matrix(0.7868 -0.6172 0.6172 0.7868 -88.5615 92.4482)" style="fill:#FCEEB3;" cx="89.533" cy="174.412" rx="18.183" ry="15.586"/>
					
						<ellipse transform="matrix(0.7868 -0.6172 0.6172 0.7868 -99.1266 99.0894)" style="fill:#FCEEB3;" cx="93.863" cy="193.025" rx="18.183" ry="15.586"/>
				</g>
				<g>
					
						<ellipse transform="matrix(0.7868 -0.6172 0.6172 0.7868 -109.5896 94.8523)" style="fill:#FCEEB3;" cx="82.499" cy="206.051" rx="17.4" ry="14.914"/>
					
						<ellipse transform="matrix(0.7868 -0.6172 0.6172 0.7868 -119.6995 101.2074)" style="fill:#FCEEB3;" cx="86.642" cy="223.862" rx="17.4" ry="14.914"/>
				</g>
			</g>
		</g>
		<g style="clip-path:url(#SVGID_2_);">
			<g>
				<g>
					<g>
						<path style="fill:#D12C2C;" d="M205.755,92.074c-16.398-2.245-25.158,6.311-19.468,19.015l15.048,33.597
							c5.69,12.704,17.906,11.865,27.149-1.865l12.558-18.653c9.241-13.728,3.387-26.799-13.008-29.044L205.755,92.074z"/>
					</g>
					<g>
						<path style="fill:#D12C2C;" d="M262.027,66.871c9.242-13.729,21.461-14.569,27.151-1.865l15.048,33.597
							c5.69,12.704-3.072,21.261-19.47,19.015l-22.277-3.051c-16.398-2.244-22.252-15.315-13.008-29.044L262.027,66.871z"/>
					</g>
				</g>
			</g>
			<path style="fill:#D12C2C;" d="M261.004,97.793c3.896,8.698,0.004,18.907-8.695,22.803c-8.698,3.896-18.907,0.002-22.802-8.696
				c-3.896-8.698-0.003-18.906,8.695-22.802C246.9,85.202,257.108,89.094,261.004,97.793z"/>
		</g>
		<path style="clip-path:url(#SVGID_2_);fill:#D12C2C;" d="M101.591,242.023l-19.62,3.881c-2.709,0.536-5.339-1.226-5.875-3.935v0
			c-0.536-2.709,1.226-5.339,3.935-5.875l19.62-3.881c2.709-0.536,5.339,1.226,5.875,3.935l0,0
			C106.062,238.857,104.3,241.487,101.591,242.023z"/>
	</g>
</g>
</svg>
