<?xml version="1.0" encoding="iso-8859-1"?>
<!-- Generator: Adobe Illustrator 22.0.1, SVG Export Plug-In . SVG Version: 6.00 Build 0)  -->
<svg version="1.1" id="Layer_7" xmlns="http://www.w3.org/2000/svg" xmlns:xlink="http://www.w3.org/1999/xlink" x="0px" y="0px"
	 viewBox="0 0 512 512" style="enable-background:new 0 0 512 512;" xml:space="preserve">
<g>
	<path style="fill:#966796;" d="M512,256.002C512,397.392,397.387,512,255.998,512C114.613,512,0,397.392,0,256.002
		C0,114.612,114.613,0,255.998,0C397.387,0,512,114.612,512,256.002z"/>
	<g>
		<defs>
			<path id="SVGID_43_" d="M0,255.996C0,114.607,114.613,0,256.002,0C397.387,0,512,114.607,512,255.996
				C512,397.389,397.387,512,256.002,512C114.613,512,0,397.389,0,255.996z"/>
		</defs>
		<clipPath id="SVGID_2_">
			<use xlink:href="#SVGID_43_"  style="overflow:visible;"/>
		</clipPath>
		<g style="clip-path:url(#SVGID_2_);">
			<path style="fill:#F0B39C;" d="M189.227,265.974c6.561,15.537,2.988,30.638-7.979,33.73
				c-10.969,3.092-25.174-6.997-31.734-22.532c-6.561-15.537-2.988-30.639,7.979-33.73S182.668,250.439,189.227,265.974z"/>
			<path style="fill:#F0B39C;" d="M322.772,265.974c-6.561,15.537-2.986,30.638,7.98,33.73c10.967,3.092,25.174-6.997,31.732-22.532
				c6.562-15.537,2.99-30.639-7.979-33.73C343.541,240.349,329.332,250.439,322.772,265.974z"/>
		</g>
		<ellipse style="clip-path:url(#SVGID_2_);fill:#572020;" cx="256" cy="198.367" rx="107.583" ry="98.482"/>
		<path style="clip-path:url(#SVGID_2_);fill:#F0B39C;" d="M441.602,545.884l-0.053-0.842c0-51.205-19.168-100.816-42.572-110.264
			l-99.68-40.158c-23.406-9.439-61.737-9.477-85.148-0.112l-101.107,40.396c-23.425,9.378-42.593,58.933-42.593,110.138
			l-0.052,0.842H441.602z"/>
		<path style="clip-path:url(#SVGID_2_);fill:#F0B39C;" d="M298.212,397.085c0,21.981-17.818,39.8-39.799,39.8h-4.826
			c-21.98,0-39.799-17.818-39.799-39.8V294.57c0-21.98,17.818-39.8,39.799-39.8h4.826c21.98,0,39.799,17.819,39.799,39.8V397.085z"
			/>
		<g style="clip-path:url(#SVGID_2_);">
			<path style="fill:#FFDBC5;" d="M350.78,272.125c0,54.088-42.414,97.85-94.766,97.85l0,0c-52.379,0-94.794-43.762-94.794-97.85
				v-56.403c0-54.004,42.415-97.837,94.794-97.837l0,0c52.352,0,94.766,43.833,94.766,97.837V272.125z"/>
		</g>
		<g style="clip-path:url(#SVGID_2_);">
			<path style="fill:#572020;" d="M256,115.709c-55.532,0-100.55,48.792-100.55,108.984c0,19.989,4.969,38.717,13.635,54.824
				l9.989-84.724l153.834-0.007l10.008,84.729c8.664-16.105,13.633-34.833,13.633-54.822
				C356.549,164.501,311.532,115.709,256,115.709z"/>
		</g>
		<path style="clip-path:url(#SVGID_2_);fill:#2961A5;" d="M441.549,545.043c0-51.205-19.168-100.816-42.572-110.264l-79.255-31.93
			c-11.019,24.201-35.397,41.035-63.722,41.035c-28.194,0-52.479-16.678-63.57-40.698l-79.387,31.719
			c-23.425,9.378-42.593,58.933-42.593,110.138l-0.052,0.842h371.204L441.549,545.043z"/>
		<g style="clip-path:url(#SVGID_2_);">
			<circle style="fill:#823030;" cx="256" cy="74.604" r="55.715"/>
			<path style="fill:#FFFFFF;" d="M297.786,118.222v6.81c0,4.786-3.88,8.667-8.667,8.667H222.88c-4.786,0-8.667-3.88-8.667-8.667
				v-6.81c0-4.786,3.88-8.667,8.667-8.667h66.239C293.906,109.555,297.786,113.436,297.786,118.222z"/>
		</g>
		<g style="clip-path:url(#SVGID_2_);">
			<path style="fill:#823030;" d="M315.514,173.699H196.481c-18.239,0-33.011,15.555-33.011,34.73v6.543
				c0,19.179,14.772,34.732,33.011,34.732h4.066l16.898-29.618l6.297,29.618l78.07-0.055l7.829-36.756l19.249,33.782
				c11.555-5.407,19.64-17.545,19.64-31.702v-6.543C348.53,189.254,333.745,173.699,315.514,173.699z"/>
		</g>
		<g style="clip-path:url(#SVGID_2_);">
			<circle style="fill:#2961A5;" cx="223.159" cy="285.263" r="9.904"/>
			<circle style="fill:#2961A5;" cx="288.841" cy="285.263" r="9.904"/>
		</g>
		<path style="clip-path:url(#SVGID_2_);fill:#F0B39C;" d="M270.173,289.356c-0.449,7.895-7.047,14.157-15.202,14.157
			c-6.908,0-12.678-4.519-14.576-10.712c-0.424,1.452-0.732,2.963-0.732,4.546c0,9.028,7.327,16.353,16.339,16.353
			c9.035,0,16.335-7.325,16.335-16.353C272.337,294.421,271.518,291.729,270.173,289.356z"/>
		<g style="clip-path:url(#SVGID_2_);">
			<g>
				<path style="fill:#9C3939;" d="M210.725,267.204c4.813-4.372,11.362-5.751,17.585-4.004c5.46,1.533,7.774-6.937,2.333-8.464
					c-9.305-2.611-19-0.21-26.125,6.261C200.321,264.811,206.547,271,210.725,267.204L210.725,267.204z"/>
			</g>
			<g>
				<path style="fill:#9C3939;" d="M307.481,260.998c-7.123-6.471-16.819-8.873-26.124-6.261c-5.442,1.527-3.127,9.996,2.333,8.464
					c6.224-1.747,12.772-0.368,17.585,4.004C305.454,271,311.68,264.811,307.481,260.998L307.481,260.998z"/>
			</g>
		</g>
		<g style="clip-path:url(#SVGID_2_);">
			<g>
				<path style="fill:#C96A46;" d="M283.21,321.819c-11.207,18.079-43.153,18.134-54.431,0.1c-2.87-4.57-10.112-0.357-7.23,4.247
					c14.646,23.433,54.343,23.362,68.914-0.126C293.32,321.432,286.056,317.244,283.21,321.819L283.21,321.819z"/>
			</g>
		</g>
	</g>
</g>
</svg>
