<?xml version="1.0" encoding="iso-8859-1"?>
<!-- Generator: Adobe Illustrator 22.0.1, SVG Export Plug-In . SVG Version: 6.00 Build 0)  -->
<svg version="1.1" id="Layer_7" xmlns="http://www.w3.org/2000/svg" xmlns:xlink="http://www.w3.org/1999/xlink" x="0px" y="0px"
	 viewBox="0 0 512 512" style="enable-background:new 0 0 512 512;" xml:space="preserve">
<g>
	<path style="fill:#9EC853;" d="M512,256.003C512,397.393,397.387,512,255.998,512C114.613,512,0,397.393,0,256.003
		C0,114.612,114.613,0,255.998,0C397.387,0,512,114.612,512,256.003z"/>
	<g>
		<defs>
			<path id="SVGID_21_" d="M0,255.996C0,114.607,114.613,0,256.002,0C397.387,0,512,114.607,512,255.996
				C512,397.389,397.387,512,256.002,512C114.613,512,0,397.389,0,255.996z"/>
		</defs>
		<clipPath id="SVGID_2_">
			<use xlink:href="#SVGID_21_"  style="overflow:visible;"/>
		</clipPath>
		<g style="clip-path:url(#SVGID_2_);">
			<g>
				<path style="fill:#3D2A3D;" d="M422.131,241.085c-7.113-29.687-32.453-58.668-51.4-81.516
					c-10.335-12.463-36.153-35.797-53.569-35.512c-25.306,0.422,11.573,38.09,16.025,43.899
					c19.412,25.292,18.654,60.191,7.659,89.559c-11.9,31.814-33.965,50.619-65.726,62.59c19.482,25.42,52.77,41.642,86.353,33.673
					C407.297,342.904,434.449,292.461,422.131,241.085z"/>
			</g>
			<g>
				<path style="fill:#3D2A3D;" d="M89.87,238.849c7.114-29.68,32.451-58.668,51.4-81.516c10.335-12.459,36.153-35.797,53.57-35.509
					c25.303,0.418-11.576,38.087-16.028,43.899c-19.412,25.295-18.654,60.191-7.659,89.555c11.9,31.817,33.965,50.619,65.726,62.593
					c-19.482,25.417-52.767,41.641-86.352,33.673C104.706,340.675,77.549,290.225,89.87,238.849z"/>
			</g>
		</g>
		<g style="clip-path:url(#SVGID_2_);">
			<g>
				<path style="fill:#F0B39C;" d="M189.227,252.512c6.561,15.537,2.988,30.638-7.979,33.729
					c-10.969,3.092-25.174-6.997-31.734-22.532c-6.561-15.537-2.988-30.639,7.979-33.73S182.668,236.976,189.227,252.512z"/>
				<path style="fill:#F0B39C;" d="M322.772,252.512c-6.561,15.537-2.986,30.638,7.98,33.729s25.174-6.997,31.732-22.532
					c6.562-15.537,2.99-30.639-7.979-33.73C343.541,226.887,329.332,236.976,322.772,252.512z"/>
			</g>
			<ellipse style="fill:#3D2A3D;" cx="256" cy="184.904" rx="107.583" ry="98.482"/>
			<path style="fill:#F0B39C;" d="M441.602,532.422l-0.053-0.842c0-51.205-19.168-100.816-42.572-110.264l-99.68-40.158
				c-23.406-9.439-61.737-9.477-85.148-0.112l-101.107,40.397C89.618,430.82,70.45,480.375,70.45,531.58l-0.052,0.842H441.602z"/>
			<path style="fill:#F0B39C;" d="M298.212,383.622c0,21.981-17.818,39.8-39.799,39.8h-4.826c-21.98,0-39.799-17.818-39.799-39.8
				V281.107c0-21.98,17.818-39.8,39.799-39.8h4.826c21.98,0,39.799,17.819,39.799,39.8V383.622z"/>
			<g>
				<path style="fill:#FFDBC5;" d="M350.78,258.662c0,54.088-42.414,97.85-94.766,97.85l0,0c-52.379,0-94.794-43.762-94.794-97.85
					v-56.403c0-54.004,42.415-97.837,94.794-97.837l0,0c52.352,0,94.766,43.833,94.766,97.837V258.662z"/>
			</g>
			<g>
				<circle style="fill:#2961A5;" cx="223.159" cy="261.986" r="9.904"/>
				<circle style="fill:#2961A5;" cx="288.841" cy="261.986" r="9.904"/>
			</g>
			<g>
				<path style="fill:#704D70;" d="M256,102.246c-55.532,0-100.55,48.792-100.55,108.984c0,19.989,4.969,38.717,13.635,54.824
					l9.989-84.724l153.834-0.007l10.008,84.729c8.664-16.106,13.633-34.833,13.633-54.822
					C356.549,151.038,311.532,102.246,256,102.246z"/>
			</g>
			<g>
				<g>
					<path style="fill:#3D2A3D;" d="M202.182,240.653c7.959-8.755,19.16-12.658,30.818-12.844c5.797-0.092,5.807-9.092,0-9
						c-13.912,0.221-27.672,5.019-37.184,15.479C191.924,238.572,198.27,244.956,202.182,240.653L202.182,240.653z"/>
				</g>
				<g>
					<path style="fill:#3D2A3D;" d="M316.182,234.289c-9.512-10.461-23.272-15.259-37.182-15.479c-5.807-0.092-5.799,8.908,0,9
						c11.656,0.186,22.858,4.089,30.816,12.844C313.729,244.956,320.077,238.572,316.182,234.289L316.182,234.289z"/>
				</g>
			</g>
			<g>
				<path style="fill:#FFFFFF;" d="M276.758,297.877c-11.174,10.52-30.342,10.52-41.518,0c-7.879-7.418-19.781,4.44-11.879,11.88
					c17.939,16.887,47.338,16.887,65.275,0C296.542,302.317,284.639,290.459,276.758,297.877L276.758,297.877z"/>
			</g>
			<path style="fill:#F0B39C;" d="M270.173,266.079c-0.449,7.895-7.047,14.157-15.202,14.157c-6.908,0-12.678-4.519-14.576-10.712
				c-0.424,1.452-0.732,2.963-0.732,4.546c0,9.028,7.327,16.352,16.339,16.352c9.035,0,16.335-7.325,16.335-16.352
				C272.337,271.144,271.518,268.452,270.173,266.079z"/>
			<path style="fill:#2961A5;" d="M441.549,531.58c0-51.205-19.168-100.816-42.572-110.264l-79.255-31.93
				c-11.019,24.201-35.397,41.035-63.722,41.035c-28.194,0-52.479-16.678-63.57-40.698l-79.387,31.719
				C89.618,430.82,70.45,480.375,70.45,531.58l-0.052,0.842h371.204L441.549,531.58z"/>
			<g>
				<path style="fill:#704D70;" d="M315.514,146.077H196.481c-18.239,0-33.011,15.555-33.011,34.73v6.543
					c0,19.179,14.772,34.732,33.011,34.732h4.066l16.898-29.618l6.297,29.618l78.07-0.055l7.829-36.756l19.249,33.782
					c11.555-5.407,19.64-17.545,19.64-31.702v-6.543C348.53,161.632,333.745,146.077,315.514,146.077z"/>
			</g>
		</g>
	</g>
</g>
</svg>
