<?xml version="1.0" encoding="iso-8859-1"?>
<!-- Generator: Adobe Illustrator 22.0.1, SVG Export Plug-In . SVG Version: 6.00 Build 0)  -->
<svg version="1.1" id="Layer_7" xmlns="http://www.w3.org/2000/svg" xmlns:xlink="http://www.w3.org/1999/xlink" x="0px" y="0px"
	 viewBox="0 0 512 512" style="enable-background:new 0 0 512 512;" xml:space="preserve">
<g>
	<path style="fill:#3D2A3D;" d="M512,255.944c0,141.39-114.613,255.998-256.002,255.998C114.613,511.942,0,397.334,0,255.944
		S114.613-0.058,255.998-0.058C397.387-0.058,512,114.554,512,255.944z"/>
	<g>
		<defs>
			<path id="SVGID_61_" d="M0,256.054C0,114.665,114.613,0.058,256.002,0.058C397.387,0.058,512,114.665,512,256.054
				c0,141.393-114.613,256.004-255.998,256.004C114.613,512.058,0,397.447,0,256.054z"/>
		</defs>
		<clipPath id="SVGID_2_">
			<use xlink:href="#SVGID_61_"  style="overflow:visible;"/>
		</clipPath>
		<path style="clip-path:url(#SVGID_2_);fill:#FCF2C8;" d="M400,455.942H130v-235c0-74.558,60.441-135,135-135h0
			c74.558,0,135,60.442,135,135V455.942z"/>
		<g style="clip-path:url(#SVGID_2_);">
			<path style="fill:#E38A5B;" d="M196.07,266.032c6.561,15.537,2.988,30.638-7.979,33.729
				c-10.969,3.092-25.174-6.997-31.734-22.532c-6.561-15.537-2.988-30.639,7.979-33.73S189.511,250.497,196.07,266.032z"/>
			<path style="fill:#E38A5B;" d="M329.615,266.032c-6.56,15.537-2.986,30.638,7.981,33.729
				c10.967,3.092,25.174-6.997,31.732-22.532c6.562-15.537,2.99-30.639-7.979-33.73
				C350.384,240.407,336.175,250.497,329.615,266.032z"/>
		</g>
		<ellipse style="clip-path:url(#SVGID_2_);fill:#FCF2C8;" cx="262.843" cy="191.635" rx="115" ry="105.272"/>
		<path style="clip-path:url(#SVGID_2_);fill:#E38A5B;" d="M448.445,545.942l-0.053-0.842c0-51.205-19.168-100.816-42.572-110.264
			l-99.68-40.158c-23.406-9.439-61.737-9.477-85.148-0.112l-101.106,40.396c-23.425,9.378-42.593,58.933-42.593,110.138
			l-0.052,0.842H448.445z"/>
		<path style="clip-path:url(#SVGID_2_);fill:#E38A5B;" d="M305.055,397.142c0,21.981-17.818,39.8-39.799,39.8h-4.826
			c-21.98,0-39.799-17.818-39.799-39.8V294.628c0-21.98,17.818-39.8,39.799-39.8h4.826c21.98,0,39.799,17.819,39.799,39.8V397.142z"
			/>
		<g style="clip-path:url(#SVGID_2_);">
			<g>
				<path style="fill:#F5B68C;" d="M351.307,272.84c0,47.305-38.348,85.653-85.653,85.653h-0.005
					c-47.303,0-85.65-38.347-85.65-85.65v-71.249c0-47.304,38.348-85.652,85.652-85.652h0c47.306,0,85.655,38.349,85.655,85.655
					V272.84z"/>
			</g>
		</g>
		<g style="clip-path:url(#SVGID_2_);">
			<circle style="fill:#572020;" cx="230.002" cy="275.507" r="9.904"/>
			<circle style="fill:#572020;" cx="295.684" cy="275.507" r="9.904"/>
		</g>
		<g style="clip-path:url(#SVGID_2_);">
			<g>
				<path style="fill:#FCF2C8;" d="M262.844,102.134c-55.532,0-100.55,48.792-100.55,108.984c0,19.989,4.969,38.717,13.635,54.824
					l9.989-84.724l153.834-0.007l10.008,84.729c8.664-16.105,13.633-34.833,13.633-54.822
					C363.392,150.926,318.375,102.134,262.844,102.134z"/>
			</g>
		</g>
		<path style="clip-path:url(#SVGID_2_);fill:#E38A5B;" d="M277.016,279.599c-0.449,7.895-7.047,14.157-15.202,14.157
			c-6.908,0-12.678-4.519-14.576-10.712c-0.424,1.452-0.732,2.963-0.732,4.546c0,9.028,7.327,16.352,16.339,16.352
			c9.035,0,16.335-7.325,16.335-16.352C279.18,284.665,278.361,281.973,277.016,279.599z"/>
		<path style="clip-path:url(#SVGID_2_);fill:#966796;" d="M448.392,545.1c0-51.205-19.168-100.816-42.572-110.264l-79.255-31.93
			c-11.019,24.201-35.397,41.035-63.722,41.035c-28.194,0-52.479-16.678-63.57-40.698l-79.387,31.719
			c-23.425,9.378-42.593,58.933-42.593,110.138l-0.052,0.842h371.204L448.392,545.1z"/>
		<path style="clip-path:url(#SVGID_2_);fill:#FCF2C8;" d="M281.029,142.077l-7.488-25.441L168,193.481v52.068l65.935-16.329
			C271.381,219.947,292.466,180.932,281.029,142.077z"/>
		<path style="clip-path:url(#SVGID_2_);fill:#FCF2C8;" d="M357.361,222.195c-0.062-25.259-7.878-49.682-17.285-73.656
			c-4.714-1.676-9.787-2.596-15.076-2.596c-24.853,0-45,20.147-45,45s20.147,45,45,45
			C337.708,235.942,349.178,230.666,357.361,222.195z"/>
		<g style="clip-path:url(#SVGID_2_);">
			<g>
				<path style="fill:#2961A5;" d="M307.984,239.91c-19.08,0-34.873,14.143-37.564,32.486h-19.213
					c-2.695-18.344-18.489-32.486-37.572-32.486c-20.965,0-38.018,17.053-38.018,38.017c0,20.962,17.053,38.016,38.018,38.016
					c19.083,0,34.877-14.143,37.572-32.487h19.213c2.691,18.344,18.484,32.487,37.564,32.487c20.963,0,38.016-17.054,38.016-38.016
					C346,256.963,328.947,239.91,307.984,239.91z M213.635,304.883c-14.861,0-26.957-12.093-26.957-26.956
					c0-14.864,12.096-26.958,26.957-26.958c14.866,0,26.955,12.093,26.955,26.958C240.59,292.789,228.501,304.883,213.635,304.883z
					 M307.984,304.883c-14.861,0-26.957-12.093-26.957-26.956c0-14.864,12.096-26.958,26.957-26.958
					c14.865,0,26.955,12.093,26.955,26.958C334.939,292.789,322.85,304.883,307.984,304.883z"/>
			</g>
		</g>
		<g style="clip-path:url(#SVGID_2_);">
			<path style="fill:#FFFFFF;" d="M281.996,318.292c-11.174,10.52-30.342,10.52-41.518,0c-7.879-7.418-19.781,4.44-11.879,11.88
				c17.939,16.887,47.338,16.887,65.275,0C301.779,322.732,289.877,310.874,281.996,318.292L281.996,318.292z"/>
		</g>
		<g style="clip-path:url(#SVGID_2_);">
			<g>
				<path style="fill:#966796;" d="M308.966,121.544c-3.559-15.32-14.122-20.202-23.475-10.848l-24.737,24.737
					c-9.353,9.353-4.472,19.916,10.849,23.475l20.814,4.835c15.318,3.558,24.942-6.066,21.384-21.384L308.966,121.544z"/>
				<path style="fill:#966796;" d="M350.397,162.976c15.32,3.558,20.203,14.123,10.849,23.476l-24.737,24.737
					c-9.353,9.353-19.918,4.471-23.476-10.85l-4.834-20.813c-3.56-15.32,6.064-24.944,21.384-21.384L350.397,162.976z"/>
			</g>
			<path style="fill:#B08DB0;" d="M322.595,172.537c-6.404,6.404-16.787,6.405-23.191,0.001c-6.404-6.404-6.403-16.787,0-23.191
				c6.404-6.404,16.786-6.404,23.19,0C328.999,155.751,328.999,166.133,322.595,172.537z"/>
		</g>
	</g>
</g>
</svg>
