<?xml version="1.0" encoding="iso-8859-1"?>
<!-- Generator: Adobe Illustrator 22.0.1, SVG Export Plug-In . SVG Version: 6.00 Build 0)  -->
<svg version="1.1" id="Layer_7" xmlns="http://www.w3.org/2000/svg" xmlns:xlink="http://www.w3.org/1999/xlink" x="0px" y="0px"
	 viewBox="0 0 512 512" style="enable-background:new 0 0 512 512;" xml:space="preserve">
<g>
	<path style="fill:#3D2A3D;" d="M512,256.003C512,397.393,397.387,512,255.998,512C114.613,512,0,397.393,0,256.003
		C0,114.612,114.613,0,255.998,0C397.387,0,512,114.612,512,256.003z"/>
	<g>
		<g>
			<defs>
				<path id="SVGID_55_" d="M0,255.996C0,114.607,114.613,0,256.002,0C397.387,0,512,114.607,512,255.996
					C512,397.389,397.387,512,256.002,512C114.613,512,0,397.389,0,255.996z"/>
			</defs>
			<clipPath id="SVGID_2_">
				<use xlink:href="#SVGID_55_"  style="overflow:visible;"/>
			</clipPath>
			<g style="clip-path:url(#SVGID_2_);">
				<g>
					<g>
						<path style="fill:#EBAB2E;" d="M105.946,266.438c14.542-17.856,41.24-29.28,61.593-38.617
							c11.102-5.095,36.281-12.522,48.031-6.633c17.065,8.557-20.321,22.112-25.247,24.606
							c-21.467,10.852-32.358,34.823-34.484,58.384c-2.307,25.525,6.547,45.515,24.227,64.041
							c-21.553,10.912-49.488,11.061-69.715-5.336C82.749,340.513,80.773,297.34,105.946,266.438z"/>
					</g>
					<g>
						<path style="fill:#EBAB2E;" d="M412.34,266.438c-14.542-17.856-41.24-29.28-61.593-38.617
							c-11.102-5.095-36.281-12.522-48.031-6.633c-17.065,8.557,20.321,22.112,25.247,24.606
							c21.467,10.852,32.358,34.823,34.484,58.384c2.307,25.525-6.547,45.515-24.227,64.041
							c21.553,10.912,49.488,11.061,69.716-5.336C435.537,340.513,437.512,297.34,412.34,266.438z"/>
					</g>
				</g>
				<g>
					<path style="fill:#F0B39C;" d="M196.07,265.974c6.561,15.537,2.988,30.638-7.979,33.73
						c-10.969,3.092-25.174-6.997-31.734-22.532c-6.561-15.537-2.988-30.639,7.979-33.73S189.511,250.439,196.07,265.974z"/>
					<path style="fill:#F0B39C;" d="M329.615,265.974c-6.56,15.537-2.986,30.638,7.981,33.73
						c10.967,3.092,25.174-6.997,31.732-22.532c6.562-15.537,2.99-30.639-7.979-33.73
						C350.384,240.349,336.175,250.439,329.615,265.974z"/>
				</g>
				<ellipse style="fill:#FFC34A;" cx="262.843" cy="191.577" rx="115" ry="105.272"/>
				<path style="fill:#F0B39C;" d="M448.445,545.884l-0.053-0.842c0-51.205-19.168-100.816-42.572-110.264l-99.68-40.158
					c-23.406-9.439-61.737-9.477-85.148-0.112l-101.106,40.396c-23.425,9.378-42.593,58.933-42.593,110.138l-0.052,0.842H448.445z"
					/>
				<path style="fill:#F0B39C;" d="M305.055,397.085c0,21.981-17.818,39.8-39.799,39.8h-4.826c-21.98,0-39.799-17.818-39.799-39.8
					V294.57c0-21.98,17.818-39.8,39.799-39.8h4.826c21.98,0,39.799,17.819,39.799,39.8V397.085z"/>
				<g>
					<path style="fill:#FFDEC2;" d="M357.623,272.125c0,54.088-42.414,97.85-94.766,97.85l0,0c-52.379,0-94.794-43.762-94.794-97.85
						v-56.403c0-54.004,42.415-97.837,94.794-97.837l0,0c52.352,0,94.766,43.833,94.766,97.837V272.125z"/>
				</g>
				<g>
					<circle style="fill:#572020;" cx="230.002" cy="275.449" r="9.904"/>
					<circle style="fill:#572020;" cx="295.684" cy="275.449" r="9.904"/>
				</g>
				<g>
					<g>
						<path style="fill:#FFC34A;" d="M262.844,115.709c-55.532,0-100.55,48.792-100.55,108.984c0,19.989,4.969,38.717,13.635,54.824
							l9.989-84.724l153.834-0.007l10.008,84.729c8.664-16.105,13.633-34.833,13.633-54.822
							C363.392,164.501,318.375,115.709,262.844,115.709z"/>
					</g>
				</g>
				<path style="fill:#F0B39C;" d="M277.016,279.542c-0.449,7.895-7.047,14.157-15.202,14.157c-6.908,0-12.678-4.519-14.576-10.712
					c-0.424,1.452-0.732,2.963-0.732,4.546c0,9.028,7.327,16.353,16.339,16.353c9.035,0,16.335-7.325,16.335-16.353
					C279.18,284.607,278.361,281.915,277.016,279.542z"/>
				<path style="fill:#EB7FA8;" d="M448.392,545.043c0-51.205-19.168-100.816-42.572-110.264l-79.255-31.93
					c-11.019,24.201-35.397,41.035-63.722,41.035c-28.194,0-52.479-16.678-63.57-40.698l-79.387,31.719
					c-23.425,9.378-42.593,58.933-42.593,110.138l-0.052,0.842h371.204L448.392,545.043z"/>
				<path style="fill:#FFC34A;" d="M150,190.008c7.475,11.572,18.558,20.959,32.417,26.243l92.344,35.212
					c34.623,13.202,73.393-4.162,86.595-38.785l8.645-22.67H150z"/>
				<g>
					<g>
						<path style="fill:#DB4646;" d="M230,307.442c0.615,21.351,15.723,38.442,34.282,38.442c18.559,0,33.665-17.092,34.28-38.441
							c-9.549,4.995-21.418,7.957-34.28,7.957C251.418,315.4,239.55,312.438,230,307.442z"/>
					</g>
				</g>
			</g>
		</g>
	</g>
</g>
</svg>
