<?xml version="1.0" encoding="iso-8859-1"?>
<!-- Generator: Adobe Illustrator 22.0.1, SVG Export Plug-In . SVG Version: 6.00 Build 0)  -->
<svg version="1.1" id="Layer_7" xmlns="http://www.w3.org/2000/svg" xmlns:xlink="http://www.w3.org/1999/xlink" x="0px" y="0px"
	 viewBox="0 0 512 512" style="enable-background:new 0 0 512 512;" xml:space="preserve">
<g>
	<path style="fill:#704D70;" d="M0,255.996C0,114.607,114.613,0,256.001,0C397.387,0,512,114.607,512,255.996
		C512,397.389,397.387,512,256.001,512C114.613,512,0,397.389,0,255.996z"/>
	<g>
		<g>
			<defs>
				<path id="SVGID_79_" d="M0,255.996C0,114.607,114.613,0,256.002,0C397.387,0,512,114.607,512,255.996
					C512,397.389,397.387,512,256.002,512C114.613,512,0,397.389,0,255.996z"/>
			</defs>
			<clipPath id="SVGID_2_">
				<use xlink:href="#SVGID_79_"  style="overflow:visible;"/>
			</clipPath>
			<g style="clip-path:url(#SVGID_2_);">
				<polygon style="fill:#3D2A3D;" points="110.039,428.03 141.331,423.56 173.74,538.671 93.115,533.083 				"/>
				<g>
					<g>
						
							<ellipse transform="matrix(0.3211 -0.9471 0.9471 0.3211 -43.5283 276.3486)" style="fill:#3D2A3D;" cx="170.98" cy="168.534" rx="29.107" ry="24.949"/>
						
							<ellipse transform="matrix(0.3211 -0.9471 0.9471 0.3211 -48.5567 311.6389)" style="fill:#3D2A3D;" cx="193.08" cy="189.686" rx="29.107" ry="24.949"/>
					</g>
					<g>
						
							<ellipse transform="matrix(0.3211 -0.9471 0.9471 0.3211 -94.4899 275.3794)" style="fill:#3D2A3D;" cx="144.824" cy="203.593" rx="28.076" ry="24.065"/>
						
							<ellipse transform="matrix(0.3211 -0.9471 0.9471 0.3211 -99.34 309.4189)" style="fill:#3D2A3D;" cx="166.14" cy="223.996" rx="28.076" ry="24.065"/>
					</g>
					<g>
						
							<ellipse transform="matrix(0.3211 -0.9471 0.9471 0.3211 -146.3033 289.5007)" style="fill:#3D2A3D;" cx="128.766" cy="246.792" rx="27.044" ry="23.18"/>
						
							<ellipse transform="matrix(0.3211 -0.9471 0.9471 0.3211 -150.9752 322.2892)" style="fill:#3D2A3D;" cx="149.299" cy="266.445" rx="27.044" ry="23.18"/>
					</g>
					<g>
						
							<ellipse transform="matrix(0.3211 -0.9471 0.9471 0.3211 -195.8055 313.3016)" style="fill:#3D2A3D;" cx="120.615" cy="293.219" rx="26.012" ry="22.296"/>
						
							<ellipse transform="matrix(0.3211 -0.9471 0.9471 0.3211 -200.2991 344.8393)" style="fill:#3D2A3D;" cx="140.365" cy="312.122" rx="26.012" ry="22.296"/>
					</g>
					<g>
						
							<ellipse transform="matrix(0.3211 -0.9471 0.9471 0.3211 -239.8332 341.3714)" style="fill:#3D2A3D;" cx="118.179" cy="337.962" rx="24.98" ry="21.412"/>
						
							<ellipse transform="matrix(0.3211 -0.9471 0.9471 0.3211 -244.1486 371.6581)" style="fill:#3D2A3D;" cx="137.146" cy="356.115" rx="24.98" ry="21.412"/>
					</g>
					<g>
						
							<ellipse transform="matrix(0.3211 -0.9471 0.9471 0.3211 -275.2233 368.299)" style="fill:#3D2A3D;" cx="119.266" cy="376.109" rx="23.949" ry="20.527"/>
						
							<ellipse transform="matrix(0.3211 -0.9471 0.9471 0.3211 -279.3605 397.3349)" style="fill:#3D2A3D;" cx="137.449" cy="393.513" rx="23.949" ry="20.527"/>
					</g>
					<g>
						
							<ellipse transform="matrix(0.3211 -0.9471 0.9471 0.3211 -298.8127 388.6738)" style="fill:#3D2A3D;" cx="121.682" cy="402.749" rx="22.917" ry="19.643"/>
						
							<ellipse transform="matrix(0.3211 -0.9471 0.9471 0.3211 -302.7716 416.4587)" style="fill:#3D2A3D;" cx="139.081" cy="419.403" rx="22.917" ry="19.643"/>
					</g>
					<g>
						
							<ellipse transform="matrix(0.3211 -0.9471 0.9471 0.3211 -307.4381 397.0847)" style="fill:#3D2A3D;" cx="123.235" cy="412.971" rx="21.885" ry="18.759"/>
						
							<ellipse transform="matrix(0.3211 -0.9471 0.9471 0.3211 -311.2188 423.6188)" style="fill:#3D2A3D;" cx="139.852" cy="428.875" rx="21.885" ry="18.759"/>
					</g>
				</g>
			</g>
			<g style="clip-path:url(#SVGID_2_);">
				<path style="fill:#E38A5B;" d="M186.411,238.691c7.2,17.052,3.28,33.624-8.756,37.017c-12.038,3.393-27.628-7.679-34.828-24.728
					c-7.2-17.052-3.28-33.625,8.756-37.018S179.213,221.642,186.411,238.691z"/>
				<path style="fill:#E38A5B;" d="M332.973,238.691c-7.2,17.052-3.277,33.624,8.758,37.017
					c12.036,3.393,27.628-7.679,34.825-24.728c7.202-17.052,3.282-33.625-8.756-37.018
					C355.767,210.568,340.173,221.642,332.973,238.691z"/>
			</g>
			<path style="clip-path:url(#SVGID_2_);fill:#E38A5B;" d="M463.386,545.884l-0.058-0.924c0-56.196-21.036-110.643-46.722-121.011
				l-109.396-44.072c-25.688-10.359-67.755-10.4-93.448-0.123l-110.961,44.334c-25.708,10.292-46.744,64.677-46.744,120.873
				L56,545.884H463.386z"/>
			<path style="clip-path:url(#SVGID_2_);fill:#E38A5B;" d="M306.019,382.581c0,24.124-19.555,43.679-43.678,43.679h-5.297
				c-24.123,0-43.678-19.555-43.678-43.679V270.074c0-24.123,19.555-43.679,43.678-43.679h5.297
				c24.123,0,43.678,19.556,43.678,43.679V382.581z"/>
			<g style="clip-path:url(#SVGID_2_);">
				<g>
					<path style="fill:#F5B68C;" d="M353.695,246.162c0,51.916-42.086,94.002-94.002,94.002h0
						c-51.916,0-94.002-42.086-94.002-94.002v-78.188c0-51.916,42.086-94.002,94.002-94.002h0.001
						c51.916,0,94.002,42.086,94.002,94.002V246.162z"/>
				</g>
			</g>
			<g style="clip-path:url(#SVGID_2_);">
				<circle style="fill:#3D2A3D;" cx="223.651" cy="238.697" r="10.87"/>
				<circle style="fill:#3D2A3D;" cx="295.735" cy="238.697" r="10.87"/>
			</g>
			<g style="clip-path:url(#SVGID_2_);">
				<path style="fill:#3D2A3D;" d="M259.693,69.792c-60.945,0-110.351,53.548-110.351,119.607c0,21.938,5.453,42.491,14.964,60.168
					l3.618-30.684c4.189-35.527,34.301-62.299,70.074-62.3l43.378-0.002c35.77-0.002,65.883,26.762,70.079,62.286l3.626,30.699
					c9.509-17.675,14.962-38.228,14.962-60.166C370.043,123.34,320.637,69.792,259.693,69.792z"/>
			</g>
			<path style="clip-path:url(#SVGID_2_);fill:#E38A5B;" d="M275.248,253.581c-0.493,8.664-7.734,15.537-16.683,15.537
				c-7.581,0-13.913-4.959-15.997-11.757c-0.466,1.594-0.803,3.252-0.803,4.989c0,9.908,8.042,17.946,17.932,17.946
				c9.916,0,17.927-8.039,17.927-17.946C277.622,259.14,276.724,256.185,275.248,253.581z"/>
			<path style="clip-path:url(#SVGID_2_);fill:#FFC34A;" d="M463.328,544.961c0-56.196-21.036-110.643-46.722-121.011l-86.98-35.042
				c-12.093,26.56-38.847,45.035-69.934,45.035c-30.943,0-57.595-18.303-69.766-44.665l-87.125,34.81
				c-25.708,10.292-46.744,64.677-46.744,120.873L56,545.884h407.386L463.328,544.961z"/>
			<g style="clip-path:url(#SVGID_2_);">
				<ellipse style="fill:#EB987F;" cx="320.054" cy="266.029" rx="21.949" ry="16.462"/>
				<ellipse style="fill:#EB987F;" cx="199.332" cy="266.029" rx="21.949" ry="16.462"/>
			</g>
			<g style="clip-path:url(#SVGID_2_);">
				<path style="fill:#FFFFFF;" d="M284.07,289.587c-12.263,11.545-33.299,11.545-45.564,0c-8.647-8.141-21.709,4.873-13.037,13.038
					c19.688,18.533,51.952,18.533,71.638,0C305.782,294.46,292.719,281.446,284.07,289.587L284.07,289.587z"/>
			</g>
			<g style="clip-path:url(#SVGID_2_);">
				<g>
					<path style="fill:#735A73;" d="M208.283,221.286c5.69-6.259,13.699-9.05,22.034-9.183c4.145-0.066,4.152-6.5,0-6.435
						c-9.947,0.158-19.784,3.588-26.585,11.067C200.949,219.798,205.486,224.363,208.283,221.286L208.283,221.286z"/>
				</g>
				<g>
					<path style="fill:#735A73;" d="M311.738,216.736c-6.8-7.479-16.638-10.909-26.583-11.067c-4.151-0.066-4.146,6.369,0,6.435
						c8.334,0.133,16.342,2.923,22.033,9.183C309.984,224.363,314.522,219.798,311.738,216.736L311.738,216.736z"/>
				</g>
			</g>
		</g>
	</g>
</g>
</svg>
