<?xml version="1.0" encoding="iso-8859-1"?>
<!-- Generator: Adobe Illustrator 22.0.1, SVG Export Plug-In . SVG Version: 6.00 Build 0)  -->
<svg version="1.1" id="Layer_7" xmlns="http://www.w3.org/2000/svg" xmlns:xlink="http://www.w3.org/1999/xlink" x="0px" y="0px"
	 viewBox="0 0 512 512" style="enable-background:new 0 0 512 512;" xml:space="preserve">
<g>
	<path style="fill:#C85380;" d="M512,256.002C512,397.392,397.387,512,255.998,512C114.614,512,0,397.392,0,256.002
		C0,114.612,114.614,0,255.998,0C397.387,0,512,114.612,512,256.002z"/>
	<g>
		<defs>
			<path id="SVGID_15_" d="M0,255.996C0,114.607,114.613,0,256.002,0C397.387,0,512,114.607,512,255.996
				C512,397.389,397.387,512,256.002,512C114.613,512,0,397.389,0,255.996z"/>
		</defs>
		<clipPath id="SVGID_2_">
			<use xlink:href="#SVGID_15_"  style="overflow:visible;"/>
		</clipPath>
		<g style="clip-path:url(#SVGID_2_);">
			<g>
				<path style="fill:#F0B39C;" d="M190.598,265.974c6.561,15.537,2.988,30.638-7.979,33.73
					c-10.969,3.092-25.174-6.997-31.734-22.532c-6.561-15.537-2.988-30.639,7.979-33.73S184.039,250.439,190.598,265.974z"/>
				<path style="fill:#F0B39C;" d="M324.143,265.974c-6.56,15.537-2.986,30.638,7.98,33.73c10.967,3.092,25.174-6.997,31.732-22.532
					c6.562-15.537,2.99-30.639-7.978-33.73C344.912,240.349,330.703,250.439,324.143,265.974z"/>
			</g>
			<ellipse style="fill:#F7A848;" cx="257.371" cy="198.367" rx="107.583" ry="98.482"/>
			<path style="fill:#F0B39C;" d="M441.602,545.884l-0.053-0.842c0-51.205-19.168-100.816-42.572-110.264l-99.68-40.158
				c-23.406-9.439-61.737-9.477-85.148-0.112l-101.107,40.396c-23.425,9.378-42.593,58.933-42.593,110.138l-0.052,0.842H441.602z"/>
			<path style="fill:#F0B39C;" d="M299.583,397.085c0,21.981-17.818,39.8-39.799,39.8h-4.826c-21.98,0-39.799-17.818-39.799-39.8
				V294.57c0-21.98,17.818-39.8,39.799-39.8h4.826c21.98,0,39.799,17.819,39.799,39.8V397.085z"/>
			<g>
				<path style="fill:#FFDBC5;" d="M352.151,272.125c0,54.088-42.414,97.85-94.766,97.85l0,0c-52.379,0-94.794-43.762-94.794-97.85
					v-56.403c0-54.004,42.415-97.837,94.794-97.837l0,0c52.352,0,94.766,43.833,94.766,97.837V272.125z"/>
			</g>
			<g>
				<circle style="fill:#2961A5;" cx="224.53" cy="275.449" r="9.904"/>
				<circle style="fill:#2961A5;" cx="290.212" cy="275.449" r="9.904"/>
			</g>
			<g>
				<path style="fill:#F7A848;" d="M257.371,115.709c-55.532,0-100.55,48.792-100.55,108.984c0,19.989,4.969,38.717,13.635,54.824
					l9.989-84.724l153.834-0.007l10.008,84.729c8.664-16.105,13.633-34.833,13.633-54.822
					C357.92,164.501,312.903,115.709,257.371,115.709z"/>
			</g>
			<g>
				<path style="fill:#FFFFFF;" d="M278.129,311.34c-11.174,10.52-30.342,10.52-41.518,0c-7.879-7.418-19.781,4.44-11.879,11.88
					c17.939,16.887,47.338,16.887,65.275,0C297.912,315.78,286.01,303.922,278.129,311.34L278.129,311.34z"/>
			</g>
			<path style="fill:#F0B39C;" d="M275.139,279.542c-0.449,7.895-7.047,14.157-15.202,14.157c-6.908,0-12.678-4.519-14.576-10.712
				c-0.424,1.452-0.732,2.963-0.732,4.546c0,9.028,7.327,16.353,16.339,16.353c9.035,0,16.335-7.325,16.335-16.353
				C277.303,284.607,276.484,281.915,275.139,279.542z"/>
		</g>
		<path style="clip-path:url(#SVGID_2_);fill:#78BEDE;" d="M441.549,545.043c0-51.205-19.168-100.816-42.572-110.264l-79.255-31.93
			c-11.019,24.201-35.397,41.035-63.722,41.035c-28.194,0-52.479-16.678-63.57-40.698l-79.387,31.719
			c-23.425,9.378-42.593,58.933-42.593,110.138l-0.052,0.842h371.204L441.549,545.043z"/>
		<path style="clip-path:url(#SVGID_2_);fill:#FFC34A;" d="M255.681,151.451c-45.196,0-82.777,36.855-90.521,85.435
			c23.364,11.641,57.735,18.998,96.061,18.998c32.958,0,62.993-5.44,85.618-14.366C340.815,190.669,302.301,151.451,255.681,151.451
			z"/>
		<g style="clip-path:url(#SVGID_2_);">
			<g>
				<circle style="fill:#FFC34A;" cx="361.177" cy="105.078" r="42.577"/>
				<path style="fill:#FFFFFF;" d="M358.742,152.672l-0.79,0.79c-3.385,3.385-8.872,3.385-12.257,0l-32.903-32.903
					c-3.385-3.385-3.385-8.872,0-12.257l0.79-0.79c3.385-3.385,8.872-3.385,12.257,0l32.903,32.903
					C362.127,143.8,362.127,149.287,358.742,152.672z"/>
			</g>
			<g>
				<circle style="fill:#FFC34A;" cx="150.823" cy="105.078" r="42.577"/>
				<path style="fill:#FFFFFF;" d="M198.417,107.513l0.79,0.79c3.385,3.385,3.385,8.872,0,12.257l-32.903,32.903
					c-3.385,3.385-8.872,3.385-12.257,0l-0.79-0.79c-3.385-3.385-3.385-8.872,0-12.257l32.903-32.903
					C189.545,104.128,195.033,104.128,198.417,107.513z"/>
			</g>
		</g>
	</g>
</g>
</svg>
