<?xml version="1.0" encoding="iso-8859-1"?>
<!-- Generator: Adobe Illustrator 22.0.1, SVG Export Plug-In . SVG Version: 6.00 Build 0)  -->
<svg version="1.1" id="Layer_7" xmlns="http://www.w3.org/2000/svg" xmlns:xlink="http://www.w3.org/1999/xlink" x="0px" y="0px"
	 viewBox="0 0 512 512" style="enable-background:new 0 0 512 512;" xml:space="preserve">
<g>
	<path style="fill:#DB4646;" d="M0,255.996C0,114.607,114.613,0,256.001,0C397.387,0,512,114.607,512,255.996
		C512,397.389,397.387,512,256.001,512C114.613,512,0,397.389,0,255.996z"/>
	<g>
		<defs>
			<path id="SVGID_67_" d="M0,255.996C0,114.607,114.613,0,256.002,0C397.387,0,512,114.607,512,255.996
				C512,397.389,397.387,512,256.002,512C114.613,512,0,397.389,0,255.996z"/>
		</defs>
		<clipPath id="SVGID_2_">
			<use xlink:href="#SVGID_67_"  style="overflow:visible;"/>
		</clipPath>
		<g style="clip-path:url(#SVGID_2_);">
			<g>
				<polygon style="fill:#2B1D2B;" points="97.946,320.538 118.218,322.359 121.528,399.289 71.823,383.879 				"/>
				<g>
					<g>
						
							<ellipse transform="matrix(0.5297 -0.8482 0.8482 0.5297 -59.5172 226.4612)" style="fill:#2B1D2B;" cx="174.465" cy="166.904" rx="18.742" ry="16.065"/>
						
							<ellipse transform="matrix(0.5297 -0.8482 0.8482 0.5297 -68.4852 243.3281)" style="fill:#2B1D2B;" cx="185.192" cy="183.424" rx="18.742" ry="16.065"/>
					</g>
					<g>
						
							<ellipse transform="matrix(0.5297 -0.8482 0.8482 0.5297 -85.0213 216.6816)" style="fill:#2B1D2B;" cx="152.894" cy="185.013" rx="18.078" ry="15.495"/>
						
							<ellipse transform="matrix(0.5297 -0.8482 0.8482 0.5297 -93.6714 232.9506)" style="fill:#2B1D2B;" cx="163.24" cy="200.949" rx="18.078" ry="15.495"/>
					</g>
					<g>
						
							<ellipse transform="matrix(0.5297 -0.8482 0.8482 0.5297 -113.7059 214.3511)" style="fill:#2B1D2B;" cx="136.45" cy="209.716" rx="17.414" ry="14.926"/>
						
							<ellipse transform="matrix(0.5297 -0.8482 0.8482 0.5297 -122.0381 230.0223)" style="fill:#2B1D2B;" cx="146.416" cy="225.066" rx="17.414" ry="14.926"/>
					</g>
					<g>
						
							<ellipse transform="matrix(0.5297 -0.8482 0.8482 0.5297 -142.9906 217.3198)" style="fill:#2B1D2B;" cx="124.485" cy="237.61" rx="16.749" ry="14.356"/>
						
							<ellipse transform="matrix(0.5297 -0.8482 0.8482 0.5297 -151.005 232.3931)" style="fill:#2B1D2B;" cx="134.071" cy="252.374" rx="16.749" ry="14.356"/>
					</g>
					<g>
						
							<ellipse transform="matrix(0.5297 -0.8482 0.8482 0.5297 -170.2949 223.4378)" style="fill:#2B1D2B;" cx="116.35" cy="265.292" rx="16.085" ry="13.787"/>
						
							<ellipse transform="matrix(0.5297 -0.8482 0.8482 0.5297 -177.9913 237.9132)" style="fill:#2B1D2B;" cx="125.556" cy="279.47" rx="16.085" ry="13.787"/>
					</g>
					<g>
						
							<ellipse transform="matrix(0.5297 -0.8482 0.8482 0.5297 -193.0382 230.555)" style="fill:#2B1D2B;" cx="111.397" cy="289.36" rx="15.421" ry="13.218"/>
						
							<ellipse transform="matrix(0.5297 -0.8482 0.8482 0.5297 -200.4168 244.4326)" style="fill:#2B1D2B;" cx="120.222" cy="302.953" rx="15.421" ry="13.218"/>
					</g>
					<g>
						
							<ellipse transform="matrix(0.5297 -0.8482 0.8482 0.5297 -208.6402 236.5215)" style="fill:#2B1D2B;" cx="108.976" cy="306.414" rx="14.756" ry="12.648"/>
						
							<ellipse transform="matrix(0.5297 -0.8482 0.8482 0.5297 -215.7009 249.8013)" style="fill:#2B1D2B;" cx="117.422" cy="319.421" rx="14.756" ry="12.648"/>
					</g>
					<g>
						
							<ellipse transform="matrix(0.5297 -0.8482 0.8482 0.5297 -214.5202 239.1875)" style="fill:#2B1D2B;" cx="108.44" cy="313.049" rx="14.092" ry="12.079"/>
						
							<ellipse transform="matrix(0.5297 -0.8482 0.8482 0.5297 -221.2631 251.8693)" style="fill:#2B1D2B;" cx="116.505" cy="325.471" rx="14.092" ry="12.079"/>
					</g>
				</g>
				<g>
					<g>
						<g>
							<path style="fill:#FCEEB3;" d="M100.549,308.2c-5.802-7.085-12.575-6.916-15.052,0.377l-6.552,19.286
								c-2.477,7.292,2.79,11.553,11.708,9.468l12.115-2.832c8.916-2.085,11.465-9.588,5.664-16.672L100.549,308.2z"/>
						</g>
						<g>
							<path style="fill:#FCEEB3;" d="M132.851,319.174c8.916-2.085,14.186,2.176,11.708,9.468l-6.552,19.286
								c-2.477,7.292-9.252,7.461-15.053,0.376l-7.882-9.626c-5.802-7.085-3.253-14.588,5.664-16.672L132.851,319.174z"/>
						</g>
					</g>
					<path style="fill:#FFFFFF;" d="M120.792,331.323c-1.696,4.993-7.118,7.665-12.111,5.969c-4.993-1.696-7.665-7.119-5.969-12.112
						c1.696-4.993,7.118-7.665,12.111-5.969C119.816,320.908,122.488,326.33,120.792,331.323z"/>
				</g>
			</g>
			<g>
				<polygon style="fill:#2B1D2B;" points="413.756,322.963 393.402,322.963 383.225,399.289 434.11,388.385 				"/>
				<g>
					<g>
						
							<ellipse transform="matrix(0.8921 -0.4518 0.4518 0.8921 -35.7928 176.2945)" style="fill:#2B1D2B;" cx="351.281" cy="163.101" rx="16.065" ry="18.742"/>
						
							<ellipse transform="matrix(0.8921 -0.4518 0.4518 0.8921 -44.1051 172.4719)" style="fill:#2B1D2B;" cx="339.12" cy="178.596" rx="16.065" ry="18.742"/>
					</g>
					<g>
						
							<ellipse transform="matrix(0.8921 -0.4518 0.4518 0.8921 -42.6702 187.4231)" style="fill:#2B1D2B;" cx="371.147" cy="183.067" rx="15.495" ry="18.078"/>
						
							<ellipse transform="matrix(0.8921 -0.4518 0.4518 0.8921 -50.6879 183.736)" style="fill:#2B1D2B;" cx="359.417" cy="198.013" rx="15.495" ry="18.078"/>
					</g>
					<g>
						
							<ellipse transform="matrix(0.8921 -0.4518 0.4518 0.8921 -52.9215 196.6369)" style="fill:#2B1D2B;" cx="385.316" cy="209.141" rx="14.926" ry="17.414"/>
						
							<ellipse transform="matrix(0.8921 -0.4518 0.4518 0.8921 -60.6446 193.0853)" style="fill:#2B1D2B;" cx="374.017" cy="223.538" rx="14.926" ry="17.414"/>
					</g>
					<g>
						
							<ellipse transform="matrix(0.8921 -0.4518 0.4518 0.8921 -64.9396 204.0062)" style="fill:#2B1D2B;" cx="394.739" cy="237.993" rx="14.356" ry="16.749"/>
						
							<ellipse transform="matrix(0.8921 -0.4518 0.4518 0.8921 -72.368 200.5901)" style="fill:#2B1D2B;" cx="383.871" cy="251.841" rx="14.356" ry="16.749"/>
					</g>
					<g>
						
							<ellipse transform="matrix(0.8921 -0.4518 0.4518 0.8921 -77.1173 209.6009)" style="fill:#2B1D2B;" cx="400.366" cy="266.292" rx="13.787" ry="16.085"/>
						
							<ellipse transform="matrix(0.8921 -0.4518 0.4518 0.8921 -84.2511 206.3202)" style="fill:#2B1D2B;" cx="389.929" cy="279.59" rx="13.787" ry="16.085"/>
					</g>
					<g>
						
							<ellipse transform="matrix(0.8921 -0.4518 0.4518 0.8921 -87.8476 213.491)" style="fill:#2B1D2B;" cx="403.147" cy="290.707" rx="13.218" ry="15.421"/>
						
							<ellipse transform="matrix(0.8921 -0.4518 0.4518 0.8921 -94.6867 210.3459)" style="fill:#2B1D2B;" cx="393.141" cy="303.456" rx="13.218" ry="15.421"/>
					</g>
					<g>
						
							<ellipse transform="matrix(0.8921 -0.4518 0.4518 0.8921 -95.5232 215.7466)" style="fill:#2B1D2B;" cx="404.032" cy="307.908" rx="12.648" ry="14.756"/>
						
							<ellipse transform="matrix(0.8921 -0.4518 0.4518 0.8921 -102.0677 212.737)" style="fill:#2B1D2B;" cx="394.458" cy="320.108" rx="12.648" ry="14.756"/>
					</g>
					<g>
						
							<ellipse transform="matrix(0.8921 -0.4518 0.4518 0.8921 -98.5371 216.4377)" style="fill:#2B1D2B;" cx="403.973" cy="314.565" rx="12.079" ry="14.092"/>
						
							<ellipse transform="matrix(0.8921 -0.4518 0.4518 0.8921 -104.7869 213.5636)" style="fill:#2B1D2B;" cx="394.829" cy="326.216" rx="12.079" ry="14.092"/>
					</g>
				</g>
				<g>
					<g>
						<g>
							<path style="fill:#FCEEB3;" d="M412.266,310.441c6.412-6.538,13.143-5.764,14.958,1.721l4.801,19.794
								c1.815,7.485-3.812,11.257-12.507,8.383l-11.813-3.904c-8.693-2.874-10.561-10.575-4.15-17.112L412.266,310.441z"/>
						</g>
						<g>
							<path style="fill:#FCEEB3;" d="M379.113,318.482c-8.694-2.874-14.324,0.898-12.508,8.383l4.801,19.794
								c1.815,7.485,8.547,8.259,14.959,1.721l8.711-8.882c6.412-6.538,4.544-14.239-4.151-17.112L379.113,318.482z"/>
						</g>
					</g>
					<path style="fill:#FFFFFF;" d="M390.037,331.661c1.243,5.124,6.404,8.271,11.529,7.028c5.125-1.243,8.271-6.405,7.028-11.529
						c-1.243-5.125-6.404-8.271-11.529-7.028C391.94,321.375,388.794,326.537,390.037,331.661z"/>
				</g>
			</g>
		</g>
		<g style="clip-path:url(#SVGID_2_);">
			<path style="fill:#E38A5B;" d="M197.011,265.974c6.561,15.537,2.988,30.638-7.979,33.73
				c-10.969,3.092-25.174-6.997-31.734-22.532c-6.561-15.537-2.988-30.639,7.979-33.73S190.452,250.439,197.011,265.974z"/>
			<path style="fill:#E38A5B;" d="M330.556,265.974c-6.56,15.537-2.986,30.638,7.98,33.73c10.967,3.092,25.174-6.997,31.732-22.532
				c6.562-15.537,2.99-30.639-7.978-33.73C351.325,240.349,337.116,250.439,330.556,265.974z"/>
		</g>
		<path style="clip-path:url(#SVGID_2_);fill:#E38A5B;" d="M449.386,545.884l-0.053-0.842c0-51.205-19.168-100.816-42.572-110.264
			l-99.68-40.158c-23.406-9.439-61.737-9.477-85.148-0.112l-101.106,40.396c-23.425,9.378-42.593,58.933-42.593,110.138
			l-0.052,0.842H449.386z"/>
		<path style="clip-path:url(#SVGID_2_);fill:#E38A5B;" d="M305.996,397.085c0,21.981-17.818,39.8-39.799,39.8h-4.826
			c-21.981,0-39.799-17.818-39.799-39.8V294.57c0-21.98,17.818-39.8,39.799-39.8h4.826c21.98,0,39.799,17.819,39.799,39.8V397.085z"
			/>
		<g style="clip-path:url(#SVGID_2_);">
			<g>
				<path style="fill:#F5B68C;" d="M349.437,291.733c0,36.842-29.862,66.702-66.704,66.702h-37.904
					c-36.837,0-66.699-29.86-66.699-66.702V182.586c0-36.837,29.862-66.702,66.699-66.702h37.904
					c36.842,0,66.704,29.865,66.704,66.702V291.733z"/>
			</g>
		</g>
		<g style="clip-path:url(#SVGID_2_);">
			<circle style="fill:#318251;" cx="230.942" cy="265.98" r="9.904"/>
			<circle style="fill:#318251;" cx="296.625" cy="265.98" r="9.904"/>
		</g>
		<g style="clip-path:url(#SVGID_2_);">
			<path style="fill:#2B1D2B;" d="M263.784,102.076c-55.532,0-100.55,48.792-100.55,108.984c0,19.989,4.969,38.717,13.635,54.824
				l9.989-84.724l153.834-0.007l10.008,84.729c8.664-16.105,13.633-34.833,13.633-54.822
				C364.333,150.868,319.316,102.076,263.784,102.076z"/>
		</g>
		<path style="clip-path:url(#SVGID_2_);fill:#E38A5B;" d="M277.957,279.542c-0.449,7.895-7.047,14.157-15.202,14.157
			c-6.908,0-12.678-4.519-14.576-10.712c-0.424,1.452-0.732,2.963-0.732,4.546c0,9.028,7.327,16.353,16.339,16.353
			c9.035,0,16.335-7.325,16.335-16.353C280.121,284.607,279.302,281.915,277.957,279.542z"/>
		<path style="clip-path:url(#SVGID_2_);fill:#FCF2C8;" d="M449.333,545.043c0-51.205-19.168-100.816-42.572-110.264l-79.255-31.93
			c-11.019,24.201-35.397,41.035-63.722,41.035c-28.194,0-52.479-16.678-63.57-40.698l-79.387,31.719
			c-23.425,9.378-42.593,58.933-42.593,110.138l-0.052,0.842h371.204L449.333,545.043z"/>
		<g style="clip-path:url(#SVGID_2_);">
			<path style="fill:#2B1D2B;" d="M282.133,142.02l-7.488-25.441l-105.541,76.844v52.068l65.935-16.329
				C272.484,219.889,293.569,180.874,282.133,142.02z"/>
			<path style="fill:#2B1D2B;" d="M358.464,222.137c-0.062-25.259-7.878-49.682-17.285-73.656
				c-4.714-1.676-9.787-2.596-15.076-2.596c-24.853,0-45,20.147-45,45s20.147,45,45,45
				C338.812,235.884,350.281,230.608,358.464,222.137z"/>
		</g>
		<g style="clip-path:url(#SVGID_2_);">
			<g>
				<path style="fill:#A91935;" d="M229.409,310.902c0,0.186-0.011,0.395-0.011,0.592c0,18.991,15.405,34.39,34.384,34.39
					c18.983,0,34.388-15.399,34.388-34.39c0-0.197-0.015-0.407-0.023-0.592H229.409z"/>
				<path style="fill:#FFFFFF;" d="M240.326,310.902v2.943c0,5.974,4.833,10.806,10.797,10.806h35.376
					c5.972,0,10.812-4.833,10.812-10.806v-2.943H240.326z"/>
			</g>
		</g>
		<g style="clip-path:url(#SVGID_2_);">
			<ellipse style="fill:#EB987F;" cx="318.784" cy="290.884" rx="20" ry="15"/>
			<ellipse style="fill:#EB987F;" cx="208.784" cy="290.884" rx="20" ry="15"/>
		</g>
		<g style="clip-path:url(#SVGID_2_);">
			<g>
				<path style="fill:#704D70;" d="M219.601,254.697c4.813-4.372,11.362-5.751,17.585-4.004c5.46,1.533,7.774-6.937,2.333-8.464
					c-9.305-2.611-19-0.21-26.125,6.261C209.197,252.304,215.422,258.493,219.601,254.697L219.601,254.697z"/>
			</g>
			<g>
				<path style="fill:#704D70;" d="M316.357,248.491c-7.123-6.471-16.819-8.873-26.124-6.261c-5.442,1.527-3.127,9.996,2.333,8.464
					c6.224-1.747,12.772-0.368,17.585,4.004C314.329,258.493,320.555,252.304,316.357,248.491L316.357,248.491z"/>
			</g>
		</g>
	</g>
</g>
</svg>
