<svg xmlns="http://www.w3.org/2000/svg"  viewBox="0 0 64 64" width="64px" height="64px"><path fill="#ed7899" d="M42.539,52.836c7.981-6.94,12.888-16.758,13.649-27.307l0.688-11.541 c0.069-1.099-0.764-2.047-1.863-2.12l-3.619-0.241c-6.115-0.408-11.959-2.679-16.745-6.507l-1.399-1.119 c-0.73-0.584-1.768-0.584-2.499,0l-1.399,1.119c-4.786,3.829-10.63,6.1-16.745,6.507l-3.619,0.241 c-1.099,0.073-1.932,1.021-1.863,2.12l0.688,11.541c0.761,10.549,5.668,20.367,13.649,27.307l9.226,8.023 c0.753,0.654,1.872,0.654,2.625,0L42.539,52.836z"/><path fill="#e0678f" d="M56.88,13.99l-0.69,11.54c-0.76,10.55-5.67,20.37-13.65,27.31l-9.23,8.02 c-0.37,0.32-0.84,0.49-1.31,0.49V3.56c0.44,0,0.88,0.15,1.25,0.44l1.4,1.12c4.78,3.83,10.63,6.1,16.74,6.51l3.62,0.24 C56.11,11.94,56.94,12.89,56.88,13.99z"/><path fill="#ed7899" d="M32 16A12 12 0 1 0 32 40A12 12 0 1 0 32 16Z"/><path fill="#8d6c9f" d="M22 43.438c-.553 0-1 .447-1 1v2c0 .553.447 1 1 1s1-.447 1-1v-2C23 43.886 22.553 43.438 22 43.438zM27 43.438c-.553 0-1 .447-1 1v2c0 .553.447 1 1 1s1-.447 1-1v-2C28 43.886 27.553 43.438 27 43.438zM32 43.438c-.553 0-1 .447-1 1v2c0 .553.447 1 1 1s1-.447 1-1v-2C33 43.886 32.553 43.438 32 43.438zM37 43.438c-.553 0-1 .447-1 1v2c0 .553.447 1 1 1s1-.447 1-1v-2C38 43.886 37.553 43.438 37 43.438zM42 43.438c-.553 0-1 .447-1 1v2c0 .553.447 1 1 1s1-.447 1-1v-2C43 43.886 42.553 43.438 42 43.438z"/><path fill="#8d6c9f" d="M55.079,10.309l-3.619-0.241c-5.941-0.396-11.538-2.571-16.187-6.291l-1.399-1.118 c-1.104-0.885-2.645-0.884-3.748-0.001l-1.399,1.119c-4.648,3.72-10.245,5.895-16.187,6.291l-3.619,0.241 c-1.644,0.109-2.897,1.536-2.795,3.178L6.815,25.04c0.785,10.887,5.754,20.827,13.99,27.99l9.226,8.022 c0.562,0.487,1.265,0.731,1.969,0.731s1.407-0.244,1.969-0.731l9.227-8.023c8.236-7.162,13.204-17.103,13.99-28.002l0.688-11.538 C57.977,11.845,56.723,10.418,55.079,10.309z M55.19,24.896c-0.526,7.287-3.028,14.123-7.19,19.91v-0.367c0-0.553-0.447-1-1-1 s-1,0.447-1,1v2c0,0.244,0.097,0.458,0.242,0.632c-1.323,1.58-2.774,3.071-4.359,4.449l-9.227,8.023 c-0.373,0.326-0.939,0.326-1.312,0l-9.226-8.022c-1.585-1.378-3.036-2.87-4.36-4.45C17.903,46.897,18,46.682,18,46.438v-2 c0-0.553-0.447-1-1-1s-1,0.447-1,1v0.367c-4.162-5.787-6.665-12.62-7.189-19.898L8.122,13.364c-0.034-0.548,0.384-1.023,0.932-1.06 l3.619-0.241c6.351-0.424,12.334-2.75,17.304-6.725l1.399-1.12C31.56,4.072,31.779,3.998,32,3.998c0.22,0,0.44,0.074,0.624,0.222 l1.399,1.119c4.97,3.975,10.953,6.301,17.304,6.725l3.619,0.241c0.548,0.036,0.966,0.512,0.932,1.062L55.19,24.896z"/><path fill="#8d6c9f" d="M32 8.859l2.57 1.799c2.774 1.942 5.828 3.409 9.078 4.358.53.155 1.085-.149 1.24-.68s-.149-1.085-.68-1.24c-3.039-.888-5.896-2.26-8.492-4.077l-2.569-1.798c-.686-.482-1.608-.481-2.294-.001L28.284 9.02c-4.338 3.035-9.422 4.826-14.703 5.178l-.649.044c-.551.038-.968.515-.931 1.065.036.528.476.933.997.933.022 0 .046-.001.068-.002l.648-.044c5.646-.377 11.079-2.291 15.716-5.535L32 8.859zM51.009 14.237l-.591-.04c-.76-.051-1.528-.132-2.283-.242-.549-.089-1.055.298-1.134.845-.08.546.298 1.054.845 1.134.807.118 1.627.205 2.438.26l.59.04c.022.001.046.002.068.002.521 0 .961-.404.997-.933C51.977 14.752 51.561 14.275 51.009 14.237z"/><path fill="#faefde" d="M41.707,19.293c-0.061-0.061-0.136-0.095-0.207-0.137C39.125,16.606,35.751,15,32,15 c-7.168,0-13,5.832-13,13c0,3.751,1.606,7.125,4.156,9.5c0.042,0.071,0.076,0.146,0.137,0.207c0.098,0.098,0.211,0.171,0.332,0.22 C25.889,39.841,28.81,41,32,41c7.168,0,13-5.832,13-13c0-3.19-1.159-6.111-3.073-8.375C41.878,19.504,41.805,19.391,41.707,19.293z M21,28c0-6.065,4.935-11,11-11c2.927,0,5.585,1.157,7.558,3.028L24.028,35.558C22.157,33.585,21,30.927,21,28z M32,39 c-2.418,0-4.648-0.793-6.466-2.12L40.88,21.534C42.207,23.352,43,25.582,43,28C43,34.065,38.065,39,32,39z"/></svg>