<?xml version="1.0" encoding="iso-8859-1"?>
<!-- Generator: Adobe Illustrator 22.0.1, SVG Export Plug-In . SVG Version: 6.00 Build 0)  -->
<svg version="1.1" id="Layer_7" xmlns="http://www.w3.org/2000/svg" xmlns:xlink="http://www.w3.org/1999/xlink" x="0px" y="0px"
	 viewBox="0 0 512 512" style="enable-background:new 0 0 512 512;" xml:space="preserve">
<g>
	<path style="fill:#EB7FA8;" d="M0,255.998C0,114.608,114.613,0,256.002,0C397.387,0,512,114.608,512,255.998
		C512,397.389,397.386,512,256.002,512C114.613,512,0,397.389,0,255.998z"/>
	<g>
		<defs>
			<path id="SVGID_103_" d="M0,255.996C0,114.607,114.613,0,256.002,0C397.387,0,512,114.607,512,255.996
				C512,397.389,397.387,512,256.002,512C114.613,512,0,397.389,0,255.996z"/>
		</defs>
		<clipPath id="SVGID_2_">
			<use xlink:href="#SVGID_103_"  style="overflow:visible;"/>
		</clipPath>
		<g style="clip-path:url(#SVGID_2_);">
			<g>
				<g>
					
						<ellipse transform="matrix(0.993 -0.1177 0.1177 0.993 -30.5176 44.9384)" style="fill:#3D2A3D;" cx="365.142" cy="280.799" rx="21.629" ry="18.539"/>
					
						<ellipse transform="matrix(0.993 -0.1177 0.1177 0.993 -28.3259 43.3948)" style="fill:#3D2A3D;" cx="353.171" cy="261.474" rx="21.629" ry="18.539"/>
				</g>
				<g>
					
						<ellipse transform="matrix(0.993 -0.1177 0.1177 0.993 -33.4854 43.2065)" style="fill:#3D2A3D;" cx="348.998" cy="305.055" rx="20.863" ry="17.882"/>
					
						<ellipse transform="matrix(0.993 -0.1177 0.1177 0.993 -31.3713 41.7176)" style="fill:#3D2A3D;" cx="337.451" cy="286.415" rx="20.863" ry="17.882"/>
				</g>
				<g>
					
						<ellipse transform="matrix(0.993 -0.1177 0.1177 0.993 -35.5792 40.2417)" style="fill:#3D2A3D;" cx="322.853" cy="321.296" rx="20.096" ry="17.225"/>
					
						<ellipse transform="matrix(0.993 -0.1177 0.1177 0.993 -33.5429 38.8074)" style="fill:#3D2A3D;" cx="311.731" cy="303.342" rx="20.096" ry="17.225"/>
				</g>
				<g>
					
						<ellipse transform="matrix(0.993 -0.1177 0.1177 0.993 -36.7568 36.507)" style="fill:#3D2A3D;" cx="290.651" cy="329.397" rx="19.329" ry="16.568"/>
					
						<ellipse transform="matrix(0.993 -0.1177 0.1177 0.993 -34.7981 35.1274)" style="fill:#3D2A3D;" cx="279.952" cy="312.128" rx="19.329" ry="16.568"/>
				</g>
				<g>
					
						<ellipse transform="matrix(0.993 -0.1177 0.1177 0.993 -36.9757 32.4656)" style="fill:#3D2A3D;" cx="256.332" cy="329.229" rx="18.563" ry="15.911"/>
					
						<ellipse transform="matrix(0.993 -0.1177 0.1177 0.993 -35.0947 31.1408)" style="fill:#3D2A3D;" cx="246.058" cy="312.645" rx="18.563" ry="15.911"/>
				</g>
				<g>
					
						<ellipse transform="matrix(0.993 -0.1177 0.1177 0.993 -36.1935 28.5808)" style="fill:#3D2A3D;" cx="223.838" cy="320.666" rx="17.796" ry="15.254"/>
					
						<ellipse transform="matrix(0.993 -0.1177 0.1177 0.993 -34.3902 27.3107)" style="fill:#3D2A3D;" cx="213.988" cy="304.766" rx="17.796" ry="15.254"/>
				</g>
				
					<ellipse transform="matrix(0.993 -0.1177 0.1177 0.993 -28.4104 45.9087)" style="fill:#3D2A3D;" cx="374.409" cy="263.446" rx="21.629" ry="18.539"/>
			</g>
			<g>
				<g>
					
						<ellipse transform="matrix(0.1177 -0.993 0.993 0.1177 -149.2766 393.5787)" style="fill:#3D2A3D;" cx="146.858" cy="280.799" rx="18.539" ry="21.629"/>
					
						<ellipse transform="matrix(0.1177 -0.993 0.993 0.1177 -119.5245 388.4172)" style="fill:#3D2A3D;" cx="158.829" cy="261.474" rx="18.539" ry="21.629"/>
				</g>
				<g>
					
						<ellipse transform="matrix(0.1177 -0.993 0.993 0.1177 -159.1201 431.0114)" style="fill:#3D2A3D;" cx="163.002" cy="305.055" rx="17.882" ry="20.863"/>
					
						<ellipse transform="matrix(0.1177 -0.993 0.993 0.1177 -130.4226 426.0328)" style="fill:#3D2A3D;" cx="174.549" cy="286.415" rx="17.882" ry="20.863"/>
				</g>
				<g>
					
						<ellipse transform="matrix(0.1177 -0.993 0.993 0.1177 -152.1826 471.3038)" style="fill:#3D2A3D;" cx="189.147" cy="321.296" rx="17.225" ry="20.096"/>
					
						<ellipse transform="matrix(0.1177 -0.993 0.993 0.1177 -124.5397 466.5082)" style="fill:#3D2A3D;" cx="200.269" cy="303.342" rx="17.225" ry="20.096"/>
				</g>
				<g>
					
						<ellipse transform="matrix(0.1177 -0.993 0.993 0.1177 -131.8152 510.4294)" style="fill:#3D2A3D;" cx="221.349" cy="329.397" rx="16.568" ry="19.329"/>
					
						<ellipse transform="matrix(0.1177 -0.993 0.993 0.1177 -105.227 505.8168)" style="fill:#3D2A3D;" cx="232.048" cy="312.128" rx="16.568" ry="19.329"/>
				</g>
				<g>
					
						<ellipse transform="matrix(0.1177 -0.993 0.993 0.1177 -101.3696 544.3617)" style="fill:#3D2A3D;" cx="255.668" cy="329.229" rx="15.911" ry="18.563"/>
					
						<ellipse transform="matrix(0.1177 -0.993 0.993 0.1177 -75.8359 539.932)" style="fill:#3D2A3D;" cx="265.942" cy="312.645" rx="15.911" ry="18.563"/>
				</g>
				<g>
					
						<ellipse transform="matrix(0.1177 -0.993 0.993 0.1177 -64.1971 569.074)" style="fill:#3D2A3D;" cx="288.162" cy="320.666" rx="15.254" ry="17.796"/>
					
						<ellipse transform="matrix(0.1177 -0.993 0.993 0.1177 -39.718 564.8272)" style="fill:#3D2A3D;" cx="298.012" cy="304.766" rx="15.254" ry="17.796"/>
				</g>
				
					<ellipse transform="matrix(0.1177 -0.993 0.993 0.1177 -140.2209 369.0669)" style="fill:#3D2A3D;" cx="137.591" cy="263.446" rx="18.539" ry="21.629"/>
			</g>
		</g>
		<ellipse style="clip-path:url(#SVGID_2_);fill:#3D2A3D;" cx="256" cy="232.886" rx="140" ry="90"/>
		<path style="clip-path:url(#SVGID_2_);fill:#BD6442;" d="M459.693,545.884l-0.058-0.924c0-56.196-21.036-110.643-46.722-121.011
			l-109.396-44.072c-25.688-10.359-67.755-10.4-93.448-0.123L99.108,424.088C73.4,434.38,52.364,488.764,52.364,544.961
			l-0.057,0.924H459.693z"/>
		<path style="clip-path:url(#SVGID_2_);fill:#BD6442;" d="M302.326,382.581c0,24.124-19.555,43.679-43.678,43.679h-5.297
			c-24.123,0-43.678-19.555-43.678-43.679V270.074c0-24.123,19.555-43.679,43.678-43.679h5.297
			c24.123,0,43.678,19.556,43.678,43.679V382.581z"/>
		<g style="clip-path:url(#SVGID_2_);">
			<g>
				<path style="fill:#D67F5E;" d="M344.967,257.362c0,49.135-39.832,88.967-88.967,88.967h0c-49.135,0-88.967-39.832-88.967-88.967
					v-74c0-49.135,39.832-88.966,88.966-88.966h0.001c49.135,0,88.966,39.832,88.966,88.966V257.362z"/>
			</g>
		</g>
		<g style="clip-path:url(#SVGID_2_);">
			<circle style="fill:#3D2A3D;" cx="219.958" cy="257.188" r="10.87"/>
			<circle style="fill:#3D2A3D;" cx="292.042" cy="257.188" r="10.87"/>
		</g>
		<g style="clip-path:url(#SVGID_2_);">
			<path style="fill:#3D2A3D;" d="M256,88.282c-60.945,0-110.351,53.548-110.351,119.607c0,21.938,5.453,42.491,14.964,60.168
				l3.618-30.684c4.189-35.527,34.301-62.299,70.074-62.3l43.378-0.002c35.77-0.002,65.883,26.762,70.079,62.286l3.626,30.699
				c9.508-17.675,14.962-38.228,14.962-60.166C366.35,141.83,316.944,88.282,256,88.282z"/>
		</g>
		<path style="clip-path:url(#SVGID_2_);fill:#BD6442;" d="M271.555,272.071c-0.493,8.664-7.734,15.537-16.683,15.537
			c-7.581,0-13.913-4.959-15.997-11.757c-0.466,1.594-0.803,3.252-0.803,4.989c0,9.908,8.042,17.946,17.932,17.946
			c9.915,0,17.927-8.039,17.927-17.946C273.929,277.63,273.031,274.676,271.555,272.071z"/>
		<path style="clip-path:url(#SVGID_2_);fill:#FFC34A;" d="M459.574,544.961c0-56.196-21.036-110.643-46.722-121.011l-86.98-35.042
			c-12.093,26.56-38.847,45.035-69.934,45.035c-30.943,0-57.595-18.303-69.766-44.665l-87.125,34.81
			c-25.708,10.292-46.744,64.677-46.744,120.873l-0.057,0.924h407.386L459.574,544.961z"/>
		<g style="clip-path:url(#SVGID_2_);">
			<path style="fill:#FFFFFF;" d="M278.782,297.458c-12.263,11.545-33.299,11.545-45.564,0c-8.647-8.141-21.709,4.873-13.037,13.038
				c19.688,18.533,51.952,18.533,71.638,0C300.493,302.331,287.431,289.317,278.782,297.458L278.782,297.458z"/>
		</g>
		<g style="clip-path:url(#SVGID_2_);">
			<g>
				<g>
					
						<ellipse transform="matrix(0.4066 -0.9136 0.9136 0.4066 0.8091 236.9202)" style="fill:#3D2A3D;" cx="182.787" cy="117.837" rx="18.943" ry="22.1"/>
				</g>
				<g>
					
						<ellipse transform="matrix(0.4066 -0.9136 0.9136 0.4066 -20.2887 261.5532)" style="fill:#3D2A3D;" cx="191.201" cy="146.395" rx="18.271" ry="21.317"/>
					
						<ellipse transform="matrix(0.4066 -0.9136 0.9136 0.4066 3.1716 268.2821)" style="fill:#3D2A3D;" cx="208.111" cy="131.7" rx="18.271" ry="21.317"/>
				</g>
				<g>
					
						<ellipse transform="matrix(0.4066 -0.9136 0.9136 0.4066 -29.776 294.4731)" style="fill:#3D2A3D;" cx="211.8" cy="170.158" rx="17.6" ry="20.533"/>
					
						<ellipse transform="matrix(0.4066 -0.9136 0.9136 0.4066 -7.1779 300.9547)" style="fill:#3D2A3D;" cx="228.088" cy="156.003" rx="17.6" ry="20.533"/>
				</g>
				<g>
					
						<ellipse transform="matrix(0.4066 -0.9136 0.9136 0.4066 -28.7094 331.419)" style="fill:#3D2A3D;" cx="240.774" cy="187.81" rx="16.928" ry="19.75"/>
					
						<ellipse transform="matrix(0.4066 -0.9136 0.9136 0.4066 -6.9734 337.6534)" style="fill:#3D2A3D;" cx="256.441" cy="174.195" rx="16.928" ry="19.75"/>
				</g>
				<g>
					
						<ellipse transform="matrix(0.4066 -0.9136 0.9136 0.4066 -18.1453 368.1302)" style="fill:#3D2A3D;" cx="274.317" cy="198.033" rx="16.257" ry="18.966"/>
					
						<ellipse transform="matrix(0.4066 -0.9136 0.9136 0.4066 2.7285 374.1173)" style="fill:#3D2A3D;" cx="289.363" cy="184.958" rx="16.257" ry="18.966"/>
				</g>
				<g>
					
						<ellipse transform="matrix(0.4066 -0.9136 0.9136 0.4066 0.8598 400.3457)" style="fill:#3D2A3D;" cx="308.619" cy="199.511" rx="15.586" ry="18.183"/>
					
						<ellipse transform="matrix(0.4066 -0.9136 0.9136 0.4066 20.8715 406.0856)" style="fill:#3D2A3D;" cx="323.043" cy="186.976" rx="15.586" ry="18.183"/>
				</g>
			</g>
			<g>
				<g>
					
						<ellipse transform="matrix(0.9136 -0.4066 0.4066 0.9136 -19.4707 144.0387)" style="fill:#3D2A3D;" cx="329.213" cy="117.837" rx="22.1" ry="18.943"/>
				</g>
				<g>
					
						<ellipse transform="matrix(0.9136 -0.4066 0.4066 0.9136 -31.8092 143.0848)" style="fill:#3D2A3D;" cx="320.799" cy="146.395" rx="21.317" ry="18.271"/>
					
						<ellipse transform="matrix(0.9136 -0.4066 0.4066 0.9136 -27.295 134.9396)" style="fill:#3D2A3D;" cx="303.889" cy="131.7" rx="21.317" ry="18.271"/>
				</g>
				<g>
					
						<ellipse transform="matrix(0.9136 -0.4066 0.4066 0.9136 -43.251 136.7625)" style="fill:#3D2A3D;" cx="300.2" cy="170.158" rx="20.533" ry="17.6"/>
					
						<ellipse transform="matrix(0.9136 -0.4066 0.4066 0.9136 -38.9026 128.9166)" style="fill:#3D2A3D;" cx="283.912" cy="156.003" rx="20.533" ry="17.6"/>
				</g>
				<g>
					
						<ellipse transform="matrix(0.9136 -0.4066 0.4066 0.9136 -52.9315 126.5065)" style="fill:#3D2A3D;" cx="271.226" cy="187.81" rx="19.75" ry="16.928"/>
					
						<ellipse transform="matrix(0.9136 -0.4066 0.4066 0.9136 -48.7491 118.9599)" style="fill:#3D2A3D;" cx="255.559" cy="174.195" rx="19.75" ry="16.928"/>
				</g>
				<g>
					
						<ellipse transform="matrix(0.9136 -0.4066 0.4066 0.9136 -59.9862 113.7512)" style="fill:#3D2A3D;" cx="237.683" cy="198.033" rx="18.966" ry="16.257"/>
					
						<ellipse transform="matrix(0.9136 -0.4066 0.4066 0.9136 -55.9696 106.504)" style="fill:#3D2A3D;" cx="222.637" cy="184.958" rx="18.966" ry="16.257"/>
				</g>
				<g>
					
						<ellipse transform="matrix(0.9136 -0.4066 0.4066 0.9136 -63.5504 99.9315)" style="fill:#3D2A3D;" cx="203.381" cy="199.511" rx="18.183" ry="15.586"/>
					
						<ellipse transform="matrix(0.9136 -0.4066 0.4066 0.9136 -59.6998 92.9836)" style="fill:#3D2A3D;" cx="188.957" cy="186.976" rx="18.183" ry="15.586"/>
				</g>
			</g>
		</g>
		<g style="clip-path:url(#SVGID_2_);">
			<g>
				<g>
					<g>
						
							<ellipse transform="matrix(0.7854 -0.6189 0.6189 0.7854 -6.4941 179.688)" style="fill:#3D2A3D;" cx="255.92" cy="99.211" rx="21.629" ry="18.539"/>
						
							<ellipse transform="matrix(0.7854 -0.6189 0.6189 0.7854 -19.0754 187.6545)" style="fill:#3D2A3D;" cx="261.119" cy="121.34" rx="21.629" ry="18.539"/>
					</g>
					<g>
						
							<ellipse transform="matrix(0.7854 -0.6189 0.6189 0.7854 -9.0736 160.7756)" style="fill:#3D2A3D;" cx="227.352" cy="93.475" rx="20.863" ry="17.882"/>
						
							<ellipse transform="matrix(0.7854 -0.6189 0.6189 0.7854 -21.2089 168.4597)" style="fill:#3D2A3D;" cx="232.368" cy="114.82" rx="20.863" ry="17.882"/>
					</g>
					<g>
						
							<ellipse transform="matrix(0.7854 -0.6189 0.6189 0.7854 -19.8384 143.7272)" style="fill:#3D2A3D;" cx="197.381" cy="100.477" rx="20.096" ry="17.225"/>
						
							<ellipse transform="matrix(0.7854 -0.6189 0.6189 0.7854 -31.5278 151.1289)" style="fill:#3D2A3D;" cx="202.212" cy="121.037" rx="20.096" ry="17.225"/>
					</g>
					<g>
						
							<ellipse transform="matrix(0.7854 -0.6189 0.6189 0.7854 -36.5018 129.7449)" style="fill:#3D2A3D;" cx="168.882" cy="117.52" rx="19.329" ry="16.568"/>
						
							<ellipse transform="matrix(0.7854 -0.6189 0.6189 0.7854 -47.7452 136.8642)" style="fill:#3D2A3D;" cx="173.529" cy="137.296" rx="19.329" ry="16.568"/>
					</g>
					<g>
						
							<ellipse transform="matrix(0.7854 -0.6189 0.6189 0.7854 -56.7769 120.0307)" style="fill:#3D2A3D;" cx="144.734" cy="141.905" rx="18.563" ry="15.911"/>
						
							<ellipse transform="matrix(0.7854 -0.6189 0.6189 0.7854 -67.5743 126.8676)" style="fill:#3D2A3D;" cx="149.196" cy="160.897" rx="18.563" ry="15.911"/>
					</g>
					<g>
						
							<ellipse transform="matrix(0.7854 -0.6189 0.6189 0.7854 -78.3768 115.7867)" style="fill:#3D2A3D;" cx="127.813" cy="170.937" rx="17.796" ry="15.254"/>
						
							<ellipse transform="matrix(0.7854 -0.6189 0.6189 0.7854 -88.7283 122.3412)" style="fill:#3D2A3D;" cx="132.091" cy="189.145" rx="17.796" ry="15.254"/>
					</g>
					
						<ellipse transform="matrix(0.7854 -0.6189 0.6189 0.7854 -5.9941 192.5649)" style="fill:#3D2A3D;" cx="274.742" cy="104.928" rx="21.629" ry="18.539"/>
				</g>
				<g>
					<g>
						
							<ellipse transform="matrix(0.6189 -0.7854 0.7854 0.6189 -160.4513 176.3965)" style="fill:#3D2A3D;" cx="101.57" cy="253.561" rx="21.629" ry="18.539"/>
						
							<ellipse transform="matrix(0.6189 -0.7854 0.7854 0.6189 -156.1027 195.759)" style="fill:#3D2A3D;" cx="123.699" cy="258.76" rx="21.629" ry="18.539"/>
					</g>
					<g>
						
							<ellipse transform="matrix(0.6189 -0.7854 0.7854 0.6189 -140.1992 161.0057)" style="fill:#3D2A3D;" cx="95.834" cy="224.993" rx="20.863" ry="17.882"/>
						
							<ellipse transform="matrix(0.6189 -0.7854 0.7854 0.6189 -136.0047 179.6818)" style="fill:#3D2A3D;" cx="117.179" cy="230.008" rx="20.863" ry="17.882"/>
					</g>
					<g>
						
							<ellipse transform="matrix(0.6189 -0.7854 0.7854 0.6189 -113.9903 155.0845)" style="fill:#3D2A3D;" cx="102.836" cy="195.022" rx="20.096" ry="17.225"/>
						
							<ellipse transform="matrix(0.6189 -0.7854 0.7854 0.6189 -109.95 173.0744)" style="fill:#3D2A3D;" cx="123.397" cy="199.852" rx="20.096" ry="17.225"/>
					</g>
					<g>
						
							<ellipse transform="matrix(0.6189 -0.7854 0.7854 0.6189 -85.1123 157.6109)" style="fill:#3D2A3D;" cx="119.879" cy="166.523" rx="19.329" ry="16.568"/>
						
							<ellipse transform="matrix(0.6189 -0.7854 0.7854 0.6189 -81.2261 174.9144)" style="fill:#3D2A3D;" cx="139.655" cy="171.17" rx="19.329" ry="16.568"/>
					</g>
					<g>
						
							<ellipse transform="matrix(0.6189 -0.7854 0.7854 0.6189 -56.853 167.5626)" style="fill:#3D2A3D;" cx="144.265" cy="142.374" rx="18.563" ry="15.911"/>
						
							<ellipse transform="matrix(0.6189 -0.7854 0.7854 0.6189 -53.1209 184.1798)" style="fill:#3D2A3D;" cx="163.257" cy="146.837" rx="18.563" ry="15.911"/>
					</g>
					<g>
						
							<ellipse transform="matrix(0.6189 -0.7854 0.7854 0.6189 -32.4998 183.9174)" style="fill:#3D2A3D;" cx="173.297" cy="125.453" rx="17.796" ry="15.254"/>
						
							<ellipse transform="matrix(0.6189 -0.7854 0.7854 0.6189 -28.9219 199.8482)" style="fill:#3D2A3D;" cx="191.504" cy="129.731" rx="17.796" ry="15.254"/>
					</g>
					
						<ellipse transform="matrix(0.6189 -0.7854 0.7854 0.6189 -173.0565 188.0594)" style="fill:#3D2A3D;" cx="107.287" cy="272.383" rx="21.629" ry="18.539"/>
				</g>
			</g>
			<g>
				<g>
					<g>
						
							<ellipse transform="matrix(0.6189 -0.7854 0.7854 0.6189 19.6569 238.9383)" style="fill:#3D2A3D;" cx="256.08" cy="99.211" rx="18.539" ry="21.629"/>
						
							<ellipse transform="matrix(0.6189 -0.7854 0.7854 0.6189 0.2944 243.2869)" style="fill:#3D2A3D;" cx="250.881" cy="121.34" rx="18.539" ry="21.629"/>
					</g>
					<g>
						
							<ellipse transform="matrix(0.6189 -0.7854 0.7854 0.6189 35.0477 259.1905)" style="fill:#3D2A3D;" cx="284.648" cy="93.475" rx="17.882" ry="20.863"/>
						
							<ellipse transform="matrix(0.6189 -0.7854 0.7854 0.6189 16.3716 263.3849)" style="fill:#3D2A3D;" cx="279.632" cy="114.82" rx="17.882" ry="20.863"/>
					</g>
					<g>
						
							<ellipse transform="matrix(0.6189 -0.7854 0.7854 0.6189 40.9689 285.3994)" style="fill:#3D2A3D;" cx="314.619" cy="100.477" rx="17.225" ry="20.096"/>
						
							<ellipse transform="matrix(0.6189 -0.7854 0.7854 0.6189 22.979 289.4397)" style="fill:#3D2A3D;" cx="309.788" cy="121.037" rx="17.225" ry="20.096"/>
					</g>
					<g>
						
							<ellipse transform="matrix(0.6189 -0.7854 0.7854 0.6189 38.4425 314.2773)" style="fill:#3D2A3D;" cx="343.118" cy="117.52" rx="16.568" ry="19.329"/>
						
							<ellipse transform="matrix(0.6189 -0.7854 0.7854 0.6189 21.139 318.1635)" style="fill:#3D2A3D;" cx="338.471" cy="137.296" rx="16.568" ry="19.329"/>
					</g>
					<g>
						
							<ellipse transform="matrix(0.6189 -0.7854 0.7854 0.6189 28.4908 342.5367)" style="fill:#3D2A3D;" cx="367.266" cy="141.905" rx="15.911" ry="18.563"/>
						
							<ellipse transform="matrix(0.6189 -0.7854 0.7854 0.6189 11.8736 346.2687)" style="fill:#3D2A3D;" cx="362.804" cy="160.897" rx="15.911" ry="18.563"/>
					</g>
					<g>
						
							<ellipse transform="matrix(0.6189 -0.7854 0.7854 0.6189 12.136 366.8898)" style="fill:#3D2A3D;" cx="384.187" cy="170.937" rx="15.254" ry="17.796"/>
						
							<ellipse transform="matrix(0.6189 -0.7854 0.7854 0.6189 -3.7948 370.4677)" style="fill:#3D2A3D;" cx="379.909" cy="189.145" rx="15.254" ry="17.796"/>
					</g>
					
						<ellipse transform="matrix(0.6189 -0.7854 0.7854 0.6189 7.994 226.3331)" style="fill:#3D2A3D;" cx="237.258" cy="104.928" rx="18.539" ry="21.629"/>
				</g>
				<g>
					<g>
						
							<ellipse transform="matrix(0.7854 -0.6189 0.6189 0.7854 -68.8757 308.44)" style="fill:#3D2A3D;" cx="410.43" cy="253.561" rx="18.539" ry="21.629"/>
						
							<ellipse transform="matrix(0.7854 -0.6189 0.6189 0.7854 -76.8422 295.8587)" style="fill:#3D2A3D;" cx="388.301" cy="258.76" rx="18.539" ry="21.629"/>
					</g>
					<g>
						
							<ellipse transform="matrix(0.7854 -0.6189 0.6189 0.7854 -49.9633 305.8606)" style="fill:#3D2A3D;" cx="416.166" cy="224.993" rx="17.882" ry="20.863"/>
						
							<ellipse transform="matrix(0.7854 -0.6189 0.6189 0.7854 -57.6474 293.7252)" style="fill:#3D2A3D;" cx="394.821" cy="230.008" rx="17.882" ry="20.863"/>
					</g>
					<g>
						
							<ellipse transform="matrix(0.7854 -0.6189 0.6189 0.7854 -32.9149 295.0957)" style="fill:#3D2A3D;" cx="409.164" cy="195.022" rx="17.225" ry="20.096"/>
						
							<ellipse transform="matrix(0.7854 -0.6189 0.6189 0.7854 -40.3166 283.4063)" style="fill:#3D2A3D;" cx="388.603" cy="199.852" rx="17.225" ry="20.096"/>
					</g>
					<g>
						
							<ellipse transform="matrix(0.7854 -0.6189 0.6189 0.7854 -18.9325 278.4323)" style="fill:#3D2A3D;" cx="392.121" cy="166.523" rx="16.568" ry="19.329"/>
						
							<ellipse transform="matrix(0.7854 -0.6189 0.6189 0.7854 -26.0519 267.1889)" style="fill:#3D2A3D;" cx="372.345" cy="171.17" rx="16.568" ry="19.329"/>
					</g>
					<g>
						
							<ellipse transform="matrix(0.7854 -0.6189 0.6189 0.7854 -9.2183 258.1573)" style="fill:#3D2A3D;" cx="367.735" cy="142.374" rx="15.911" ry="18.563"/>
						
							<ellipse transform="matrix(0.7854 -0.6189 0.6189 0.7854 -16.0553 247.3598)" style="fill:#3D2A3D;" cx="348.743" cy="146.837" rx="15.911" ry="18.563"/>
					</g>
					<g>
						
							<ellipse transform="matrix(0.7854 -0.6189 0.6189 0.7854 -4.9744 236.5574)" style="fill:#3D2A3D;" cx="338.703" cy="125.453" rx="15.254" ry="17.796"/>
						
							<ellipse transform="matrix(0.7854 -0.6189 0.6189 0.7854 -11.5289 226.2059)" style="fill:#3D2A3D;" cx="320.496" cy="129.731" rx="15.254" ry="17.796"/>
					</g>
					
						<ellipse transform="matrix(0.7854 -0.6189 0.6189 0.7854 -81.7526 308.94)" style="fill:#3D2A3D;" cx="404.713" cy="272.383" rx="18.539" ry="21.629"/>
				</g>
			</g>
		</g>
		<g style="clip-path:url(#SVGID_2_);">
			<g>
				<path style="fill:#3D2A3D;" d="M210.725,243.208c4.813-4.372,11.362-5.751,17.585-4.004c5.46,1.533,7.774-6.937,2.333-8.464
					c-9.305-2.611-19-0.21-26.125,6.261C200.321,240.815,206.547,247.004,210.725,243.208L210.725,243.208z"/>
			</g>
			<g>
				<path style="fill:#3D2A3D;" d="M307.481,237.002c-7.123-6.471-16.819-8.873-26.124-6.261c-5.442,1.527-3.127,9.996,2.333,8.464
					c6.224-1.747,12.772-0.368,17.585,4.004C305.454,247.004,311.68,240.815,307.481,237.002L307.481,237.002z"/>
			</g>
		</g>
	</g>
</g>
</svg>
