<?xml version="1.0" encoding="iso-8859-1"?>
<!-- Generator: Adobe Illustrator 22.0.1, SVG Export Plug-In . SVG Version: 6.00 Build 0)  -->
<svg version="1.1" id="Layer_7" xmlns="http://www.w3.org/2000/svg" xmlns:xlink="http://www.w3.org/1999/xlink" x="0px" y="0px"
	 viewBox="0 0 512 512" style="enable-background:new 0 0 512 512;" xml:space="preserve">
<g>
	<g>
		<defs>
			<path id="SVGID_115_" d="M0,255.996C0,114.607,114.613,0,256.002,0C397.387,0,512,114.607,512,255.996
				C512,397.389,397.387,512,256.002,512C114.613,512,0,397.389,0,255.996z"/>
		</defs>
		<clipPath id="SVGID_2_">
			<use xlink:href="#SVGID_115_"  style="overflow:visible;"/>
		</clipPath>
		<path style="clip-path:url(#SVGID_2_);fill:#9EC853;" d="M0,255.881C0,114.492,114.613-0.116,256.002-0.116
			C397.387-0.116,512,114.492,512,255.881c0,141.393-114.613,256.004-255.998,256.004C114.613,511.884,0,397.273,0,255.881z"/>
		<g style="clip-path:url(#SVGID_2_);">
			<path style="fill:#3D2A3D;" d="M177.002,343.051h157.997c27.488-22.734,45.004-57.091,45.004-95.538
				c0-68.451-55.518-123.942-124.002-123.942s-124.002,55.491-124.002,123.942C131.998,285.96,149.513,320.317,177.002,343.051z"/>
			<g>
				<path style="fill:#BD5933;" d="M190.143,249.579c6.471,15.324,2.947,30.217-7.869,33.267
					c-10.818,3.049-24.828-6.901-31.299-22.223c-6.471-15.324-2.947-30.218,7.869-33.268
					C169.66,224.306,183.674,234.257,190.143,249.579z"/>
				<path style="fill:#BD5933;" d="M321.856,249.579c-6.47,15.324-2.945,30.217,7.871,33.267
					c10.816,3.049,24.828-6.901,31.297-22.223c6.472-15.324,2.949-30.218-7.869-33.268
					C342.341,224.306,328.326,234.257,321.856,249.579z"/>
			</g>
			<path style="fill:#BD5933;" d="M447.792,511.884l-0.054-0.87c0-52.913-19.807-104.179-43.992-113.941l-103.004-41.498
				c-24.187-9.754-63.796-9.793-87.988-0.116l-104.478,41.744c-24.206,9.691-44.013,60.898-44.013,113.811l-0.054,0.87H447.792z"/>
			<path style="fill:#BD5933;" d="M299.62,358.122c0,22.715-18.413,41.127-41.126,41.127h-4.987
				c-22.714,0-41.126-18.413-41.126-41.127V252.188c0-22.713,18.413-41.127,41.126-41.127h4.987
				c22.714,0,41.126,18.414,41.126,41.127V358.122z"/>
			<g>
				<g>
					<path style="fill:#C67C47;" d="M333.501,272.647c0,30.223-27.02,54.718-60.356,54.718H238.85
						c-33.331,0-60.351-24.495-60.351-54.718v-89.537c0-30.218,27.02-54.718,60.351-54.718h34.296
						c33.335,0,60.356,24.499,60.356,54.718V272.647z"/>
				</g>
			</g>
			<g>
				<circle style="fill:#3D2A3D;" cx="222.063" cy="231.827" r="10.235"/>
				<circle style="fill:#3D2A3D;" cx="289.937" cy="231.827" r="10.235"/>
			</g>
			<path style="fill:#BD5933;" d="M270.646,245.841c-0.464,8.158-7.282,14.629-15.709,14.629c-7.138,0-13.1-4.669-15.063-11.07
				c-0.439,1.5-0.757,3.062-0.757,4.697c0,9.329,7.572,16.898,16.884,16.898c9.336,0,16.88-7.569,16.88-16.898
				C272.882,251.075,272.036,248.293,270.646,245.841z"/>
			<path style="fill:#2961A5;" d="M447.738,511.015c0-52.913-19.807-104.179-43.992-113.941l-81.898-32.994
				c-11.386,25.008-36.577,42.404-65.848,42.404c-29.135,0-54.23-17.234-65.69-42.056l-82.035,32.777
				c-24.206,9.691-44.013,60.898-44.013,113.811l-0.054,0.87h383.584L447.738,511.015z"/>
			<g>
				<g>
					<g>
						<g>
							<path style="fill:#3D2A3D;" d="M83.547,269.379c0.256,6.752,7.545,8.744,16.773,11.267c0.529,0.144,1.126,0.308,1.754,0.482
								c-0.83,0.476-1.629,0.927-2.311,1.312c-7.951,4.483-14.232,8.024-12.837,14.381c1.462,6.674,9.418,7.268,18.63,7.955
								c0.64,0.048,1.377,0.103,2.149,0.165c-0.777,0.715-1.537,1.4-2.176,1.975c-2.045,1.842-3.954,3.567-5.559,5.241h18.164
								c4.534-4.388,7.413-8.325,5.865-12.9c-1.871-5.525-8.106-6.141-16.773-6.79c7.378-4.181,12.976-7.701,12.267-13.609
								c-0.721-6.002-7.046-7.751-15.81-10.148c8.308-3.032,14.756-5.579,14.944-11.74c0.19-6.137-5.927-8.76-14.392-12.392
								c-0.098-0.041-0.198-0.085-0.3-0.128c8.854-2.104,15.804-3.84,16.667-10.096c0.849-6.149-5.064-10.569-11.909-15.686
								c-0.732-0.547-1.612-1.204-2.505-1.891c1.142-0.079,2.257-0.14,3.184-0.192c8.534-0.471,15.905-0.879,18.581-6.485
								c2.672-5.6-1.665-11.55-6.689-18.439c-0.601-0.826-1.339-1.838-2.069-2.873c1.196,0.252,2.369,0.518,3.331,0.736
								c8.419,1.907,15.691,3.555,19.803-1.21c4.081-4.73,1.371-11.605-1.766-19.565c-0.407-1.03-0.911-2.31-1.39-3.596
								c1.187,0.556,2.36,1.132,3.311,1.597c7.793,3.822,14.524,7.12,19.629,3.35c5.059-3.738,3.868-11.064,2.489-19.549
								c-0.186-1.137-0.417-2.561-0.618-3.975c1.105,0.816,2.199,1.658,3.077,2.333c6.892,5.301,12.841,9.883,18.603,7.152
								c5.71-2.707,5.916-10.153,6.155-18.773c0.033-1.17,0.074-2.64,0.144-4.087c0.962,1.025,1.912,2.079,2.671,2.921
								c5.823,6.461,10.847,12.044,17.009,10.379c6.113-1.652,7.633-8.957,9.392-17.415c0.239-1.146,0.539-2.587,0.864-4.001
								c0.774,1.186,1.531,2.4,2.136,3.369c4.601,7.374,8.581,13.734,14.925,13.179c6.308-0.561,9.082-7.488,12.294-15.509
								c1.017-2.54,2.644-6.604,3.718-8.226c2.361-0.876,4.044-3.148,4.044-5.815c0-3.424-2.776-6.2-6.2-6.2
								c-6.814,0-9.714,7.244-13.072,15.631c-0.583,1.456-1.369,3.417-2.132,5.124c-1.071-1.568-2.211-3.396-3.056-4.749
								c-4.753-7.619-8.861-14.193-15.525-13.011c-6.706,1.197-8.295,8.836-10.135,17.682c-0.319,1.534-0.749,3.6-1.202,5.412
								c-1.33-1.359-2.776-2.964-3.847-4.152c-6.007-6.667-11.194-12.421-17.548-10.091c-6.407,2.356-6.624,10.168-6.875,19.213
								c-0.043,1.57-0.102,3.686-0.229,5.552c-1.565-1.102-3.295-2.432-4.573-3.416c-7.115-5.473-13.262-10.2-19.083-6.735
								c-5.891,3.507-4.633,11.241-3.177,20.197c0.254,1.565,0.598,3.681,0.824,5.55c-1.775-0.776-3.772-1.755-5.243-2.476
								c-8.074-3.96-15.048-7.378-20.056-2.779c-5.084,4.669-2.2,11.985,1.139,20.458c0.593,1.505,1.4,3.549,2.022,5.352
								c-1.93-0.345-4.154-0.849-5.781-1.218c-8.815-1.997-16.426-3.722-20.21,1.997c-3.835,5.793,1.033,12.47,6.187,19.539
								c0.982,1.346,2.325,3.189,3.4,4.816c-1.96,0.201-4.272,0.329-5.957,0.422c-8.725,0.482-16.966,0.938-18.986,7.587
								c-2.022,6.651,4.578,11.585,11.567,16.809c1.06,0.792,2.427,1.815,3.703,2.825c-1.5,0.391-3.06,0.761-4.282,1.052
								c-8.835,2.099-15.813,3.756-16.379,10.144c-0.587,6.653,6.307,9.611,15.036,13.355c0.427,0.184,0.901,0.388,1.401,0.603
								c-0.773,0.288-1.513,0.556-2.154,0.79C90.05,260.479,83.302,262.937,83.547,269.379z"/>
						</g>
						<g>
							<path style="fill:#3D2A3D;" d="M119.882,267.233c0.134,6.65,7.356,8.733,16.497,11.37c0.178,0.051,0.363,0.105,0.555,0.16
								c-0.45,0.213-0.878,0.414-1.268,0.597c-8.535,4.01-14.701,6.908-13.785,13.255c0.963,6.658,8.451,7.759,17.931,9.154
								c0.284,0.041,0.581,0.085,0.888,0.13c-0.53,0.364-1.033,0.707-1.483,1.014c-7.523,5.122-13.465,9.169-11.464,15.318
								c2.098,6.456,9.693,6.18,19.316,5.83c0.36-0.013,0.744-0.027,1.14-0.041c-0.495,0.514-0.968,0.999-1.387,1.428
								c-6.382,6.547-11.422,11.719-8.181,17.368c0.049,0.085,0.106,0.152,0.157,0.234h35.884c1.51-3.424,1.808-6.479-0.165-9.281
								c-3.218-4.565-8.968-3.566-16.866-1.675c5.451-5.672,9.295-10.389,7.029-15.517c-2.253-5.097-8.094-5.246-16.205-4.973
								c6.531-4.515,11.285-8.4,10.035-13.921c-1.273-5.622-7.27-6.754-15.661-7.999c7.487-3.554,13.114-6.664,12.665-12.51
								c-0.454-5.915-6.489-7.824-14.932-10.264c8.102-2.755,14.308-5.188,14.475-11.204c0.167-6.048-5.823-8.536-14.185-11.85
								c8.476-2.121,15.034-4.008,15.664-10.097c0.639-6.193-5.545-9.752-13.375-14.259c-0.081-0.046-0.164-0.094-0.248-0.142
								c0.162-0.018,0.321-0.035,0.474-0.052c8.876-0.966,15.887-1.729,17.772-7.59c1.901-5.913-3.398-10.667-10.107-16.686
								c-0.074-0.067-0.15-0.134-0.227-0.204c0.15,0.015,0.298,0.03,0.44,0.044c8.89,0.904,15.917,1.62,18.986-3.724
								c3.091-5.381-1.095-11.131-6.395-18.411c-0.06-0.082-0.12-0.164-0.182-0.249c0.136,0.044,0.268,0.087,0.397,0.128
								c8.513,2.749,15.234,4.919,19.356,0.339c4.145-4.605,1.271-11.102-2.367-19.33c-0.033-0.076-0.068-0.153-0.103-0.232
								c0.103,0.06,0.203,0.118,0.3,0.175c7.72,4.508,13.818,8.068,18.824,4.492c5.031-3.586,3.655-10.545,1.915-19.354
								c-0.007-0.037-0.015-0.075-0.022-0.112c0.045,0.042,0.09,0.085,0.134,0.126c6.489,6.13,11.615,10.971,17.3,8.656
								c5.675-2.312,5.991-9.338,6.372-18.239c4.768,7.506,8.561,13.423,14.599,12.606c6.051-0.812,8.133-7.525,10.768-16.024
								c0.768-2.478,1.987-6.409,2.856-8.147c1.967-1.039,3.307-3.105,3.307-5.485c0-3.424-2.776-6.2-6.2-6.2
								c-6.795,0-9.119,7.488-11.807,16.158c-0.311,1.003-0.696,2.244-1.101,3.48c-0.723-1.096-1.427-2.205-1.995-3.099
								c-4.851-7.636-9.036-14.23-15.576-12.471c-6.52,1.754-6.852,9.547-7.237,18.573c-0.044,1.037-0.099,2.318-0.174,3.603
								c-0.935-0.857-1.852-1.723-2.595-2.426c-6.577-6.212-12.252-11.583-18.169-8.309c-5.875,3.252-4.369,10.879-2.624,19.711
								c0.198,1.001,0.441,2.232,0.667,3.475c-1.075-0.606-2.129-1.222-2.989-1.724c-7.807-4.56-14.551-8.502-19.574-4.003
								c-4.99,4.466-1.851,11.565,1.784,19.784c0.408,0.921,0.908,2.053,1.396,3.202c-1.159-0.357-2.3-0.726-3.232-1.026
								c-8.601-2.778-16.03-5.176-19.978,0.274c-3.921,5.418,0.642,11.687,5.926,18.944c0.591,0.811,1.316,1.807,2.033,2.824
								c-1.198-0.105-2.379-0.225-3.344-0.324c-8.996-0.914-16.766-1.705-19.487,4.452c-2.702,6.112,3.063,11.284,9.739,17.274
								c0.749,0.671,1.668,1.496,2.583,2.341c-1.183,0.145-2.351,0.272-3.308,0.377c-9.002,0.979-16.776,1.826-18.158,8.421
								c-1.368,6.527,5.011,10.199,13.087,14.847c0.642,0.369,1.389,0.799,2.166,1.254c-0.866,0.223-1.697,0.43-2.411,0.607
								c-9.151,2.279-15.763,3.925-16.196,10.272c-0.45,6.579,6.494,9.328,15.285,12.811c0.106,0.042,0.215,0.086,0.327,0.13
								c-0.356,0.12-0.695,0.235-1.012,0.342C126.205,258.677,119.753,260.856,119.882,267.233z"/>
						</g>
					</g>
					<g>
						<path style="fill:#3D2A3D;" d="M136.981,267.233c0.134,6.65,7.356,8.733,16.497,11.37c0.178,0.051,0.363,0.105,0.556,0.16
							c-0.45,0.213-0.878,0.414-1.27,0.597c-8.535,4.01-14.702,6.909-13.784,13.255c0.963,6.658,8.451,7.759,17.931,9.154
							c0.283,0.041,0.58,0.085,0.887,0.13c-0.53,0.364-1.033,0.706-1.483,1.013c-7.522,5.123-13.465,9.17-11.464,15.32
							c2.1,6.456,9.698,6.18,19.316,5.829c0.361-0.013,0.745-0.027,1.141-0.041c-0.495,0.514-0.968,0.998-1.386,1.427
							c-6.383,6.548-11.424,11.72-8.182,17.369c0.049,0.085,0.106,0.152,0.157,0.234h35.883c1.51-3.424,1.808-6.479-0.165-9.281
							c-3.22-4.567-8.97-3.565-16.865-1.675c5.451-5.672,9.295-10.389,7.028-15.518c-2.254-5.095-8.086-5.249-16.205-4.972
							c6.531-4.514,11.285-8.4,10.036-13.923c-1.274-5.62-7.271-6.752-15.661-7.997c7.486-3.554,13.113-6.664,12.664-12.508
							c-0.453-5.916-6.489-7.826-14.932-10.266c8.103-2.755,14.308-5.188,14.475-11.204c0.167-6.048-5.823-8.535-14.185-11.85
							c8.477-2.121,15.035-4.008,15.665-10.097c0.639-6.193-5.545-9.752-13.375-14.259c-0.082-0.046-0.164-0.094-0.248-0.142
							c0.162-0.018,0.321-0.035,0.474-0.052c8.875-0.966,15.886-1.729,17.771-7.589c1.903-5.914-3.398-10.669-10.107-16.688
							c-0.074-0.067-0.149-0.134-0.226-0.203c0.15,0.015,0.297,0.03,0.439,0.044c8.893,0.904,15.918,1.62,18.988-3.725
							c3.089-5.38-1.097-11.13-6.396-18.409c-0.06-0.082-0.12-0.164-0.183-0.25c0.136,0.044,0.268,0.087,0.397,0.128
							c8.511,2.749,15.233,4.922,19.356,0.339c4.146-4.604,1.272-11.102-2.367-19.331c-0.033-0.076-0.068-0.152-0.102-0.231
							c0.102,0.06,0.202,0.118,0.299,0.175c7.72,4.508,13.814,8.068,18.824,4.493c5.031-3.587,3.656-10.545,1.915-19.355
							c-0.007-0.037-0.014-0.075-0.022-0.113c0.045,0.043,0.091,0.086,0.135,0.127c6.489,6.131,11.614,10.974,17.299,8.656
							c5.675-2.312,5.992-9.338,6.372-18.239c4.769,7.506,8.545,13.423,14.599,12.606c6.051-0.812,8.133-7.525,10.768-16.024
							c0.768-2.478,1.987-6.409,2.856-8.147c1.967-1.039,3.307-3.105,3.307-5.485c0-3.424-2.776-6.2-6.2-6.2
							c-6.796,0-9.118,7.488-11.807,16.158c-0.311,1.003-0.695,2.244-1.101,3.48c-0.723-1.096-1.426-2.204-1.994-3.098
							c-4.852-7.637-9.041-14.231-15.577-12.472c-6.52,1.754-6.852,9.547-7.237,18.572c-0.043,1.037-0.099,2.318-0.174,3.604
							c-0.934-0.857-1.852-1.723-2.595-2.426c-6.577-6.212-12.254-11.581-18.167-8.31c-5.877,3.252-4.371,10.88-2.626,19.712
							c0.198,1.001,0.441,2.232,0.667,3.476c-1.074-0.606-2.128-1.223-2.989-1.725c-7.808-4.56-14.554-8.5-19.573-4.003
							c-4.991,4.466-1.852,11.565,1.783,19.783c0.408,0.922,0.908,2.054,1.397,3.203c-1.161-0.357-2.301-0.726-3.233-1.026
							c-8.6-2.777-16.029-5.179-19.976,0.274c-3.924,5.418,0.641,11.687,5.926,18.945c0.59,0.811,1.315,1.806,2.031,2.823
							c-1.198-0.105-2.378-0.225-3.344-0.324c-8.995-0.914-16.765-1.703-19.488,4.453c-2.7,6.111,3.065,11.283,9.74,17.272
							c0.749,0.672,1.668,1.497,2.584,2.342c-1.184,0.145-2.351,0.272-3.309,0.377c-9.001,0.979-16.775,1.826-18.157,8.421
							c-1.368,6.527,5.011,10.199,13.087,14.847c0.642,0.369,1.389,0.799,2.165,1.254c-0.866,0.223-1.696,0.43-2.411,0.607
							c-9.151,2.279-15.763,3.925-16.196,10.273c-0.448,6.578,6.495,9.327,15.285,12.81c0.106,0.042,0.215,0.086,0.327,0.13
							c-0.355,0.12-0.695,0.235-1.012,0.342C143.304,258.677,136.854,260.855,136.981,267.233z"/>
					</g>
				</g>
				<g>
					<g>
						<g>
							<path style="fill:#3D2A3D;" d="M357.786,341.664c-0.472,0.437-0.85,0.904-1.179,1.387h17.189
								C366.933,339.789,361.783,337.972,357.786,341.664z"/>
							<path style="fill:#3D2A3D;" d="M259.147,141.018c6.372,0,9.768-6.692,13.701-14.441c0.516-1.017,1.163-2.292,1.829-3.539
								c0.446,1.376,0.87,2.782,1.207,3.9c2.494,8.274,4.647,15.42,10.883,16.532c6.286,1.119,10.797-4.88,16.026-11.827
								c0.686-0.911,1.545-2.053,2.418-3.164c0.201,1.438,0.373,2.901,0.51,4.065c1.009,8.575,1.881,15.98,7.82,18.162
								c5.989,2.203,11.492-2.909,17.869-8.825c0.824-0.764,1.854-1.72,2.893-2.646c-0.063,1.44-0.157,2.898-0.232,4.06
								c-0.555,8.594-1.034,16.015,4.384,19.239c5.469,3.257,11.833-0.727,19.2-5.335c0.921-0.575,2.064-1.291,3.218-1.983
								c-0.34,1.364-0.71,2.732-1.006,3.827c-2.239,8.278-4.174,15.428,0.444,19.669c4.659,4.281,11.7,1.753,19.852-1.173
								c0.964-0.346,2.147-0.771,3.348-1.18c-0.612,1.177-1.24,2.338-1.751,3.279c-4.07,7.505-7.586,13.988-4.15,19.179
								c3.452,5.215,10.843,4.552,19.405,3.782c0.948-0.085,2.095-0.188,3.267-0.277c-0.823,0.867-1.644,1.705-2.32,2.396
								c-5.965,6.094-11.116,11.357-9.313,17.288c1.793,5.899,8.97,7.426,17.28,9.193c0.652,0.138,1.4,0.298,2.183,0.47
								c-0.616,0.308-1.202,0.596-1.723,0.854c-8.287,4.091-14.274,7.047-13.731,13.192c0.551,6.223,7.285,8.341,15.906,10.881
								c-0.044,0.016-0.089,0.032-0.133,0.047c-8.643,3.078-14.889,5.302-15.12,11.402c-0.229,6.059,5.841,9.076,13.739,12.657
								c-8.754,1.576-15.057,2.792-16.328,8.595c-1.251,5.706,3.793,9.741,10.545,14.563c-8.502-0.347-14.636-0.386-17.124,4.788
								c-0.563,1.171-0.787,2.336-0.757,3.507h37.077c0.303-0.493,0.575-1.023,0.781-1.63c2.102-6.204-3.798-10.39-11.268-15.689
								c-0.676-0.48-1.476-1.047-2.301-1.644c0.704-0.13,1.376-0.251,1.964-0.357c9.445-1.699,16.906-3.042,17.716-9.791
								c0.772-6.428-5.782-9.389-14.08-13.137c-0.667-0.301-1.442-0.651-2.249-1.023c0.559-0.201,1.09-0.391,1.564-0.559
								c8.979-3.197,16.071-5.723,15.866-12.437c-0.198-6.423-7.081-8.448-15.795-11.013c-0.615-0.181-1.314-0.388-2.049-0.607
								c0.45-0.224,0.878-0.436,1.266-0.628c8.492-4.192,15.199-7.503,14.289-14.089c-0.956-6.931-9.069-8.655-17.66-10.482
								c-1.647-0.351-3.909-0.832-5.81-1.33c1.312-1.474,2.94-3.138,4.125-4.348c6.115-6.25,11.893-12.152,8.895-18.429
								c-2.972-6.227-10.777-5.526-19.813-4.715c-1.675,0.15-3.968,0.356-5.936,0.441c0.843-1.734,1.908-3.699,2.69-5.142
								c4.167-7.684,8.102-14.94,3.578-20.186c-4.458-5.167-11.782-2.54-20.264,0.505c-1.557,0.558-3.676,1.319-5.539,1.895
								c0.418-1.848,0.984-3.939,1.401-5.483c2.374-8.774,4.424-16.353-1.108-20.439c-5.454-4.029-12.032,0.083-19.649,4.845
								c-1.377,0.862-3.243,2.029-4.918,2.979c0.045-1.874,0.183-3.997,0.284-5.57c0.584-9.041,1.089-16.848-5.091-19.78
								c-6.117-2.897-11.799,2.373-18.377,8.477c-1.177,1.092-2.766,2.566-4.217,3.804c-0.293-1.846-0.539-3.944-0.723-5.501
								c-1.057-8.978-1.969-16.732-8.55-18.511c-6.54-1.769-11.197,4.429-16.598,11.599c-0.961,1.276-2.256,2.996-3.46,4.464
								c-0.609-1.766-1.219-3.786-1.671-5.287c-2.607-8.65-4.857-16.12-11.642-16.723c-6.731-0.596-10.259,6.317-14.324,14.328
								c-1.257,2.476-3.28,6.462-4.488,7.931c-2.523,0.785-4.355,3.139-4.355,5.922
								C252.947,138.242,255.723,141.018,259.147,141.018z"/>
						</g>
						<g>
							<path style="fill:#3D2A3D;" d="M260.857,141.018c6.08,0,9.053-6.301,12.772-14.313c1.49,8.719,2.699,15.592,8.577,17.173
								c5.928,1.589,10.422-3.83,16.12-10.698l0.042-0.051c-0.001,0.007-0.001,0.013-0.002,0.019
								c-0.704,8.939-1.261,15.999,4.131,18.983c5.386,2.98,11.035-1.239,18.195-6.578c0.073-0.054,0.148-0.111,0.224-0.168
								c-0.019,0.063-0.039,0.124-0.059,0.185c-2.72,8.569-4.867,15.337-0.256,19.463c4.593,4.108,11.041,1.232,19.208-2.408
								c0.116-0.052,0.235-0.105,0.357-0.159c-0.049,0.085-0.098,0.17-0.145,0.251c-4.499,7.796-8.053,13.953-4.417,18.975
								c3.616,4.994,10.527,3.543,19.28,1.709c0.137-0.028,0.279-0.059,0.423-0.089c-0.071,0.079-0.14,0.155-0.208,0.23
								c-6.039,6.687-10.808,11.968-8.298,17.645c2.491,5.633,9.547,5.659,18.481,5.693c0.146,0,0.299,0.001,0.455,0.002
								c-0.081,0.059-0.159,0.115-0.237,0.172c-7.31,5.29-13.083,9.468-11.808,15.553c1.262,6.021,8.149,7.508,16.869,9.39
								c0.082,0.018,0.165,0.036,0.25,0.055c-0.069,0.03-0.136,0.061-0.204,0.09c-8.505,3.748-14.651,6.455-14.228,12.629
								c0.414,6.062,6.818,8.205,15.131,10.624c-8.414,2.913-14.434,5.134-14.554,11.131c-0.119,5.947,5.831,8.702,13.664,11.833
								c-8.44,1.887-14.471,3.435-15.31,9.231c-0.824,5.703,4.401,9.193,11.451,13.209c-8.279,0.52-14.208,1.183-15.96,6.567
								c-1.73,5.319,2.537,9.608,8.511,14.666c-7.956-1.089-13.71-1.496-16.462,3.301c-2.865,4.991,0.725,10.189,5.776,16.574
								c-8.064-2.621-13.941-4.23-17.564,0.291c-0.225,0.281-0.416,0.566-0.592,0.854h34.561c-1.412-2.227-3.292-4.59-5.334-7.148
								c-0.352-0.44-0.748-0.936-1.163-1.461c0.381,0.053,0.751,0.105,1.099,0.154c9.521,1.338,17.041,2.396,19.784-3.81
								c2.628-5.942-2.908-10.555-9.918-16.395c-0.45-0.375-0.957-0.798-1.489-1.245c0.363-0.023,0.713-0.044,1.045-0.065
								c9.594-0.581,17.17-1.04,18.665-7.639c1.422-6.278-4.833-9.796-12.751-14.249c-0.427-0.24-0.899-0.506-1.396-0.787
								c0.246-0.055,0.485-0.108,0.715-0.159c9.319-2.076,16.681-3.715,17.193-10.383c0.489-6.376-5.842-8.885-14.604-12.36
								c-0.352-0.14-0.734-0.292-1.134-0.451c0.147-0.051,0.291-0.101,0.429-0.148c8.961-3.1,16.039-5.548,15.857-12.165
								c-0.176-6.368-6.718-8.26-15.774-10.878c-0.283-0.082-0.584-0.169-0.899-0.26c0.085-0.037,0.169-0.074,0.25-0.11
								c8.63-3.802,15.446-6.806,14.771-13.342c-0.693-6.708-8.344-8.359-17.201-10.271c-0.935-0.202-2.075-0.448-3.228-0.713
								c1.001-0.747,2.003-1.471,2.82-2.063c7.26-5.253,13.529-9.79,11.485-16.146c-2.064-6.411-9.878-6.44-18.926-6.474
								c-0.968-0.004-2.148-0.008-3.346-0.029c0.821-0.935,1.647-1.851,2.321-2.596c6.014-6.659,11.208-12.411,7.879-18.209
								c-3.351-5.836-10.992-4.236-19.841-2.381c-0.955,0.201-2.12,0.445-3.305,0.676c0.606-1.087,1.222-2.154,1.725-3.024
								c4.49-7.779,8.368-14.498,3.89-19.473c-4.506-5.004-11.636-1.824-19.892,1.857c-0.901,0.402-2.004,0.893-3.127,1.374
								c0.362-1.202,0.739-2.388,1.045-3.353c2.72-8.573,5.069-15.976-0.39-19.869c-5.493-3.913-11.754,0.753-19.008,6.16
								c-0.808,0.602-1.801,1.342-2.813,2.074c0.081-1.273,0.181-2.537,0.261-3.563c0.708-8.987,1.321-16.75-4.913-19.289
								c-6.262-2.549-11.255,3.463-17.032,10.428c-0.665,0.801-1.485,1.791-2.325,2.77c-0.239-1.274-0.456-2.548-0.633-3.579
								c-1.525-8.925-2.842-16.632-9.555-17.535c-6.685-0.901-9.995,6.177-13.799,14.375c-1.117,2.406-2.903,6.255-3.99,7.796
								c-2.244,0.932-3.823,3.146-3.823,5.728C254.657,138.242,257.433,141.018,260.857,141.018z"/>
						</g>
					</g>
					<g>
						<path style="fill:#3D2A3D;" d="M243.758,141.018c6.08,0,9.052-6.3,12.771-14.313c1.49,8.72,2.699,15.592,8.578,17.173
							c5.922,1.589,10.422-3.83,16.119-10.698l0.042-0.051c0,0.007-0.001,0.013-0.001,0.019c-0.705,8.939-1.261,15.999,4.13,18.983
							c5.385,2.98,11.036-1.239,18.196-6.579c0.073-0.054,0.147-0.11,0.224-0.167c-0.02,0.063-0.039,0.124-0.059,0.185
							c-2.72,8.569-4.867,15.337-0.256,19.463c4.593,4.108,11.043,1.234,19.208-2.409c0.116-0.051,0.235-0.104,0.357-0.158
							c-0.049,0.086-0.098,0.17-0.145,0.252c-4.5,7.796-8.053,13.952-4.417,18.974c3.616,4.994,10.528,3.545,19.28,1.709
							c0.136-0.028,0.278-0.059,0.423-0.089c-0.071,0.079-0.14,0.155-0.208,0.231c-6.039,6.686-10.808,11.966-8.299,17.644
							c2.491,5.633,9.547,5.659,18.481,5.693c0.147,0,0.3,0.001,0.455,0.002c-0.081,0.059-0.159,0.115-0.237,0.172
							c-7.31,5.29-13.083,9.468-11.807,15.553c1.262,6.021,8.149,7.508,16.868,9.39c0.083,0.018,0.167,0.036,0.251,0.055
							c-0.07,0.03-0.137,0.061-0.205,0.09c-8.504,3.748-14.649,6.455-14.228,12.629c0.414,6.062,6.818,8.205,15.131,10.624
							c-8.414,2.913-14.433,5.134-14.553,11.131c-0.119,5.946,5.832,8.702,13.664,11.833c-8.441,1.887-14.472,3.436-15.31,9.231
							c-0.824,5.703,4.401,9.193,11.451,13.209c-8.28,0.52-14.21,1.183-15.96,6.567c-1.73,5.319,2.537,9.608,8.51,14.666
							c-7.953-1.086-13.711-1.496-16.462,3.302c-2.864,4.991,0.727,10.189,5.777,16.573c-8.065-2.621-13.941-4.23-17.564,0.291
							c-0.225,0.281-0.416,0.566-0.592,0.854h34.56c-1.412-2.227-3.293-4.591-5.335-7.149c-0.351-0.441-0.747-0.936-1.162-1.46
							c0.382,0.053,0.752,0.105,1.1,0.154c9.522,1.337,17.04,2.395,19.785-3.811c2.626-5.942-2.91-10.555-9.919-16.394
							c-0.449-0.374-0.957-0.797-1.489-1.245c0.362-0.023,0.713-0.044,1.045-0.065c9.593-0.581,17.169-1.04,18.664-7.639
							c1.422-6.278-4.833-9.796-12.751-14.249c-0.426-0.24-0.898-0.506-1.395-0.787c0.245-0.055,0.484-0.108,0.714-0.159
							c9.32-2.076,16.682-3.715,17.194-10.385c0.488-6.374-5.843-8.883-14.604-12.358c-0.352-0.139-0.734-0.292-1.135-0.451
							c0.147-0.051,0.291-0.101,0.43-0.148c8.961-3.1,16.039-5.548,15.857-12.165c-0.176-6.368-6.718-8.26-15.774-10.878
							c-0.283-0.082-0.584-0.169-0.899-0.26c0.086-0.037,0.169-0.074,0.25-0.11c8.63-3.802,15.446-6.806,14.772-13.341
							c-0.693-6.709-8.344-8.36-17.202-10.272c-0.934-0.202-2.074-0.448-3.227-0.713c1.001-0.747,2.003-1.472,2.82-2.063
							c7.259-5.254,13.528-9.79,11.484-16.145c-2.063-6.412-9.877-6.441-18.926-6.475c-0.967-0.004-2.147-0.008-3.345-0.029
							c0.82-0.935,1.647-1.85,2.32-2.595c6.015-6.66,11.209-12.411,7.879-18.211c-3.352-5.835-10.993-4.234-19.841-2.379
							c-0.954,0.2-2.119,0.444-3.304,0.675c0.606-1.087,1.222-2.154,1.724-3.024c4.491-7.779,8.369-14.499,3.89-19.473
							c-4.505-5.004-11.634-1.824-19.891,1.856c-0.901,0.403-2.004,0.894-3.127,1.376c0.361-1.203,0.738-2.39,1.044-3.354
							c2.72-8.573,5.069-15.976-0.39-19.869c-5.493-3.915-11.754,0.751-19.007,6.159c-0.808,0.602-1.801,1.343-2.813,2.075
							c0.081-1.273,0.181-2.537,0.261-3.563c0.708-8.987,1.32-16.749-4.913-19.289c-6.26-2.551-11.253,3.462-17.033,10.428
							c-0.664,0.801-1.485,1.791-2.325,2.771c-0.239-1.275-0.456-2.55-0.633-3.581c-1.525-8.924-2.842-16.63-9.554-17.534
							c-6.689-0.895-9.994,6.177-13.8,14.376c-1.117,2.406-2.902,6.254-3.99,7.795c-2.243,0.932-3.822,3.146-3.822,5.728
							C237.558,138.242,240.334,141.018,243.758,141.018z"/>
					</g>
				</g>
			</g>
			<g>
				<g>
					<path style="fill:#A91935;" d="M226.992,274.542c0,0.157-0.01,0.333-0.01,0.5c0,16.026,13,29.021,29.016,29.021
						c16.019,0,29.019-12.995,29.019-29.021c0-0.167-0.013-0.343-0.02-0.5H226.992z"/>
					<path style="fill:#FFFFFF;" d="M236.204,274.542v2.483c0,5.041,4.079,9.119,9.111,9.119h29.853
						c5.039,0,9.124-4.078,9.124-9.119v-2.483H236.204z"/>
				</g>
			</g>
			<g>
				<path style="fill:#3D2A3D;" d="M237.884,207.141c0.739,4.216-2.08,8.233-6.296,8.972l-22.901,4.013
					c-4.216,0.739-8.233-2.08-8.972-6.296l0,0c-0.739-4.216,2.08-8.233,6.297-8.972l22.902-4.013
					C233.129,200.107,237.145,202.926,237.884,207.141L237.884,207.141z"/>
				<path style="fill:#3D2A3D;" d="M274.116,207.141c-0.739,4.216,2.08,8.233,6.297,8.972l22.901,4.013
					c4.216,0.739,8.233-2.08,8.972-6.296l0,0c0.739-4.216-2.08-8.233-6.296-8.972l-22.902-4.013
					C278.872,200.107,274.855,202.926,274.116,207.141L274.116,207.141z"/>
			</g>
		</g>
	</g>
</g>
</svg>
