<?xml version="1.0" encoding="iso-8859-1"?>
<!-- Generator: Adobe Illustrator 22.0.1, SVG Export Plug-In . SVG Version: 6.00 Build 0)  -->
<svg version="1.1" id="Layer_7" xmlns="http://www.w3.org/2000/svg" xmlns:xlink="http://www.w3.org/1999/xlink" x="0px" y="0px"
	 viewBox="0 0 512 512" style="enable-background:new 0 0 512 512;" xml:space="preserve">
<g>
	<path style="fill:#2961A5;" d="M512,256.002C512,397.392,397.387,512,255.998,512C114.614,512,0,397.392,0,256.002
		C0,114.612,114.614,0,255.998,0C397.387,0,512,114.612,512,256.002z"/>
	<g>
		<defs>
			<path id="SVGID_31_" d="M0,255.996C0,114.607,114.613,0,256.002,0C397.387,0,512,114.607,512,255.996
				C512,397.389,397.387,512,256.002,512C114.613,512,0,397.389,0,255.996z"/>
		</defs>
		<clipPath id="SVGID_2_">
			<use xlink:href="#SVGID_31_"  style="overflow:visible;"/>
		</clipPath>
		<path style="clip-path:url(#SVGID_2_);fill:#F0B39C;" d="M295.404,369.61c0.034,20.478-16.528,37.106-37.006,37.144l-4.494,0.005
			c-20.478,0.038-37.106-16.53-37.144-37.008l-0.164-95.491c-0.033-20.473,16.523-37.106,37.008-37.139l4.492-0.012
			c20.473-0.038,37.101,16.53,37.139,37.009L295.404,369.61z"/>
		<g style="clip-path:url(#SVGID_2_);">
			<path style="fill:#F0B39C;" d="M441.602,516l-0.053-0.842c0-51.205-19.168-100.816-42.572-110.264l-99.68-40.158
				c-23.406-9.439-61.737-9.477-85.148-0.112l-101.107,40.397c-23.425,9.378-42.593,58.933-42.593,110.138L70.398,516H441.602z"/>
			<path style="fill:#DB4646;" d="M441.549,515.158c0-51.205-19.168-100.816-42.572-110.264l-79.255-31.93
				C308.704,397.166,284.326,414,256,414c-28.194,0-52.479-16.678-63.57-40.698l-79.387,31.719
				c-23.425,9.378-42.593,58.933-42.593,110.138L70.398,516h371.204L441.549,515.158z"/>
		</g>
		<g style="clip-path:url(#SVGID_2_);">
			<g>
				<path style="fill:#F0B39C;" d="M182.27,245.217c7.276,16.18,3.352,31.934-8.752,35.183c-12.096,3.241-27.808-7.253-35.084-23.44
					c-7.268-16.185-3.355-31.926,8.755-35.179C159.29,218.539,174.996,229.032,182.27,245.217z"/>
				<path style="fill:#F0B39C;" d="M329.736,244.954c-7.208,16.211-3.233,31.947,8.882,35.151
					c12.115,3.206,27.789-7.349,35.004-23.56c7.212-16.204,3.241-31.944-8.877-35.142
					C352.625,218.191,336.951,228.75,329.736,244.954z"/>
			</g>
			<g>
				<path style="fill:#FFDBC5;" d="M354.821,251.32c0.154,81.092-93.259,123.255-156.792,72.877
					c-75.779-60.089-55.944-233.3,57.716-233.502c54.584-0.099,98.882,45.518,98.98,101.817
					C354.725,192.513,354.821,251.307,354.821,251.32z"/>
			</g>
			<polygon style="fill:#BF642C;" points="179.12,64.281 182.445,89.738 155.845,88.946 173.681,118.309 208.82,89.874 			"/>
			<g>
				<defs>
					<path id="SVGID_33_" d="M354.821,251.32c0.154,81.092-93.259,123.255-156.792,72.877
						c-75.779-60.089-55.944-233.3,57.716-233.502c54.584-0.099,98.882,45.518,98.98,101.817
						C354.725,192.513,354.821,251.307,354.821,251.32z"/>
				</defs>
				<clipPath id="SVGID_4_">
					<use xlink:href="#SVGID_33_"  style="overflow:visible;"/>
				</clipPath>
			</g>
			<g>
				<polygon style="fill:#BF642C;" points="350.341,236.672 363.012,236.757 363.586,153.348 337.501,139.646 				"/>
				<polygon style="fill:#BF642C;" points="152.87,236.409 165.535,236.489 179.731,139.646 152.87,152.986 				"/>
			</g>
			<g>
				<g>
					<path style="fill:#C96A46;" d="M286.548,290.541c-12.543,20.234-48.296,20.295-60.919,0.112
						c-3.212-5.115-11.317-0.399-8.092,4.753c16.392,26.226,60.82,26.146,77.128-0.141
						C297.863,290.108,289.733,285.421,286.548,290.541L286.548,290.541z"/>
				</g>
			</g>
			<path style="fill:#F0B39C;" d="M271.862,247.826c-0.503,8.836-7.887,15.844-17.013,15.844c-7.731,0-14.188-5.057-16.314-11.989
				c-0.475,1.625-0.819,3.317-0.819,5.087c0,10.104,8.201,18.301,18.286,18.301c10.112,0,18.282-8.198,18.282-18.301
				C274.284,253.495,273.368,250.482,271.862,247.826z"/>
			<g>
				<circle style="fill:#704D70;" cx="219.245" cy="236.742" r="11.085"/>
				<circle style="fill:#704D70;" cx="292.755" cy="236.742" r="11.085"/>
			</g>
			<path style="fill:#BF642C;" d="M253.588,75.473c-63.669,0-115.282,47.351-115.282,105.763c0,19.398,5.698,37.573,15.633,53.203
				l11.452-82.218l176.373-0.007l11.474,82.223c9.934-15.629,15.631-33.803,15.631-53.2
				C368.869,122.823,317.255,75.473,253.588,75.473z"/>
			<ellipse style="fill:#BF642C;" cx="253.588" cy="153.815" rx="100.726" ry="33.575"/>
			<g>
				<ellipse style="fill:#F0B39C;" cx="303.951" cy="265.733" rx="22.384" ry="11.192"/>
				<ellipse style="fill:#F0B39C;" cx="203.224" cy="265.733" rx="22.384" ry="11.192"/>
			</g>
		</g>
	</g>
</g>
</svg>
